{"glyphs":{"0":{"ha":814,"x_min":49,"x_max":765,"o":"m 765 494 q 746 281 765 375 q 685 121 727 187 q 575 21 644 56 q 407 -14 507 -14 q 203 47 283 -14 q 86 221 124 108 q 49 494 49 335 q 83 769 49 655 q 196 945 117 884 q 407 1006 275 1006 q 610 945 531 1006 q 727 770 689 884 q 765 494 765 656 m 315 494 q 322 332 315 397 q 350 233 330 266 q 407 200 370 200 q 464 233 444 200 q 491 331 484 266 q 498 494 498 397 q 491 659 498 593 q 464 758 484 724 q 407 791 444 791 q 350 758 370 791 q 322 659 330 724 q 315 494 315 593 z "},"1":{"ha":814,"x_min":57,"x_max":639,"o":"m 639 0 l 367 0 l 367 490 q 367 540 367 504 q 368 621 367 576 q 371 700 369 665 q 338 664 353 679 q 309 636 323 649 l 196 543 l 57 714 l 397 991 l 639 991 l 639 0 z "},"2":{"ha":814,"x_min":31,"x_max":761,"o":"m 761 0 l 41 0 l 41 176 l 283 421 q 400 547 359 500 q 459 628 442 595 q 476 697 476 661 q 448 761 476 741 q 380 781 419 781 q 286 754 334 781 q 178 675 238 727 l 31 847 q 125 923 75 887 q 244 983 176 960 q 411 1006 313 1006 q 586 970 512 1006 q 701 874 661 935 q 742 734 742 812 q 710 581 742 648 q 616 446 679 513 q 458 293 553 378 l 386 228 l 386 221 l 761 221 l 761 0 z "},"3":{"ha":814,"x_min":47,"x_max":757,"o":"m 728 777 q 697 655 728 706 q 617 571 667 604 q 509 522 568 538 l 509 518 q 692 446 627 503 q 757 283 757 389 q 713 135 757 202 q 578 27 670 67 q 343 -14 487 -14 q 179 1 247 -14 q 47 40 111 15 l 47 262 q 180 213 112 229 q 304 197 248 197 q 438 225 402 197 q 473 300 473 253 q 456 357 473 334 q 394 394 439 381 q 262 407 348 407 l 201 407 l 201 608 l 264 608 q 384 622 340 608 q 448 659 429 635 q 468 713 468 682 q 437 771 468 752 q 357 790 407 790 q 273 778 312 790 q 204 751 233 766 q 160 726 175 736 l 49 905 q 190 977 111 947 q 399 1006 270 1006 q 640 945 552 1006 q 728 777 728 884 z "},"4":{"ha":814,"x_min":24,"x_max":793,"o":"m 793 192 l 684 192 l 684 0 l 419 0 l 419 192 l 24 192 l 24 389 l 436 991 l 684 991 l 684 392 l 793 392 l 793 192 m 419 392 l 419 507 q 420 547 419 523 q 421 594 420 570 q 424 635 422 618 q 425 653 425 652 l 418 653 q 394 603 405 623 q 366 555 383 583 l 256 392 l 419 392 z "},"5":{"ha":814,"x_min":64,"x_max":750,"o":"m 450 650 q 601 612 533 650 q 709 504 669 575 q 750 330 750 433 q 706 143 750 220 q 572 26 661 66 q 347 -14 483 -14 q 190 0 261 -14 q 64 40 119 13 l 64 260 q 190 217 116 236 q 325 197 263 197 q 409 212 374 197 q 461 254 444 226 q 479 322 479 281 q 439 411 479 378 q 315 443 398 443 q 242 435 278 443 q 179 419 206 428 l 81 468 l 118 991 l 684 991 l 684 768 l 346 768 l 334 637 q 378 646 355 642 q 450 650 401 650 z "},"6":{"ha":814,"x_min":47,"x_max":771,"o":"m 47 419 q 60 589 47 505 q 104 748 72 673 q 194 881 136 823 q 344 972 252 939 q 567 1006 435 1006 q 638 1002 596 1006 q 708 994 680 999 l 708 785 q 646 794 680 790 q 561 798 611 798 q 402 767 460 798 q 319 681 345 737 q 289 546 293 625 l 297 546 q 340 605 315 578 q 403 646 366 631 q 493 661 440 661 q 642 624 580 661 q 738 514 705 586 q 771 339 771 442 q 729 149 771 228 q 608 28 686 70 q 421 -14 530 -14 q 273 12 341 -14 q 154 91 205 38 q 76 226 104 144 q 47 419 47 308 m 415 199 q 485 231 458 199 q 511 334 511 264 q 489 422 511 390 q 418 454 467 454 q 361 438 385 454 q 326 398 338 422 q 314 347 314 374 q 320 294 314 321 q 338 247 326 268 q 370 212 351 225 q 415 199 389 199 z "},"7":{"ha":814,"x_min":53,"x_max":768,"o":"m 142 0 l 482 770 l 53 770 l 53 991 l 768 991 l 768 833 l 419 0 l 142 0 z "},"8":{"ha":814,"x_min":46,"x_max":770,"o":"m 410 1006 q 582 979 508 1006 q 699 899 656 953 q 741 764 741 845 q 719 659 741 704 q 658 580 696 614 q 570 522 620 547 q 663 460 616 496 q 739 377 709 425 q 770 264 770 330 q 731 122 770 184 q 612 23 692 59 q 407 -14 532 -14 q 201 21 281 -14 q 84 118 121 56 q 46 261 46 180 q 70 378 46 330 q 134 458 93 425 q 227 518 174 492 q 151 581 185 546 q 96 662 116 616 q 75 765 75 707 q 118 899 75 845 q 236 979 161 952 q 410 1006 312 1006 m 292 272 q 321 205 292 231 q 404 179 351 179 q 495 202 466 179 q 524 267 524 226 q 506 322 524 297 q 464 365 488 347 q 422 393 440 383 l 404 404 q 348 369 374 389 q 307 326 323 350 q 292 272 292 302 m 408 812 q 351 793 375 812 q 326 741 326 774 q 337 700 326 719 q 365 666 347 682 q 406 637 383 650 q 444 663 425 649 q 476 695 463 676 q 489 741 489 714 q 465 793 489 774 q 408 812 441 812 z "},"9":{"ha":814,"x_min":43,"x_max":766,"o":"m 766 557 q 748 361 766 450 q 690 203 729 273 q 590 85 651 134 q 444 12 529 37 q 249 -14 359 -14 q 178 -12 218 -14 q 110 -7 138 -11 l 110 205 q 168 198 139 201 q 236 195 197 195 q 409 227 348 195 q 496 315 471 258 q 525 446 521 372 l 517 446 q 474 386 499 412 q 411 345 449 360 q 317 330 373 330 q 172 368 233 330 q 77 478 111 406 q 43 654 43 551 q 85 843 43 765 q 207 964 127 922 q 395 1006 286 1006 q 539 979 472 1006 q 658 898 607 953 q 738 759 709 844 q 766 557 766 674 m 401 791 q 329 760 355 791 q 302 657 302 728 q 327 569 302 602 q 399 536 351 536 q 451 552 429 536 q 487 593 474 568 q 500 644 500 618 q 494 697 500 671 q 476 744 488 723 q 446 779 465 766 q 401 791 427 791 z "},"\u0000":{"ha":0,"x_min":0,"x_max":0,"o":""},"\r":{"ha":361,"x_min":0,"x_max":0,"o":""}," ":{"ha":361,"x_min":0,"x_max":0,"o":""},"!":{"ha":403,"x_min":56,"x_max":349,"o":"m 314 350 l 90 350 l 56 991 l 349 991 l 314 350 m 58 113 q 101 214 58 184 q 201 243 143 243 q 300 214 259 243 q 342 113 342 184 q 300 14 342 44 q 201 -17 259 -17 q 101 14 143 -17 q 58 113 58 44 z "},"\"":{"ha":728,"x_min":82,"x_max":646,"o":"m 323 991 l 296 633 l 110 633 l 82 991 l 323 991 m 646 991 l 618 633 l 432 633 l 404 991 l 646 991 z "},"#":{"ha":920,"x_min":25,"x_max":895,"o":"m 707 551 l 686 437 l 851 437 l 851 265 l 654 265 l 604 0 l 422 0 l 472 265 l 358 265 l 310 0 l 129 0 l 178 265 l 25 265 l 25 437 l 211 437 l 232 551 l 71 551 l 71 728 l 265 728 l 314 991 l 496 991 l 446 728 l 558 728 l 607 991 l 789 991 l 739 728 l 895 728 l 895 551 l 707 551 m 392 437 l 504 437 l 525 551 l 412 551 l 392 437 z "},"$":{"ha":802,"x_min":36,"x_max":770,"o":"m 336 -81 l 336 31 q 181 47 246 33 q 58 87 117 62 l 58 300 q 198 253 124 271 q 336 231 273 236 l 336 401 q 182 461 250 427 q 75 552 115 496 q 36 697 36 608 q 73 837 36 781 q 178 923 111 893 q 336 960 246 954 l 336 1055 l 464 1055 l 464 961 q 618 939 549 957 q 743 897 687 920 l 684 711 q 576 747 632 733 q 464 765 519 760 l 464 597 q 629 535 561 568 q 733 452 697 503 q 770 319 770 401 q 696 129 770 207 q 464 33 622 50 l 464 -81 l 336 -81 m 464 233 q 524 255 505 239 q 543 297 543 271 q 536 327 543 315 q 512 350 529 340 q 464 370 494 360 l 464 233 m 336 635 l 336 764 q 294 754 311 762 q 269 735 277 747 q 260 707 260 723 q 267 677 260 690 q 292 654 275 664 q 336 635 309 644 z "},"%":{"ha":1317,"x_min":25,"x_max":1291,"o":"m 278 1006 q 466 924 395 1006 q 536 696 536 843 q 470 466 536 549 q 278 383 404 383 q 95 466 164 383 q 25 696 25 549 q 91 924 25 843 q 278 1006 156 1006 m 281 840 q 240 801 252 840 q 229 693 229 761 q 240 586 229 627 q 281 546 252 546 q 321 586 310 546 q 332 693 332 625 q 321 801 332 761 q 281 840 310 840 m 1031 991 l 481 0 l 279 0 l 829 991 l 1031 991 m 1032 611 q 1220 530 1149 611 q 1291 301 1291 448 q 1224 72 1291 155 q 1032 -11 1158 -11 q 849 72 918 -11 q 779 301 779 155 q 845 530 779 448 q 1032 611 910 611 m 1035 446 q 995 406 1006 446 q 983 298 983 366 q 995 192 983 232 q 1035 151 1006 151 q 1075 191 1064 151 q 1086 298 1086 231 q 1075 407 1086 369 q 1035 446 1064 446 z "},"&":{"ha":1109,"x_min":49,"x_max":1117,"o":"m 458 1004 q 620 976 552 1004 q 724 896 688 948 q 761 768 761 843 q 711 620 761 682 q 582 509 661 557 l 717 380 q 759 462 741 417 q 787 557 777 507 l 1063 557 q 996 363 1041 456 q 900 208 951 270 l 1117 0 l 774 0 l 707 69 q 632 27 669 46 q 543 -3 595 8 q 408 -14 491 -14 q 212 25 292 -14 q 90 130 132 64 q 49 275 49 195 q 70 385 49 334 q 133 476 92 435 q 233 547 174 517 q 185 613 205 579 q 155 685 165 647 q 144 768 144 724 q 180 890 144 837 q 286 974 216 943 q 458 1004 356 1004 m 378 401 q 346 370 359 387 q 328 334 334 353 q 322 294 322 315 q 353 224 322 252 q 433 197 384 197 q 501 208 472 197 q 546 231 530 218 l 378 401 m 454 831 q 405 814 426 831 q 383 760 383 798 q 401 703 383 730 q 443 654 419 676 q 502 707 481 676 q 522 768 522 737 q 503 816 522 802 q 454 831 484 831 z "},"'":{"ha":406,"x_min":82,"x_max":323,"o":"m 323 991 l 296 633 l 110 633 l 82 991 l 323 991 z "},"(":{"ha":498,"x_min":50,"x_max":461,"o":"m 50 395 q 68 620 50 508 q 129 833 87 731 q 240 1019 170 935 l 461 1019 q 326 725 368 889 q 283 396 283 560 q 302 179 283 288 q 359 -33 320 69 q 460 -220 398 -135 l 240 -220 q 129 -38 170 -138 q 68 173 87 62 q 50 395 50 283 z "},")":{"ha":498,"x_min":37,"x_max":449,"o":"m 449 395 q 431 173 449 283 q 371 -38 412 62 q 258 -220 329 -138 l 39 -220 q 140 -33 101 -135 q 197 179 178 69 q 215 396 215 288 q 197 616 215 506 q 139 829 178 726 q 37 1019 100 932 l 258 1019 q 371 833 329 935 q 431 620 412 731 q 449 395 449 508 z "},"*":{"ha":746,"x_min":31,"x_max":717,"o":"m 476 1055 l 450 817 l 692 885 l 717 685 l 504 671 l 644 482 l 468 389 l 371 581 l 288 390 l 103 482 l 243 671 l 31 688 l 61 885 l 297 817 l 271 1055 l 476 1055 z "},"+":{"ha":814,"x_min":62,"x_max":750,"o":"m 497 581 l 750 581 l 750 399 l 497 399 l 497 154 l 315 154 l 315 399 l 62 399 l 62 581 l 315 581 l 315 829 l 497 829 l 497 581 z "},",":{"ha":429,"x_min":39,"x_max":347,"o":"m 338 203 l 347 187 q 316 68 335 138 q 274 -72 296 -1 q 228 -193 251 -142 l 39 -193 q 65 -59 52 -130 q 89 79 78 12 q 106 203 100 147 l 338 203 z "},"-":{"ha":441,"x_min":29,"x_max":412,"o":"m 29 267 l 29 478 l 412 478 l 412 267 l 29 267 z "},".":{"ha":401,"x_min":58,"x_max":342,"o":"m 58 113 q 101 214 58 184 q 203 243 143 243 q 300 214 259 243 q 342 113 342 184 q 300 14 342 44 q 203 -17 259 -17 q 101 14 143 -17 q 58 113 58 44 z "},"/":{"ha":614,"x_min":7,"x_max":611,"o":"m 611 1006 l 241 -14 l 7 -14 l 376 1006 l 611 1006 z "},":":{"ha":401,"x_min":58,"x_max":342,"o":"m 58 113 q 101 214 58 184 q 203 243 143 243 q 300 214 259 243 q 342 113 342 184 q 300 14 342 44 q 203 -17 259 -17 q 101 14 143 -17 q 58 113 58 44 m 58 648 q 101 749 58 720 q 203 778 143 778 q 300 749 259 778 q 342 648 342 720 q 300 548 342 578 q 203 518 259 518 q 101 548 143 518 q 58 648 58 578 z "},";":{"ha":412,"x_min":39,"x_max":347,"o":"m 338 203 l 347 187 q 316 68 335 138 q 274 -72 296 -1 q 228 -193 251 -142 l 39 -193 q 65 -59 52 -130 q 89 79 78 12 q 106 203 100 147 l 338 203 m 62 648 q 104 749 62 720 q 205 778 146 778 q 304 749 262 778 q 346 648 346 720 q 304 548 346 578 q 205 518 262 518 q 104 548 146 518 q 62 648 62 578 z "},"<":{"ha":814,"x_min":62,"x_max":749,"o":"m 749 121 l 62 425 l 62 542 l 749 885 l 749 684 l 328 492 l 749 321 l 749 121 z "},"=":{"ha":814,"x_min":62,"x_max":751,"o":"m 62 553 l 62 734 l 751 734 l 751 553 l 62 553 m 62 243 l 62 427 l 751 427 l 751 243 l 62 243 z "},">":{"ha":814,"x_min":62,"x_max":749,"o":"m 62 321 l 484 492 l 62 684 l 62 885 l 749 542 l 749 425 l 62 121 l 62 321 z "},"?":{"ha":701,"x_min":0,"x_max":676,"o":"m 200 350 l 200 408 q 211 484 200 450 q 248 549 221 518 q 323 610 275 579 q 391 660 370 639 q 420 700 413 682 q 427 736 427 718 q 401 781 427 764 q 334 798 375 798 q 222 779 282 798 q 94 725 162 761 l 0 909 q 163 980 77 954 q 353 1006 250 1006 q 591 938 507 1006 q 676 758 676 869 q 660 661 676 705 q 608 578 644 617 q 515 503 573 540 q 451 458 475 477 q 418 423 428 440 q 408 385 408 406 l 408 350 l 200 350 m 171 113 q 213 214 171 184 q 314 243 254 243 q 413 214 371 243 q 454 113 454 184 q 413 14 454 44 q 314 -17 371 -17 q 213 14 254 -17 q 171 113 171 44 z "},"@":{"ha":1246,"x_min":56,"x_max":1190,"o":"m 1190 513 q 1174 385 1190 448 q 1124 270 1157 321 q 1044 189 1092 219 q 933 158 996 158 q 839 179 884 158 q 768 239 794 199 l 758 239 q 683 181 727 205 q 582 158 640 158 q 389 234 453 158 q 325 433 325 309 q 365 598 325 525 q 481 713 404 671 q 672 755 559 755 q 805 743 740 755 q 914 714 871 730 l 900 428 q 899 401 900 420 q 899 364 899 382 q 908 319 899 332 q 932 306 918 306 q 975 334 957 306 q 1002 410 992 363 q 1011 514 1011 458 q 972 694 1011 618 q 854 811 932 770 q 660 852 777 852 q 478 820 557 852 q 347 728 399 787 q 267 588 294 669 q 240 411 240 507 q 281 220 240 302 q 405 95 323 139 q 610 50 487 50 q 781 68 687 50 q 958 115 875 85 l 958 -40 q 799 -87 886 -71 q 619 -104 712 -104 q 315 -42 441 -104 q 122 137 189 21 q 56 414 56 254 q 98 646 56 539 q 219 834 140 753 q 409 960 298 915 q 657 1004 519 1004 q 938 945 818 1004 q 1124 775 1057 885 q 1190 513 1190 665 m 515 435 q 540 336 515 367 q 606 306 565 306 q 684 350 661 306 q 714 497 707 395 l 721 603 q 697 606 707 605 q 675 607 688 607 q 584 583 619 607 q 532 520 549 559 q 515 435 515 481 z "},"A":{"ha":1008,"x_min":0,"x_max":1008,"o":"m 715 0 l 667 186 l 345 186 l 294 0 l 0 0 l 323 996 l 681 996 l 1008 0 l 715 0 m 611 406 l 568 568 q 549 644 562 595 q 523 746 536 693 q 504 832 511 798 q 487 748 498 798 q 464 650 475 699 q 443 568 452 601 l 400 406 l 611 406 z "},"B":{"ha":936,"x_min":107,"x_max":871,"o":"m 107 991 l 453 991 q 760 928 668 991 q 851 745 851 864 q 828 634 851 680 q 769 562 804 589 q 696 526 733 536 l 696 519 q 777 486 736 509 q 844 416 817 463 q 871 290 871 370 q 825 135 871 200 q 694 35 779 70 q 493 0 610 0 l 107 0 l 107 991 m 375 611 l 456 611 q 549 638 522 611 q 576 705 576 666 q 546 767 576 746 q 450 789 515 789 l 375 789 l 375 611 m 375 415 l 375 207 l 469 207 q 567 237 539 207 q 595 313 595 267 q 583 362 595 339 q 543 400 571 386 q 464 415 514 415 l 375 415 z "},"C":{"ha":901,"x_min":71,"x_max":859,"o":"m 549 786 q 464 766 501 786 q 400 708 427 746 q 360 615 374 670 q 346 492 346 561 q 370 334 346 398 q 442 238 393 271 q 564 205 490 205 q 691 224 630 205 q 815 268 753 242 l 815 41 q 681 -1 749 12 q 534 -14 612 -14 q 270 51 373 -14 q 119 229 168 115 q 71 493 71 342 q 102 699 71 606 q 195 862 134 793 q 346 968 256 930 q 551 1006 435 1006 q 703 989 623 1006 q 859 936 783 972 l 777 725 q 667 768 722 751 q 549 786 611 786 z "},"D":{"ha":1019,"x_min":107,"x_max":949,"o":"m 949 517 q 884 229 949 344 q 703 57 820 115 q 428 0 586 0 l 107 0 l 107 991 l 450 991 q 722 937 610 991 q 891 776 833 882 q 949 517 949 670 m 671 507 q 647 657 671 597 q 574 746 623 716 q 453 775 526 775 l 375 775 l 375 220 l 435 220 q 614 291 557 220 q 671 507 671 361 z "},"E":{"ha":762,"x_min":107,"x_max":696,"o":"m 696 0 l 107 0 l 107 991 l 696 991 l 696 777 l 375 777 l 375 621 l 672 621 l 672 406 l 375 406 l 375 218 l 696 218 l 696 0 z "},"F":{"ha":749,"x_min":107,"x_max":693,"o":"m 371 0 l 107 0 l 107 991 l 693 991 l 693 777 l 371 777 l 371 587 l 668 587 l 668 372 l 371 372 l 371 0 z "},"G":{"ha":1028,"x_min":71,"x_max":933,"o":"m 505 581 l 933 581 l 933 46 q 758 3 857 20 q 550 -14 659 -14 q 299 42 407 -14 q 131 211 191 98 q 71 498 71 325 q 130 768 71 654 q 306 944 190 882 q 591 1006 422 1006 q 768 988 684 1006 q 913 943 851 970 l 828 733 q 717 773 774 760 q 593 786 659 786 q 450 746 504 786 q 372 639 396 706 q 347 492 347 572 q 373 336 347 399 q 450 240 399 273 q 572 207 500 207 q 630 210 596 207 q 682 218 665 214 l 682 374 l 505 374 l 505 581 z "},"H":{"ha":1064,"x_min":107,"x_max":957,"o":"m 957 0 l 688 0 l 688 404 l 376 404 l 376 0 l 107 0 l 107 991 l 376 991 l 376 624 l 688 624 l 688 991 l 957 991 l 957 0 z "},"I":{"ha":484,"x_min":107,"x_max":376,"o":"m 107 0 l 107 991 l 376 991 l 376 0 l 107 0 z "},"J":{"ha":489,"x_min":-110,"x_max":382,"o":"m 29 -311 q -51 -307 -16 -311 q -110 -297 -85 -302 l -110 -89 q -64 -98 -88 -93 q -11 -103 -39 -103 q 64 -83 37 -103 q 102 -24 91 -64 q 113 74 113 15 l 113 991 l 382 991 l 382 97 q 337 -142 382 -52 q 213 -271 292 -231 q 29 -311 134 -311 z "},"K":{"ha":954,"x_min":107,"x_max":960,"o":"m 954 0 l 652 0 l 456 379 l 376 332 l 376 0 l 107 0 l 107 991 l 376 991 l 376 561 q 415 626 393 593 q 458 688 437 659 l 667 991 l 960 991 l 647 547 l 954 0 z "},"L":{"ha":808,"x_min":107,"x_max":757,"o":"m 107 0 l 107 991 l 375 991 l 375 216 l 757 216 l 757 0 l 107 0 z "},"M":{"ha":1343,"x_min":107,"x_max":1236,"o":"m 539 0 l 336 714 l 330 714 q 336 639 333 686 q 342 536 339 591 q 345 431 345 481 l 345 0 l 107 0 l 107 991 l 464 991 l 671 288 l 676 288 l 879 991 l 1236 991 l 1236 0 l 990 0 l 990 435 q 992 535 990 481 q 996 637 994 589 q 1000 713 998 685 l 994 713 l 794 0 l 539 0 z "},"N":{"ha":1158,"x_min":107,"x_max":1051,"o":"m 1051 0 l 700 0 l 338 699 l 332 699 q 338 622 335 667 q 342 531 340 577 q 345 447 345 484 l 345 0 l 107 0 l 107 991 l 457 991 l 818 302 l 822 302 q 818 378 820 335 q 814 465 816 421 q 812 543 812 509 l 812 991 l 1051 991 l 1051 0 z "},"O":{"ha":1107,"x_min":71,"x_max":1035,"o":"m 1035 497 q 1007 289 1035 382 q 922 127 980 195 q 772 23 863 59 q 553 -14 680 -14 q 337 23 428 -14 q 186 126 245 59 q 99 288 127 194 q 71 498 71 382 q 122 767 71 653 q 280 944 173 882 q 554 1007 387 1007 q 830 944 724 1007 q 985 766 936 881 q 1035 497 1035 652 m 353 497 q 373 343 353 408 q 437 244 393 279 q 553 210 481 210 q 670 244 627 210 q 733 343 714 279 q 753 497 753 408 q 708 709 753 631 q 554 787 663 787 q 437 752 481 787 q 373 652 393 717 q 353 497 353 587 z "},"P":{"ha":878,"x_min":107,"x_max":827,"o":"m 450 991 q 733 909 639 991 q 827 676 827 827 q 807 546 827 608 q 744 435 788 484 q 628 357 701 386 q 450 329 556 329 l 375 329 l 375 0 l 107 0 l 107 991 l 450 991 m 444 775 l 375 775 l 375 547 l 428 547 q 492 559 463 547 q 540 598 522 571 q 558 669 558 625 q 530 746 558 716 q 444 775 503 775 z "},"Q":{"ha":1107,"x_min":71,"x_max":1063,"o":"m 1035 497 q 1013 306 1035 394 q 944 152 991 218 q 821 43 897 85 l 1063 -236 l 729 -236 l 562 -14 q 558 -14 562 -14 q 553 -14 554 -14 q 337 23 428 -14 q 186 126 245 59 q 99 288 127 194 q 71 498 71 382 q 122 767 71 653 q 280 944 173 882 q 554 1007 387 1007 q 830 944 724 1007 q 985 766 936 881 q 1035 497 1035 652 m 353 497 q 373 343 353 408 q 437 244 393 279 q 553 210 481 210 q 670 244 627 210 q 733 343 714 279 q 753 497 753 408 q 708 709 753 631 q 554 787 663 787 q 437 752 481 787 q 373 652 393 717 q 353 497 353 587 z "},"R":{"ha":940,"x_min":107,"x_max":957,"o":"m 432 991 q 656 959 567 991 q 791 861 746 926 q 836 699 836 795 q 816 589 836 638 q 758 500 795 539 q 668 432 720 461 l 957 0 l 653 0 l 443 361 l 375 361 l 375 0 l 107 0 l 107 991 l 432 991 m 428 789 l 375 789 l 375 562 l 425 562 q 526 589 487 562 q 566 686 566 616 q 533 762 566 734 q 428 789 500 789 z "},"S":{"ha":802,"x_min":61,"x_max":755,"o":"m 755 301 q 715 148 755 220 q 588 31 674 76 q 367 -14 503 -14 q 248 -7 299 -14 q 153 13 197 -1 q 61 49 109 26 l 61 288 q 224 225 142 247 q 372 204 306 204 q 438 214 412 204 q 475 240 463 223 q 488 278 488 256 q 470 322 488 304 q 412 359 452 340 q 309 408 373 379 q 209 461 254 434 q 133 523 165 488 q 85 605 102 558 q 68 715 68 652 q 115 876 68 811 q 247 973 162 941 q 441 1006 331 1006 q 616 984 538 1006 q 755 935 694 962 l 673 728 q 548 774 610 757 q 433 791 486 791 q 377 783 399 791 q 344 760 355 774 q 334 728 334 746 q 352 686 334 705 q 412 647 370 668 q 528 591 454 625 q 651 521 600 559 q 729 431 702 484 q 755 301 755 378 z "},"T":{"ha":821,"x_min":35,"x_max":786,"o":"m 545 0 l 277 0 l 277 772 l 35 772 l 35 991 l 786 991 l 786 772 l 545 772 l 545 0 z "},"U":{"ha":1051,"x_min":102,"x_max":950,"o":"m 950 991 l 950 395 q 903 178 950 270 q 760 36 855 86 q 522 -14 665 -14 q 210 92 317 -14 q 102 389 102 197 l 102 991 l 371 991 l 371 410 q 410 257 371 304 q 526 210 450 210 q 616 230 581 210 q 666 296 650 251 q 682 411 682 340 l 682 991 l 950 991 z "},"V":{"ha":964,"x_min":0,"x_max":964,"o":"m 964 991 l 639 0 l 323 0 l 0 991 l 301 991 l 436 489 q 453 416 444 460 q 472 328 463 372 q 482 256 480 283 q 492 327 485 283 q 509 414 500 370 q 526 486 518 458 l 664 991 l 964 991 z "},"W":{"ha":1443,"x_min":21,"x_max":1422,"o":"m 1422 991 l 1178 0 l 861 0 l 766 432 q 758 473 764 444 q 745 540 752 503 q 732 613 738 577 q 724 675 726 650 q 715 613 721 650 q 702 540 709 577 q 688 473 694 503 q 679 432 682 444 l 583 0 l 267 0 l 21 991 l 279 991 l 387 494 q 398 443 391 476 q 413 369 406 409 q 428 293 421 330 q 437 232 435 256 q 452 328 443 274 q 472 436 461 381 q 494 539 484 492 q 511 616 504 587 l 599 991 l 847 991 l 932 616 q 949 539 939 587 q 971 436 960 492 q 991 327 982 380 q 1006 232 1001 273 q 1019 318 1010 266 q 1039 419 1029 370 q 1054 493 1048 468 l 1164 991 l 1422 991 z "},"X":{"ha":1004,"x_min":3,"x_max":1000,"o":"m 1000 0 l 690 0 l 497 310 l 306 0 l 3 0 l 332 507 l 22 991 l 319 991 l 498 685 l 671 991 l 977 991 l 663 486 l 1000 0 z "},"Y":{"ha":922,"x_min":0,"x_max":922,"o":"m 461 624 l 632 991 l 922 991 l 596 387 l 596 0 l 326 0 l 326 379 l 0 991 l 292 991 l 461 624 z "},"Z":{"ha":848,"x_min":41,"x_max":814,"o":"m 814 0 l 41 0 l 41 165 l 471 775 l 52 775 l 52 991 l 803 991 l 803 827 l 374 216 l 814 216 l 814 0 z "},"[":{"ha":450,"x_min":79,"x_max":418,"o":"m 418 -233 l 79 -233 l 79 1019 l 418 1019 l 418 847 l 294 847 l 294 -61 l 418 -61 l 418 -233 z "},"\\":{"ha":614,"x_min":4,"x_max":608,"o":"m 239 1006 l 608 -14 l 374 -14 l 4 1006 l 239 1006 z "},"]":{"ha":450,"x_min":32,"x_max":371,"o":"m 32 -61 l 155 -61 l 155 847 l 32 847 l 32 1019 l 371 1019 l 371 -233 l 32 -233 l 32 -61 z "},"^":{"ha":729,"x_min":-11,"x_max":747,"o":"m -11 340 l 288 996 l 403 996 l 747 340 l 547 340 l 351 732 l 183 340 l -11 340 z "},"_":{"ha":694,"x_min":-3,"x_max":697,"o":"m 697 -257 l -3 -257 l -3 -90 l 697 -90 l 697 -257 z "},"`":{"ha":581,"x_min":56,"x_max":525,"o":"m 347 1064 q 404 996 371 1033 q 470 923 437 958 q 525 861 503 887 l 525 842 l 349 842 q 281 886 320 859 q 199 944 241 913 q 118 1002 156 974 q 56 1050 81 1030 l 56 1064 l 347 1064 z "},"a":{"ha":865,"x_min":50,"x_max":777,"o":"m 467 782 q 694 710 612 782 q 777 504 777 637 l 777 0 l 593 0 l 542 102 l 536 102 q 470 36 504 61 q 391 -2 435 10 q 283 -14 347 -14 q 164 14 217 -14 q 81 96 111 41 q 50 235 50 151 q 136 418 50 358 q 383 485 221 477 l 511 489 l 511 500 q 486 573 511 551 q 418 595 460 595 q 316 579 372 595 q 204 538 260 563 l 127 713 q 278 764 194 747 q 467 782 362 782 m 513 343 l 452 340 q 349 315 378 338 q 319 250 319 292 q 340 192 319 211 q 396 174 361 174 q 478 204 444 174 q 513 283 513 235 l 513 343 z "},"b":{"ha":893,"x_min":92,"x_max":833,"o":"m 357 1055 l 357 817 q 354 739 357 776 q 347 669 351 702 l 357 669 q 435 749 387 716 q 561 782 483 782 q 757 680 681 782 q 833 386 833 578 q 798 166 833 255 q 700 32 763 77 q 553 -14 636 -14 q 429 15 471 -14 q 357 75 387 43 l 340 75 l 298 0 l 92 0 l 92 1055 l 357 1055 m 464 574 q 404 557 427 574 q 368 504 380 540 q 357 414 357 469 l 357 376 q 381 243 357 287 q 467 200 405 200 q 538 248 513 200 q 564 389 564 296 q 539 527 564 481 q 464 574 515 574 z "},"c":{"ha":749,"x_min":58,"x_max":714,"o":"m 441 -14 q 239 28 325 -14 q 105 157 153 70 q 58 380 58 244 q 111 609 58 520 q 255 740 163 698 q 463 782 347 782 q 596 766 533 782 q 714 724 660 751 l 636 528 q 548 561 589 549 q 463 574 507 574 q 392 553 422 574 q 345 489 361 532 q 328 382 328 447 q 345 275 328 315 q 393 216 362 234 q 464 197 424 197 q 579 215 522 197 q 688 265 636 233 l 688 54 q 581 5 640 23 q 441 -14 521 -14 z "},"d":{"ha":893,"x_min":58,"x_max":802,"o":"m 330 -14 q 135 87 212 -14 q 58 383 58 189 q 137 681 58 580 q 340 782 216 782 q 429 767 392 782 q 494 727 467 752 q 542 669 522 701 l 547 669 q 538 750 543 699 q 534 850 534 801 l 534 1055 l 802 1055 l 802 0 l 602 0 l 545 97 l 534 97 q 489 41 516 66 q 422 1 461 16 q 330 -14 383 -14 m 439 196 q 529 236 503 196 q 557 359 555 277 l 557 380 q 531 520 557 471 q 436 568 506 568 q 357 522 389 568 q 326 379 326 476 q 358 240 326 283 q 439 196 389 196 z "},"e":{"ha":859,"x_min":58,"x_max":800,"o":"m 437 782 q 631 743 549 782 q 756 626 712 704 q 800 431 800 548 l 800 313 l 326 313 q 371 214 330 252 q 494 175 413 175 q 626 189 566 175 q 750 233 686 203 l 750 43 q 629 0 694 14 q 463 -14 563 -14 q 255 28 347 -14 q 111 156 163 69 q 58 379 58 243 q 106 607 58 517 q 239 739 153 696 q 437 782 324 782 m 447 602 q 369 572 400 602 q 332 479 337 543 l 559 479 q 546 541 559 513 q 508 585 533 569 q 447 602 484 602 z "},"f":{"ha":574,"x_min":31,"x_max":608,"o":"m 561 570 l 397 570 l 397 0 l 132 0 l 132 570 l 31 570 l 31 700 l 138 765 l 138 778 q 164 940 138 878 q 248 1033 191 1003 q 399 1063 306 1063 q 507 1053 458 1063 q 608 1026 555 1044 l 551 854 q 508 864 532 860 q 456 868 484 868 q 411 849 425 868 q 397 789 397 831 l 397 768 l 561 768 l 561 570 z "},"g":{"ha":842,"x_min":14,"x_max":817,"o":"m 354 -334 q 102 -279 191 -334 q 14 -122 14 -224 q 56 -9 14 -54 q 184 56 99 36 q 123 104 149 71 q 97 170 97 137 q 117 233 97 205 q 199 298 136 260 q 105 381 139 325 q 71 518 71 437 q 109 661 71 602 q 221 751 147 720 q 400 782 294 782 q 444 780 414 782 q 503 774 473 777 q 549 768 532 771 l 817 768 l 817 640 l 711 602 q 728 559 722 582 q 733 510 733 536 q 646 317 733 386 q 386 249 559 249 q 318 254 343 249 q 311 237 313 245 q 309 221 309 229 q 327 196 309 205 q 373 184 346 187 q 424 180 399 180 l 551 180 q 745 126 681 180 q 810 -37 810 72 q 690 -256 810 -178 q 354 -334 570 -334 m 367 -168 q 464 -160 415 -168 q 546 -132 513 -151 q 579 -82 579 -113 q 559 -46 579 -58 q 509 -31 540 -35 q 443 -26 477 -26 l 340 -26 q 288 -36 311 -26 q 251 -60 264 -45 q 237 -96 237 -76 q 273 -148 237 -128 q 367 -168 308 -168 m 403 399 q 461 428 441 399 q 482 515 482 457 q 463 605 482 575 q 403 635 443 635 q 341 605 361 635 q 321 517 321 576 q 341 428 321 458 q 403 399 361 399 z "},"h":{"ha":930,"x_min":92,"x_max":842,"o":"m 357 1055 l 357 905 q 353 762 357 820 q 346 673 349 704 l 358 673 q 415 737 383 713 q 486 771 447 761 q 570 782 524 782 q 707 753 646 782 q 805 662 768 724 q 842 500 842 600 l 842 0 l 575 0 l 575 419 q 553 535 575 496 q 484 574 530 574 q 408 546 435 574 q 368 466 380 519 q 357 338 357 414 l 357 0 l 92 0 l 92 1055 l 357 1055 z "},"i":{"ha":452,"x_min":86,"x_max":368,"o":"m 358 768 l 358 0 l 93 0 l 93 768 l 358 768 m 227 1078 q 326 1054 283 1078 q 368 960 368 1030 q 326 867 368 891 q 227 843 283 843 q 127 867 168 843 q 86 960 86 891 q 127 1054 86 1030 q 227 1078 168 1078 z "},"j":{"ha":450,"x_min":-71,"x_max":367,"o":"m 72 -334 q -2 -329 40 -334 q -71 -317 -43 -323 l -71 -110 q -31 -119 -49 -116 q 11 -122 -12 -122 q 67 -99 43 -122 q 92 -7 92 -77 l 92 768 l 357 768 l 357 -62 q 330 -194 357 -132 q 240 -295 302 -256 q 72 -334 178 -334 m 85 960 q 126 1054 85 1030 q 225 1078 167 1078 q 325 1054 282 1078 q 367 960 367 1030 q 325 867 367 891 q 225 843 282 843 q 126 867 167 843 q 85 960 85 891 z "},"k":{"ha":916,"x_min":92,"x_max":916,"o":"m 358 1055 l 358 640 q 354 536 358 593 q 343 432 351 479 l 349 432 q 388 492 364 456 q 431 551 412 528 l 603 768 l 899 768 l 632 441 l 916 0 l 612 0 l 444 275 l 358 210 l 358 0 l 92 0 l 92 1055 l 358 1055 z "},"l":{"ha":449,"x_min":92,"x_max":357,"o":"m 357 0 l 92 0 l 92 1055 l 357 1055 l 357 0 z "},"m":{"ha":1389,"x_min":92,"x_max":1300,"o":"m 1029 782 q 1231 715 1161 782 q 1300 500 1300 648 l 1300 0 l 1035 0 l 1035 418 q 1011 539 1035 505 q 942 574 988 574 q 853 517 878 574 q 828 358 828 461 l 828 0 l 562 0 l 562 418 q 552 508 562 473 q 523 558 543 542 q 473 574 503 574 q 402 546 428 574 q 367 466 377 519 q 357 336 357 413 l 357 0 l 92 0 l 92 768 l 292 768 l 330 673 l 338 673 q 390 729 358 705 q 467 768 422 753 q 568 782 511 782 q 708 753 653 782 q 798 675 763 725 l 806 675 q 900 754 842 726 q 1029 782 958 782 z "},"n":{"ha":930,"x_min":92,"x_max":842,"o":"m 572 782 q 766 715 691 782 q 842 500 842 648 l 842 0 l 576 0 l 576 419 q 554 535 576 496 q 484 574 532 574 q 382 512 408 574 q 357 336 357 451 l 357 0 l 92 0 l 92 768 l 292 768 l 328 667 l 338 667 q 396 729 362 703 q 474 768 430 755 q 572 782 518 782 z "},"o":{"ha":885,"x_min":58,"x_max":825,"o":"m 825 386 q 799 215 825 290 q 722 90 772 140 q 601 13 672 39 q 440 -14 530 -14 q 287 13 357 -14 q 166 90 218 39 q 86 215 115 140 q 58 386 58 290 q 105 602 58 513 q 238 736 151 690 q 444 782 324 782 q 641 736 555 782 q 776 602 727 690 q 825 386 825 513 m 328 386 q 339 275 328 320 q 376 207 351 230 q 443 183 401 183 q 509 207 484 183 q 544 275 533 230 q 555 386 555 320 q 544 496 555 452 q 508 562 533 540 q 441 585 484 585 q 354 534 381 585 q 328 386 328 484 z "},"p":{"ha":893,"x_min":92,"x_max":833,"o":"m 561 782 q 761 680 688 782 q 833 386 833 578 q 797 166 833 255 q 697 32 760 77 q 553 -14 633 -14 q 461 0 498 -14 q 398 34 423 14 q 357 75 374 54 l 349 75 q 354 18 352 49 q 357 -53 357 -12 l 357 -334 l 92 -334 l 92 768 l 307 768 l 345 671 l 357 671 q 403 726 376 701 q 469 767 430 751 q 561 782 508 782 m 461 574 q 400 555 422 574 q 368 500 378 537 q 357 408 358 463 l 357 387 q 366 284 357 326 q 399 221 376 243 q 463 200 422 200 q 518 219 496 200 q 552 279 541 238 q 564 389 564 321 q 537 532 564 490 q 461 574 511 574 z "},"q":{"ha":893,"x_min":58,"x_max":802,"o":"m 536 -334 l 536 -16 q 538 41 536 13 q 545 97 541 69 l 536 97 q 461 19 509 52 q 334 -14 412 -14 q 135 87 211 -14 q 58 383 58 189 q 94 602 58 513 q 192 736 129 691 q 338 782 255 782 q 468 751 418 782 q 547 673 517 720 l 553 673 l 572 768 l 802 768 l 802 -334 l 536 -334 m 441 192 q 510 210 485 192 q 546 264 535 228 q 557 355 557 300 l 557 387 q 532 527 557 477 q 437 576 508 576 q 355 526 382 576 q 328 379 328 476 q 356 235 328 279 q 441 192 384 192 z "},"r":{"ha":652,"x_min":92,"x_max":636,"o":"m 555 782 q 601 779 577 782 q 636 774 625 776 l 612 524 q 579 529 600 527 q 522 532 559 532 q 469 527 497 532 q 415 507 440 522 q 373 461 389 492 q 357 378 357 430 l 357 0 l 92 0 l 92 768 l 289 768 l 330 646 l 343 646 q 397 714 364 684 q 471 764 430 745 q 555 782 512 782 z "},"s":{"ha":718,"x_min":58,"x_max":663,"o":"m 663 236 q 630 106 663 163 q 526 18 597 50 q 338 -14 454 -14 q 191 -5 256 -14 q 60 29 126 4 l 60 241 q 208 194 132 208 q 326 179 283 179 q 392 189 371 179 q 412 218 412 199 q 398 247 412 235 q 349 275 385 259 q 249 317 313 290 q 143 374 185 343 q 79 449 100 406 q 58 555 58 492 q 145 725 58 668 q 375 782 232 782 q 518 765 451 782 q 657 717 585 749 l 585 546 q 469 587 528 572 q 376 603 411 603 q 328 595 345 603 q 311 571 311 587 q 323 546 311 557 q 368 521 335 535 q 465 481 401 507 q 576 423 532 454 q 641 348 620 392 q 663 236 663 304 z "},"t":{"ha":639,"x_min":36,"x_max":596,"o":"m 468 196 q 534 203 504 196 q 596 222 564 211 l 596 29 q 504 -2 553 10 q 380 -14 456 -14 q 249 10 306 -14 q 160 91 192 33 q 129 253 129 149 l 129 570 l 36 570 l 36 677 l 154 761 l 222 922 l 396 922 l 396 768 l 585 768 l 585 570 l 396 570 l 396 271 q 415 215 396 233 q 468 196 434 196 z "},"u":{"ha":930,"x_min":90,"x_max":839,"o":"m 839 768 l 839 0 l 639 0 l 606 96 l 590 96 q 530 33 566 57 q 450 -2 494 9 q 358 -14 406 -14 q 222 16 283 -14 q 126 107 161 45 q 90 268 90 170 l 90 768 l 355 768 l 355 349 q 377 235 355 274 q 447 196 398 196 q 525 223 497 196 q 563 303 552 250 q 574 432 574 356 l 574 768 l 839 768 z "},"v":{"ha":848,"x_min":0,"x_max":848,"o":"m 293 0 l 0 768 l 277 768 l 407 314 q 414 283 409 308 q 419 236 419 258 l 424 236 q 429 280 424 259 q 436 313 433 301 l 572 768 l 848 768 l 555 0 l 293 0 z "},"w":{"ha":1264,"x_min":17,"x_max":1247,"o":"m 753 0 l 672 336 q 660 395 666 362 q 648 461 654 428 q 638 522 642 494 q 632 566 634 550 l 628 566 q 621 522 626 550 q 610 460 616 494 q 597 391 604 426 q 583 326 590 356 l 505 0 l 227 0 l 17 768 l 278 768 l 340 473 q 354 396 347 441 q 367 304 361 351 q 375 221 373 258 l 379 221 q 386 285 380 249 q 397 357 391 321 q 409 421 404 393 q 416 458 414 448 l 488 768 l 781 768 l 846 454 q 860 387 852 428 q 874 301 867 346 q 885 221 882 257 l 889 221 q 897 306 892 258 q 910 398 903 353 q 924 473 917 444 l 991 768 l 1247 768 l 1036 0 l 753 0 z "},"x":{"ha":875,"x_min":7,"x_max":868,"o":"m 254 392 l 20 768 l 321 768 l 437 553 l 557 768 l 859 768 l 618 392 l 868 0 l 567 0 l 437 233 l 309 0 l 7 0 l 254 392 z "},"y":{"ha":847,"x_min":-1,"x_max":847,"o":"m -1 768 l 278 768 l 408 328 q 414 304 411 318 q 418 275 416 290 q 421 244 420 259 l 427 244 q 434 293 430 272 q 443 326 439 313 l 576 768 l 847 768 l 543 -49 q 461 -206 508 -142 q 347 -301 415 -269 q 178 -334 279 -334 q 115 -330 141 -334 q 69 -322 89 -326 l 69 -114 q 106 -119 84 -117 q 151 -122 127 -122 q 223 -104 195 -122 q 268 -58 250 -87 q 298 4 286 -29 l 301 11 l -1 768 z "},"z":{"ha":704,"x_min":33,"x_max":669,"o":"m 669 0 l 33 0 l 33 151 l 351 566 l 52 566 l 52 768 l 654 768 l 654 604 l 350 203 l 669 203 l 669 0 z "},"{":{"ha":602,"x_min":41,"x_max":557,"o":"m 557 -233 q 339 -209 414 -233 q 236 -133 264 -184 q 208 0 208 -81 l 208 168 q 184 235 208 210 q 121 272 159 260 q 41 283 83 283 l 41 488 q 123 499 85 488 q 184 535 161 510 q 208 603 208 561 l 208 775 q 235 905 208 854 q 337 981 262 956 q 557 1006 412 1006 l 557 817 q 499 812 529 816 q 449 794 469 809 q 428 745 428 779 l 428 561 q 385 439 428 477 q 265 390 342 401 l 265 382 q 386 332 345 370 q 428 215 428 294 l 428 28 q 449 -21 428 -6 q 500 -40 470 -36 q 557 -45 530 -43 l 557 -233 z "},"|":{"ha":707,"x_min":262,"x_max":444,"o":"m 262 1055 l 444 1055 l 444 -302 l 262 -302 l 262 1055 z "},"}":{"ha":602,"x_min":45,"x_max":559,"o":"m 45 -233 l 45 -45 q 102 -40 72 -43 q 153 -21 132 -36 q 174 28 174 -6 l 174 215 q 215 332 174 294 q 336 382 257 370 l 336 390 q 216 439 259 401 q 174 561 174 477 l 174 745 q 153 794 174 779 q 102 812 132 809 q 45 817 73 816 l 45 1006 q 264 981 189 1006 q 367 905 340 956 q 393 775 393 854 l 393 603 q 417 535 393 561 q 479 499 441 510 q 559 488 517 488 l 559 283 q 480 272 518 283 q 417 235 441 260 q 393 168 393 210 l 393 0 q 366 -133 393 -81 q 262 -209 338 -184 q 45 -233 187 -233 z "},"~":{"ha":814,"x_min":62,"x_max":750,"o":"m 380 401 q 291 431 330 423 q 221 439 253 439 q 139 415 180 439 q 62 357 98 391 l 62 547 q 142 602 98 584 q 241 621 186 621 q 323 613 282 621 q 432 578 364 605 q 522 548 483 556 q 593 541 562 541 q 673 564 631 541 q 750 623 715 588 l 750 432 q 670 377 715 395 q 571 358 626 358 q 489 366 530 358 q 380 401 448 374 z "}," ":{"ha":361,"x_min":0,"x_max":0,"o":""},"¡":{"ha":403,"x_min":56,"x_max":349,"o":"m 90 415 l 314 415 l 349 -227 l 56 -227 l 90 415 m 346 653 q 303 552 346 581 q 203 522 261 522 q 104 552 145 522 q 62 653 62 581 q 104 752 62 722 q 203 782 145 782 q 303 752 261 782 q 346 653 346 722 z "},"¢":{"ha":814,"x_min":87,"x_max":743,"o":"m 524 1006 l 524 901 q 640 883 584 899 q 743 844 695 868 l 665 648 q 577 682 618 669 q 492 694 536 694 q 421 673 452 694 q 374 610 391 652 q 357 503 357 568 q 374 395 357 436 q 422 336 391 355 q 493 318 453 318 q 608 336 551 318 q 717 386 665 354 l 717 175 q 630 132 677 149 q 524 109 583 115 l 524 -14 l 383 -14 l 383 113 q 225 173 292 127 q 123 301 159 220 q 87 501 87 382 q 125 699 87 618 q 229 828 163 780 q 383 893 296 876 l 383 1006 l 524 1006 z "},"£":{"ha":814,"x_min":69,"x_max":790,"o":"m 490 1007 q 635 992 564 1007 q 765 951 706 977 l 690 755 q 594 784 638 775 q 519 793 551 793 q 465 774 487 793 q 443 700 443 755 l 443 628 l 676 628 l 676 440 l 443 440 l 443 375 q 426 301 443 331 q 384 252 409 271 q 335 221 359 233 l 790 221 l 790 0 l 71 0 l 71 212 q 132 253 108 234 q 169 300 157 273 q 182 374 182 328 l 182 440 l 69 440 l 69 628 l 182 628 l 182 708 q 221 879 182 813 q 329 976 260 945 q 490 1007 399 1007 z "},"¤":{"ha":786,"x_min":65,"x_max":714,"o":"m 122 490 q 130 553 122 522 q 150 610 138 584 l 65 690 l 187 814 l 271 730 q 329 751 297 743 q 387 758 360 758 q 449 751 420 758 q 507 728 478 743 l 589 814 l 714 696 l 628 611 q 649 554 642 586 q 656 490 656 522 q 649 428 656 457 q 628 371 642 399 l 710 290 l 589 170 l 507 250 q 450 231 481 239 q 387 224 420 224 q 326 230 355 224 q 268 249 296 235 l 187 171 l 66 292 l 150 372 q 129 429 136 400 q 122 490 122 458 m 296 490 q 308 444 296 465 q 342 411 321 423 q 387 399 363 399 q 436 411 414 399 q 471 444 458 423 q 484 490 484 465 q 471 538 484 517 q 436 571 458 559 q 387 583 414 583 q 342 571 363 583 q 308 538 321 559 q 296 490 296 517 z "},"¥":{"ha":814,"x_min":5,"x_max":808,"o":"m 407 650 l 538 991 l 808 991 l 562 509 l 694 509 l 694 366 l 530 366 l 530 286 l 694 286 l 694 144 l 530 144 l 530 0 l 283 0 l 283 144 l 117 144 l 117 286 l 283 286 l 283 366 l 117 366 l 117 509 l 245 509 l 5 991 l 277 991 l 407 650 z "},"¦":{"ha":707,"x_min":262,"x_max":444,"o":"m 262 1055 l 444 1055 l 444 486 l 262 486 l 262 1055 m 262 267 l 444 267 l 444 -302 l 262 -302 l 262 267 z "},"§":{"ha":694,"x_min":72,"x_max":629,"o":"m 72 545 q 107 637 72 597 q 183 703 142 677 q 112 777 136 736 q 87 869 87 818 q 159 1013 87 957 q 363 1069 230 1069 q 497 1053 433 1069 q 614 1011 562 1036 l 547 861 q 453 902 503 885 q 361 920 404 920 q 307 907 326 920 q 288 869 288 895 q 297 839 288 854 q 333 805 307 823 q 406 768 359 788 q 534 701 485 736 q 606 627 583 666 q 629 545 629 589 q 598 436 629 475 q 529 370 567 397 q 590 300 567 341 q 614 204 614 258 q 539 47 614 111 q 318 -17 465 -17 q 189 -2 248 -17 q 79 41 130 12 l 79 207 q 162 169 119 186 q 247 143 206 153 q 319 134 288 134 q 393 152 372 134 q 414 199 414 170 q 405 233 414 218 q 372 264 397 248 q 298 301 347 280 q 181 362 232 331 q 101 437 130 394 q 72 545 72 481 m 269 566 q 281 524 269 543 q 319 487 294 505 q 386 447 345 469 l 404 437 q 423 466 414 448 q 432 510 432 483 q 421 555 432 534 q 383 595 410 576 q 309 635 356 615 q 281 610 294 627 q 269 566 269 593 z "},"¨":{"ha":836,"x_min":151,"x_max":710,"o":"m 151 958 q 184 1040 151 1014 q 267 1065 218 1065 q 348 1040 313 1065 q 383 958 383 1014 q 348 879 383 905 q 267 852 313 852 q 184 879 218 852 q 151 958 151 905 m 476 958 q 510 1040 476 1014 q 593 1065 543 1065 q 675 1040 640 1065 q 710 958 710 1014 q 675 879 710 905 q 593 852 640 852 q 510 879 543 852 q 476 958 476 905 z "},"©":{"ha":1145,"x_min":62,"x_max":1082,"o":"m 572 -14 q 369 24 462 -14 q 207 130 275 62 q 100 292 138 199 q 62 496 62 385 q 100 700 62 607 q 207 862 138 793 q 369 968 275 930 q 572 1006 462 1006 q 777 968 684 1006 q 938 862 869 930 q 1044 700 1006 793 q 1082 496 1082 607 q 1044 292 1082 385 q 938 130 1006 199 q 777 24 869 62 q 572 -14 684 -14 m 574 178 q 348 266 424 178 q 272 498 272 353 q 305 664 272 593 q 404 773 338 734 q 567 812 469 812 q 682 799 629 812 q 785 760 735 785 l 722 621 q 653 649 687 640 q 579 659 619 659 q 494 617 526 659 q 463 496 463 575 q 492 371 463 410 q 583 332 522 332 q 672 343 627 332 q 758 378 717 354 l 758 221 q 672 189 715 199 q 574 178 628 178 m 572 97 q 728 126 657 97 q 849 209 798 155 q 929 335 901 262 q 957 496 957 408 q 929 657 957 584 q 849 783 901 730 q 728 865 798 836 q 572 895 657 895 q 415 865 486 895 q 292 783 344 836 q 213 657 241 730 q 184 496 184 584 q 213 335 184 408 q 292 209 241 262 q 415 126 344 155 q 572 97 486 97 z "},"ª":{"ha":551,"x_min":33,"x_max":497,"o":"m 296 1003 q 441 954 385 1003 q 497 807 497 905 l 497 503 l 387 503 l 357 589 q 290 518 327 542 q 192 494 253 494 q 112 512 148 494 q 54 565 75 530 q 33 656 33 601 q 60 748 33 715 q 140 797 87 782 q 267 815 192 812 l 326 818 l 326 822 q 309 862 326 850 q 257 873 291 873 q 189 865 220 873 q 114 836 158 856 l 62 949 q 164 988 114 974 q 296 1003 214 1003 m 326 725 l 269 721 q 216 701 228 718 q 204 664 204 684 q 216 630 204 642 q 252 618 229 618 q 308 646 289 618 q 326 710 326 675 l 326 725 z "},"«":{"ha":946,"x_min":50,"x_max":895,"o":"m 50 399 l 314 726 l 504 625 l 319 390 l 504 154 l 314 54 l 50 380 l 50 399 m 440 399 l 703 726 l 895 625 l 708 390 l 895 154 l 703 54 l 440 380 l 440 399 z "},"¬":{"ha":814,"x_min":62,"x_max":750,"o":"m 750 581 l 750 161 l 567 161 l 567 399 l 62 399 l 62 581 l 750 581 z "},"­":{"ha":441,"x_min":29,"x_max":412,"o":"m 29 267 l 29 478 l 412 478 l 412 267 l 29 267 z "},"®":{"ha":1145,"x_min":62,"x_max":1082,"o":"m 351 212 l 351 806 l 541 806 q 747 758 685 806 q 808 623 808 710 q 781 514 808 551 q 713 458 753 477 l 844 212 l 656 212 l 557 429 l 533 429 l 533 212 l 351 212 m 533 549 l 541 549 q 603 563 580 549 q 625 615 625 578 q 603 663 625 652 q 542 673 580 673 l 533 673 l 533 549 m 572 -14 q 369 24 462 -14 q 207 130 275 62 q 100 292 138 199 q 62 496 62 385 q 100 700 62 607 q 207 862 138 793 q 369 968 275 930 q 572 1006 462 1006 q 777 968 684 1006 q 938 862 869 930 q 1044 700 1006 793 q 1082 496 1082 607 q 1044 292 1082 385 q 938 130 1006 199 q 777 24 869 62 q 572 -14 684 -14 m 572 97 q 728 126 657 97 q 849 209 798 155 q 929 335 901 262 q 957 496 957 408 q 929 657 957 584 q 849 783 901 730 q 728 865 798 836 q 572 895 657 895 q 415 865 486 895 q 292 783 344 836 q 213 657 241 730 q 184 496 184 584 q 213 335 184 408 q 292 209 241 262 q 415 126 344 155 q 572 97 486 97 z "},"¯":{"ha":694,"x_min":-4,"x_max":699,"o":"m 699 1055 l -4 1055 l -4 1222 l 699 1222 l 699 1055 z "},"°":{"ha":586,"x_min":43,"x_max":543,"o":"m 293 509 q 164 540 220 509 q 75 627 107 571 q 43 755 43 682 q 75 884 43 828 q 164 973 107 941 q 293 1006 220 1006 q 422 973 366 1006 q 511 884 479 941 q 543 755 543 828 q 511 627 543 682 q 422 540 479 571 q 293 509 366 509 m 293 669 q 358 693 334 669 q 382 755 382 717 q 358 821 382 796 q 293 846 334 846 q 228 821 252 846 q 204 755 204 796 q 228 693 204 717 q 293 669 252 669 z "},"±":{"ha":814,"x_min":62,"x_max":750,"o":"m 62 0 l 62 182 l 750 182 l 750 0 l 62 0 m 497 640 l 750 640 l 750 458 l 497 458 l 497 214 l 315 214 l 315 458 l 62 458 l 62 640 l 315 640 l 315 889 l 497 889 l 497 640 z "},"²":{"ha":554,"x_min":41,"x_max":509,"o":"m 509 578 l 52 578 l 52 718 l 197 863 q 258 927 237 901 q 289 972 280 954 q 298 1004 298 990 q 287 1033 298 1023 q 254 1043 275 1043 q 204 1031 231 1043 q 138 983 176 1020 l 41 1096 q 145 1163 87 1138 q 293 1187 203 1187 q 444 1143 393 1187 q 494 1026 494 1099 q 469 928 494 972 q 404 846 444 884 q 318 768 364 807 l 273 730 l 509 730 l 509 578 z "},"³":{"ha":554,"x_min":43,"x_max":511,"o":"m 275 1185 q 435 1145 378 1185 q 492 1039 492 1105 q 467 950 492 987 q 382 890 441 912 l 382 885 q 479 833 448 868 q 511 739 511 798 q 444 611 511 656 q 257 567 376 567 q 143 578 197 567 q 47 614 90 590 l 47 772 q 143 729 92 742 q 249 717 195 717 q 306 727 284 717 q 328 762 328 737 q 313 796 328 781 q 236 811 298 811 l 165 811 l 165 943 l 220 943 q 295 959 277 943 q 314 996 314 974 q 300 1027 314 1013 q 252 1042 286 1042 q 188 1030 218 1042 q 122 991 158 1019 l 43 1107 q 143 1162 85 1139 q 275 1185 201 1185 z "},"´":{"ha":581,"x_min":56,"x_max":525,"o":"m 525 1064 l 525 1050 q 463 1002 500 1030 q 382 944 425 974 q 300 886 340 913 q 232 842 260 859 l 56 842 l 56 861 q 113 923 79 887 q 179 996 146 958 q 235 1064 212 1033 l 525 1064 z "},"µ":{"ha":933,"x_min":92,"x_max":842,"o":"m 842 768 l 842 0 l 643 0 l 607 103 l 596 103 q 558 38 581 64 q 509 -1 536 12 q 452 -14 481 -14 q 392 0 414 -14 q 351 43 370 14 l 349 43 q 353 -4 351 24 q 356 -61 355 -32 q 357 -117 357 -91 l 357 -334 l 92 -334 l 92 768 l 357 768 l 357 351 q 379 235 357 273 q 456 196 402 196 q 527 223 501 196 q 564 303 553 250 q 575 432 575 356 l 575 768 l 842 768 z "},"¶":{"ha":893,"x_min":69,"x_max":804,"o":"m 804 -176 l 675 -176 l 675 900 l 568 900 l 568 -176 l 439 -176 l 439 379 q 401 370 418 373 q 354 367 384 367 q 204 399 268 367 q 104 506 140 431 q 69 707 69 580 q 108 916 69 840 q 215 1023 146 991 q 375 1055 284 1055 l 804 1055 l 804 -176 z "},"·":{"ha":401,"x_min":58,"x_max":342,"o":"m 58 490 q 101 591 58 562 q 203 621 143 621 q 300 591 259 621 q 342 490 342 562 q 300 391 342 422 q 203 361 259 361 q 101 391 143 361 q 58 490 58 422 z "},"¸":{"ha":400,"x_min":31,"x_max":367,"o":"m 367 -171 q 316 -289 367 -245 q 180 -334 265 -334 q 94 -326 133 -334 q 31 -310 56 -319 l 31 -179 q 76 -191 54 -186 q 121 -195 98 -195 q 161 -184 146 -195 q 176 -155 176 -173 q 154 -118 176 -132 q 78 -94 131 -104 l 119 0 l 252 0 l 239 -41 q 296 -61 267 -47 q 347 -100 326 -75 q 367 -171 367 -126 z "},"¹":{"ha":554,"x_min":39,"x_max":418,"o":"m 418 1173 l 418 578 l 227 578 l 227 819 q 228 866 227 834 q 230 927 229 897 q 233 966 232 957 q 215 941 227 954 q 192 918 202 928 l 138 871 l 39 986 l 269 1173 l 418 1173 z "},"º":{"ha":545,"x_min":33,"x_max":513,"o":"m 513 749 q 447 561 513 628 q 271 494 381 494 q 100 562 167 494 q 33 749 33 630 q 98 937 33 870 q 273 1003 162 1003 q 395 972 341 1003 q 481 885 449 942 q 513 749 513 829 m 204 749 q 220 661 204 690 q 272 632 237 632 q 323 661 307 632 q 339 749 339 690 q 323 837 339 807 q 272 867 307 867 q 220 837 237 867 q 204 749 204 807 z "},"»":{"ha":946,"x_min":52,"x_max":896,"o":"m 896 380 l 633 54 l 440 154 l 627 390 l 440 625 l 633 726 l 896 399 l 896 380 m 505 380 l 243 54 l 52 154 l 236 390 l 52 625 l 243 726 l 505 399 l 505 380 z "},"¼":{"ha":1232,"x_min":-8,"x_max":1219,"o":"m 241 0 l 753 991 l 957 991 l 446 0 l 241 0 m 179 397 l 179 639 q 180 677 179 652 q 182 732 180 703 q 186 786 183 761 q 172 767 183 780 q 147 741 161 754 l 90 690 l -8 806 l 222 991 l 371 991 l 371 397 l 179 397 m 949 0 l 949 94 l 697 94 l 697 222 l 935 599 l 1135 599 l 1135 231 l 1219 231 l 1219 94 l 1135 94 l 1135 0 l 949 0 m 842 231 l 949 231 l 949 343 q 950 390 949 367 q 953 435 951 413 q 929 378 939 400 q 911 345 918 356 l 842 231 z "},"½":{"ha":1286,"x_min":-8,"x_max":1240,"o":"m 258 0 l 770 991 l 974 991 l 463 0 l 258 0 m 179 397 l 179 639 q 180 667 179 645 q 182 716 180 689 q 184 763 183 743 q 186 786 185 783 q 170 765 183 780 q 143 737 157 750 l 90 690 l -8 806 l 222 991 l 371 991 l 371 397 l 179 397 m 783 0 l 783 140 l 929 285 q 990 349 968 323 q 1021 393 1012 374 q 1031 427 1031 411 q 1019 456 1031 446 q 986 465 1008 465 q 930 450 959 465 q 869 406 901 435 l 774 518 q 887 589 828 568 q 1025 610 946 610 q 1174 567 1121 610 q 1226 449 1226 525 q 1214 380 1226 412 q 1182 321 1202 349 q 1139 271 1162 294 l 1006 153 l 1240 153 l 1240 0 l 783 0 z "},"¾":{"ha":1280,"x_min":57,"x_max":1268,"o":"m 315 0 l 827 991 l 1031 991 l 519 0 l 315 0 m 271 386 q 156 398 208 386 q 61 433 104 410 l 61 591 q 151 550 101 564 q 262 536 201 536 q 322 548 302 536 q 342 582 342 559 q 319 620 342 610 q 250 631 297 631 l 179 631 l 179 762 l 233 762 q 305 775 282 762 q 328 815 328 787 q 314 847 328 832 q 265 861 300 861 q 202 850 232 861 q 136 811 172 839 l 57 926 q 165 985 108 965 q 289 1004 223 1004 q 447 965 389 1004 q 505 859 505 926 q 480 768 505 805 q 396 710 455 732 l 396 704 q 493 652 462 688 q 525 558 525 616 q 458 431 525 476 q 271 386 392 386 m 997 0 l 997 94 l 746 94 l 746 222 l 983 599 l 1183 599 l 1183 231 l 1268 231 l 1268 94 l 1183 94 l 1183 0 l 997 0 m 890 231 l 997 231 l 997 343 q 998 390 997 367 q 1002 435 1000 413 q 978 378 988 400 q 960 345 967 356 l 890 231 z "},"¿":{"ha":701,"x_min":25,"x_max":701,"o":"m 501 415 l 501 357 q 491 281 501 315 q 453 216 480 247 q 378 155 427 186 q 310 105 332 126 q 281 66 288 83 q 275 29 275 48 q 300 -16 275 1 q 368 -33 326 -33 q 479 -14 419 -33 q 607 40 539 5 l 701 -144 q 538 -214 625 -188 q 349 -241 451 -241 q 110 -173 195 -241 q 25 7 25 -104 q 41 104 25 60 q 93 187 58 149 q 186 262 128 226 q 250 307 227 289 q 283 342 273 325 q 293 380 293 359 l 293 415 l 501 415 m 530 652 q 489 551 530 581 q 387 522 447 522 q 289 551 330 522 q 247 652 247 581 q 289 751 247 721 q 387 782 330 782 q 489 751 447 782 q 530 652 530 721 z "},"À":{"ha":1008,"x_min":0,"x_max":1008,"o":"m 715 0 l 667 186 l 345 186 l 294 0 l 0 0 l 323 996 l 681 996 l 1008 0 l 715 0 m 611 406 l 568 568 q 549 644 562 595 q 523 746 536 693 q 504 832 511 798 q 487 748 498 798 q 464 650 475 699 q 443 568 452 601 l 400 406 l 611 406 m 503 1288 q 559 1219 526 1257 q 625 1146 592 1182 q 680 1085 658 1111 l 680 1065 l 504 1065 q 436 1110 475 1083 q 354 1167 397 1137 q 274 1226 311 1198 q 211 1274 236 1254 l 211 1288 l 503 1288 z "},"Á":{"ha":1008,"x_min":0,"x_max":1008,"o":"m 715 0 l 667 186 l 345 186 l 294 0 l 0 0 l 323 996 l 681 996 l 1008 0 l 715 0 m 611 406 l 568 568 q 549 644 562 595 q 523 746 536 693 q 504 832 511 798 q 487 748 498 798 q 464 650 475 699 q 443 568 452 601 l 400 406 l 611 406 m 835 1288 l 835 1274 q 772 1226 810 1254 q 692 1167 734 1198 q 610 1110 650 1137 q 542 1065 570 1083 l 366 1065 l 366 1085 q 422 1146 389 1111 q 489 1219 456 1182 q 545 1288 522 1257 l 835 1288 z "},"Â":{"ha":1008,"x_min":0,"x_max":1008,"o":"m 715 0 l 667 186 l 345 186 l 294 0 l 0 0 l 323 996 l 681 996 l 1008 0 l 715 0 m 611 406 l 568 568 q 549 644 562 595 q 523 746 536 693 q 504 832 511 798 q 487 748 498 798 q 464 650 475 699 q 443 568 452 601 l 400 406 l 611 406 m 640 1288 q 694 1218 662 1256 q 758 1144 726 1179 q 814 1085 791 1109 l 814 1065 l 642 1065 q 574 1111 606 1086 q 506 1167 542 1136 q 440 1112 469 1136 q 374 1065 410 1088 l 199 1065 l 199 1085 q 258 1145 225 1110 q 322 1218 291 1181 q 374 1288 353 1256 l 640 1288 z "},"Ã":{"ha":1008,"x_min":0,"x_max":1008,"o":"m 715 0 l 667 186 l 345 186 l 294 0 l 0 0 l 323 996 l 681 996 l 1008 0 l 715 0 m 611 406 l 568 568 q 549 644 562 595 q 523 746 536 693 q 504 832 511 798 q 487 748 498 798 q 464 650 475 699 q 443 568 452 601 l 400 406 l 611 406 m 217 1063 q 234 1171 221 1126 q 269 1242 248 1215 q 320 1282 290 1270 q 388 1295 351 1295 q 443 1285 414 1295 q 502 1262 472 1275 q 561 1239 532 1249 q 616 1230 589 1230 q 643 1241 628 1230 q 664 1296 657 1253 l 788 1296 q 733 1118 779 1171 q 621 1064 688 1064 q 560 1074 591 1064 q 499 1097 529 1084 q 441 1119 469 1109 q 388 1129 414 1129 q 361 1118 375 1129 q 339 1063 348 1107 l 217 1063 z "},"Ä":{"ha":1008,"x_min":0,"x_max":1008,"o":"m 715 0 l 667 186 l 345 186 l 294 0 l 0 0 l 323 996 l 681 996 l 1008 0 l 715 0 m 611 406 l 568 568 q 549 644 562 595 q 523 746 536 693 q 504 832 511 798 q 487 748 498 798 q 464 650 475 699 q 443 568 452 601 l 400 406 l 611 406 m 225 1182 q 258 1263 225 1238 q 340 1289 292 1289 q 422 1263 387 1289 q 457 1182 457 1238 q 422 1102 457 1128 q 340 1076 387 1076 q 258 1102 292 1076 q 225 1182 225 1128 m 550 1182 q 584 1263 550 1238 q 667 1289 617 1289 q 749 1263 714 1289 q 784 1182 784 1238 q 749 1102 784 1128 q 667 1076 714 1076 q 584 1102 617 1076 q 550 1182 550 1128 z "},"Å":{"ha":1008,"x_min":0,"x_max":1008,"o":"m 715 0 l 667 186 l 345 186 l 294 0 l 0 0 l 323 996 l 681 996 l 1008 0 l 715 0 m 611 406 l 568 568 q 549 644 562 595 q 523 746 536 693 q 504 832 511 798 q 487 748 498 798 q 464 650 475 699 q 443 568 452 601 l 400 406 l 611 406 m 500 884 q 370 929 420 884 q 321 1055 321 975 q 370 1181 321 1135 q 500 1227 420 1227 q 630 1181 576 1227 q 684 1056 684 1135 q 631 930 684 976 q 500 884 577 884 m 500 998 q 540 1014 524 998 q 557 1055 557 1029 q 540 1096 557 1080 q 500 1112 524 1112 q 459 1096 476 1112 q 443 1055 443 1080 q 457 1014 443 1029 q 500 998 472 998 z "},"Æ":{"ha":1314,"x_min":-7,"x_max":1247,"o":"m 1247 0 l 657 0 l 657 186 l 361 186 l 293 0 l -7 0 l 419 991 l 1247 991 l 1247 777 l 926 777 l 926 621 l 1223 621 l 1223 406 l 926 406 l 926 218 l 1247 218 l 1247 0 m 443 408 l 657 408 l 657 765 l 582 765 l 443 408 z "},"Ç":{"ha":901,"x_min":71,"x_max":859,"o":"m 549 786 q 464 766 501 786 q 400 708 427 746 q 360 615 374 670 q 346 492 346 561 q 370 334 346 398 q 442 238 393 271 q 564 205 490 205 q 691 224 630 205 q 815 268 753 242 l 815 41 q 681 -1 749 12 q 534 -14 612 -14 q 270 51 373 -14 q 119 229 168 115 q 71 493 71 342 q 102 699 71 606 q 195 862 134 793 q 346 968 256 930 q 551 1006 435 1006 q 703 989 623 1006 q 859 936 783 972 l 777 725 q 667 768 722 751 q 549 786 611 786 m 686 -171 q 635 -289 686 -245 q 500 -334 585 -334 q 414 -326 452 -334 q 350 -310 375 -319 l 350 -179 q 395 -191 373 -186 q 440 -195 417 -195 q 481 -184 466 -195 q 496 -155 496 -173 q 473 -118 496 -132 q 397 -94 450 -104 l 439 0 l 571 0 l 558 -41 q 616 -61 586 -47 q 666 -100 646 -75 q 686 -171 686 -126 z "},"È":{"ha":762,"x_min":107,"x_max":696,"o":"m 696 0 l 107 0 l 107 991 l 696 991 l 696 777 l 375 777 l 375 621 l 672 621 l 672 406 l 375 406 l 375 218 l 696 218 l 696 0 m 400 1288 q 457 1219 424 1257 q 523 1146 490 1182 q 578 1085 555 1111 l 578 1065 l 401 1065 q 334 1110 373 1083 q 252 1167 294 1137 q 171 1226 209 1198 q 109 1274 134 1254 l 109 1288 l 400 1288 z "},"É":{"ha":762,"x_min":107,"x_max":732,"o":"m 696 0 l 107 0 l 107 991 l 696 991 l 696 777 l 375 777 l 375 621 l 672 621 l 672 406 l 375 406 l 375 218 l 696 218 l 696 0 m 732 1288 l 732 1274 q 669 1226 707 1254 q 589 1167 631 1198 q 507 1110 547 1137 q 439 1065 467 1083 l 262 1065 l 262 1085 q 319 1146 286 1111 q 386 1219 353 1182 q 441 1288 419 1257 l 732 1288 z "},"Ê":{"ha":762,"x_min":96,"x_max":711,"o":"m 696 0 l 107 0 l 107 991 l 696 991 l 696 777 l 375 777 l 375 621 l 672 621 l 672 406 l 375 406 l 375 218 l 696 218 l 696 0 m 537 1288 q 591 1218 559 1256 q 655 1144 623 1179 q 711 1085 688 1109 l 711 1065 l 538 1065 q 471 1111 503 1086 q 403 1167 439 1136 q 337 1112 366 1136 q 271 1065 307 1088 l 96 1065 l 96 1085 q 155 1145 122 1110 q 219 1218 188 1181 q 271 1288 250 1256 l 537 1288 z "},"Ë":{"ha":762,"x_min":107,"x_max":696,"o":"m 696 0 l 107 0 l 107 991 l 696 991 l 696 777 l 375 777 l 375 621 l 672 621 l 672 406 l 375 406 l 375 218 l 696 218 l 696 0 m 122 1182 q 155 1263 122 1238 q 237 1289 189 1289 q 319 1263 284 1289 q 354 1182 354 1238 q 319 1102 354 1128 q 237 1076 284 1076 q 155 1102 189 1076 q 122 1182 122 1128 m 447 1182 q 480 1263 447 1238 q 564 1289 514 1289 q 646 1263 611 1289 q 681 1182 681 1238 q 646 1102 681 1128 q 564 1076 611 1076 q 480 1102 514 1076 q 447 1182 447 1128 z "},"Ì":{"ha":484,"x_min":-77,"x_max":393,"o":"m 107 0 l 107 991 l 376 991 l 376 0 l 107 0 m 215 1288 q 272 1219 239 1257 q 337 1146 304 1182 q 393 1085 370 1111 l 393 1065 l 216 1065 q 149 1110 188 1083 q 66 1167 109 1137 q -14 1226 24 1198 q -77 1274 -52 1254 l -77 1288 l 215 1288 z "},"Í":{"ha":484,"x_min":104,"x_max":573,"o":"m 107 0 l 107 991 l 376 991 l 376 0 l 107 0 m 573 1288 l 573 1274 q 511 1226 549 1254 q 430 1167 473 1198 q 348 1110 388 1137 q 280 1065 309 1083 l 104 1065 l 104 1085 q 161 1146 127 1111 q 227 1219 194 1182 q 283 1288 260 1257 l 573 1288 z "},"Î":{"ha":484,"x_min":-65,"x_max":550,"o":"m 107 0 l 107 991 l 376 991 l 376 0 l 107 0 m 376 1288 q 430 1218 398 1256 q 494 1144 462 1179 q 550 1085 527 1109 l 550 1065 l 378 1065 q 310 1111 342 1086 q 242 1167 278 1136 q 176 1112 205 1136 q 110 1065 146 1088 l -65 1065 l -65 1085 q -6 1145 -39 1110 q 58 1218 27 1181 q 110 1288 90 1256 l 376 1288 z "},"Ï":{"ha":484,"x_min":-38,"x_max":521,"o":"m 107 0 l 107 991 l 376 991 l 376 0 l 107 0 m -38 1182 q -5 1263 -38 1238 q 77 1289 28 1289 q 159 1263 124 1289 q 194 1182 194 1238 q 159 1102 194 1128 q 77 1076 124 1076 q -5 1102 28 1076 q -38 1182 -38 1128 m 287 1182 q 320 1263 287 1238 q 404 1289 354 1289 q 486 1263 451 1289 q 521 1182 521 1238 q 486 1102 521 1128 q 404 1076 451 1076 q 320 1102 354 1076 q 287 1182 287 1128 z "},"Ð":{"ha":1019,"x_min":21,"x_max":949,"o":"m 450 991 q 722 937 610 991 q 891 776 833 882 q 949 517 949 670 q 884 229 949 344 q 703 57 820 115 q 428 0 586 0 l 107 0 l 107 382 l 21 382 l 21 599 l 107 599 l 107 991 l 450 991 m 453 775 l 375 775 l 375 599 l 518 599 l 518 382 l 375 382 l 375 220 l 435 220 q 614 291 557 220 q 671 507 671 361 q 647 657 671 597 q 574 746 623 716 q 453 775 526 775 z "},"Ñ":{"ha":1158,"x_min":107,"x_max":1051,"o":"m 1051 0 l 700 0 l 338 699 l 332 699 q 338 622 335 667 q 342 531 340 577 q 345 447 345 484 l 345 0 l 107 0 l 107 991 l 457 991 l 818 302 l 822 302 q 818 378 820 335 q 814 465 816 421 q 812 543 812 509 l 812 991 l 1051 991 l 1051 0 m 292 1063 q 309 1171 296 1126 q 343 1242 322 1215 q 395 1282 365 1270 q 463 1295 425 1295 q 517 1285 488 1295 q 576 1262 547 1275 q 635 1239 606 1249 q 690 1230 664 1230 q 717 1241 703 1230 q 739 1296 732 1253 l 863 1296 q 808 1118 854 1171 q 696 1064 762 1064 q 634 1074 665 1064 q 574 1097 604 1084 q 516 1119 544 1109 q 463 1129 488 1129 q 436 1118 450 1129 q 414 1063 422 1107 l 292 1063 z "},"Ò":{"ha":1107,"x_min":71,"x_max":1035,"o":"m 1035 497 q 1007 289 1035 382 q 922 127 980 195 q 772 23 863 59 q 553 -14 680 -14 q 337 23 428 -14 q 186 126 245 59 q 99 288 127 194 q 71 498 71 382 q 122 767 71 653 q 280 944 173 882 q 554 1007 387 1007 q 830 944 724 1007 q 985 766 936 881 q 1035 497 1035 652 m 353 497 q 373 343 353 408 q 437 244 393 279 q 553 210 481 210 q 670 244 627 210 q 733 343 714 279 q 753 497 753 408 q 708 709 753 631 q 554 787 663 787 q 437 752 481 787 q 373 652 393 717 q 353 497 353 587 m 553 1288 q 609 1219 576 1257 q 675 1146 642 1182 q 730 1085 708 1111 l 730 1065 l 554 1065 q 486 1110 526 1083 q 404 1167 447 1137 q 324 1226 361 1198 q 261 1274 286 1254 l 261 1288 l 553 1288 z "},"Ó":{"ha":1107,"x_min":71,"x_max":1035,"o":"m 1035 497 q 1007 289 1035 382 q 922 127 980 195 q 772 23 863 59 q 553 -14 680 -14 q 337 23 428 -14 q 186 126 245 59 q 99 288 127 194 q 71 498 71 382 q 122 767 71 653 q 280 944 173 882 q 554 1007 387 1007 q 830 944 724 1007 q 985 766 936 881 q 1035 497 1035 652 m 353 497 q 373 343 353 408 q 437 244 393 279 q 553 210 481 210 q 670 244 627 210 q 733 343 714 279 q 753 497 753 408 q 708 709 753 631 q 554 787 663 787 q 437 752 481 787 q 373 652 393 717 q 353 497 353 587 m 884 1288 l 884 1274 q 822 1226 860 1254 q 742 1167 784 1198 q 660 1110 699 1137 q 591 1065 620 1083 l 415 1065 l 415 1085 q 472 1146 439 1111 q 538 1219 505 1182 q 594 1288 572 1257 l 884 1288 z "},"Ô":{"ha":1107,"x_min":71,"x_max":1035,"o":"m 1035 497 q 1007 289 1035 382 q 922 127 980 195 q 772 23 863 59 q 553 -14 680 -14 q 337 23 428 -14 q 186 126 245 59 q 99 288 127 194 q 71 498 71 382 q 122 767 71 653 q 280 944 173 882 q 554 1007 387 1007 q 830 944 724 1007 q 985 766 936 881 q 1035 497 1035 652 m 353 497 q 373 343 353 408 q 437 244 393 279 q 553 210 481 210 q 670 244 627 210 q 733 343 714 279 q 753 497 753 408 q 708 709 753 631 q 554 787 663 787 q 437 752 481 787 q 373 652 393 717 q 353 497 353 587 m 690 1288 q 744 1218 712 1256 q 808 1144 776 1179 q 864 1085 841 1109 l 864 1065 l 692 1065 q 624 1111 656 1086 q 556 1167 592 1136 q 490 1112 519 1136 q 424 1065 460 1088 l 249 1065 l 249 1085 q 308 1145 275 1110 q 372 1218 341 1181 q 424 1288 404 1256 l 690 1288 z "},"Õ":{"ha":1107,"x_min":71,"x_max":1035,"o":"m 1035 497 q 1007 289 1035 382 q 922 127 980 195 q 772 23 863 59 q 553 -14 680 -14 q 337 23 428 -14 q 186 126 245 59 q 99 288 127 194 q 71 498 71 382 q 122 767 71 653 q 280 944 173 882 q 554 1007 387 1007 q 830 944 724 1007 q 985 766 936 881 q 1035 497 1035 652 m 353 497 q 373 343 353 408 q 437 244 393 279 q 553 210 481 210 q 670 244 627 210 q 733 343 714 279 q 753 497 753 408 q 708 709 753 631 q 554 787 663 787 q 437 752 481 787 q 373 652 393 717 q 353 497 353 587 m 267 1063 q 284 1171 271 1126 q 318 1242 297 1215 q 370 1282 340 1270 q 437 1295 400 1295 q 492 1285 463 1295 q 551 1262 522 1275 q 610 1239 581 1249 q 665 1230 639 1230 q 692 1241 677 1230 q 713 1296 707 1253 l 838 1296 q 783 1118 829 1171 q 671 1064 737 1064 q 609 1074 640 1064 q 549 1097 578 1084 q 491 1119 519 1109 q 437 1129 463 1129 q 411 1118 425 1129 q 389 1063 397 1107 l 267 1063 z "},"Ö":{"ha":1107,"x_min":71,"x_max":1035,"o":"m 1035 497 q 1007 289 1035 382 q 922 127 980 195 q 772 23 863 59 q 553 -14 680 -14 q 337 23 428 -14 q 186 126 245 59 q 99 288 127 194 q 71 498 71 382 q 122 767 71 653 q 280 944 173 882 q 554 1007 387 1007 q 830 944 724 1007 q 985 766 936 881 q 1035 497 1035 652 m 353 497 q 373 343 353 408 q 437 244 393 279 q 553 210 481 210 q 670 244 627 210 q 733 343 714 279 q 753 497 753 408 q 708 709 753 631 q 554 787 663 787 q 437 752 481 787 q 373 652 393 717 q 353 497 353 587 m 275 1182 q 308 1263 275 1238 q 390 1289 341 1289 q 472 1263 437 1289 q 507 1182 507 1238 q 472 1102 507 1128 q 390 1076 437 1076 q 308 1102 341 1076 q 275 1182 275 1128 m 600 1182 q 633 1263 600 1238 q 716 1289 667 1289 q 799 1263 764 1289 q 833 1182 833 1238 q 799 1102 833 1128 q 716 1076 764 1076 q 633 1102 667 1076 q 600 1182 600 1128 z "},"×":{"ha":814,"x_min":96,"x_max":717,"o":"m 589 800 l 717 676 l 530 490 l 714 306 l 589 180 l 403 364 l 220 182 l 97 309 l 277 490 l 96 672 l 220 800 l 403 619 l 589 800 z "},"Ø":{"ha":1107,"x_min":71,"x_max":1035,"o":"m 1035 497 q 1007 289 1035 382 q 922 127 980 195 q 772 23 863 59 q 553 -14 680 -14 q 441 -6 493 -14 q 345 16 389 1 l 288 -74 l 157 11 l 214 96 q 105 266 140 163 q 71 498 71 368 q 122 767 71 653 q 280 944 173 882 q 554 1007 387 1007 q 676 998 620 1007 q 778 970 732 988 l 829 1050 l 958 972 l 903 888 q 1003 721 971 821 q 1035 497 1035 621 m 753 497 q 750 575 753 539 q 741 640 747 611 l 473 220 q 511 212 490 215 q 553 210 531 210 q 670 244 627 210 q 733 343 714 279 q 753 497 753 408 m 353 497 q 357 409 353 450 q 372 335 361 368 l 646 768 q 603 782 626 777 q 554 787 579 787 q 437 752 481 787 q 373 652 393 717 q 353 497 353 587 z "},"Ù":{"ha":1051,"x_min":102,"x_max":950,"o":"m 950 991 l 950 395 q 903 178 950 270 q 760 36 855 86 q 522 -14 665 -14 q 210 92 317 -14 q 102 389 102 197 l 102 991 l 371 991 l 371 410 q 410 257 371 304 q 526 210 450 210 q 616 230 581 210 q 666 296 650 251 q 682 411 682 340 l 682 991 l 950 991 m 525 1288 q 582 1219 549 1257 q 647 1146 614 1182 q 703 1085 680 1111 l 703 1065 l 526 1065 q 458 1110 498 1083 q 376 1167 419 1137 q 296 1226 334 1198 q 233 1274 258 1254 l 233 1288 l 525 1288 z "},"Ú":{"ha":1051,"x_min":102,"x_max":950,"o":"m 950 991 l 950 395 q 903 178 950 270 q 760 36 855 86 q 522 -14 665 -14 q 210 92 317 -14 q 102 389 102 197 l 102 991 l 371 991 l 371 410 q 410 257 371 304 q 526 210 450 210 q 616 230 581 210 q 666 296 650 251 q 682 411 682 340 l 682 991 l 950 991 m 857 1288 l 857 1274 q 794 1226 832 1254 q 714 1167 756 1198 q 632 1110 671 1137 q 564 1065 592 1083 l 387 1065 l 387 1085 q 444 1146 411 1111 q 511 1219 477 1182 q 566 1288 544 1257 l 857 1288 z "},"Û":{"ha":1051,"x_min":102,"x_max":950,"o":"m 950 991 l 950 395 q 903 178 950 270 q 760 36 855 86 q 522 -14 665 -14 q 210 92 317 -14 q 102 389 102 197 l 102 991 l 371 991 l 371 410 q 410 257 371 304 q 526 210 450 210 q 616 230 581 210 q 666 296 650 251 q 682 411 682 340 l 682 991 l 950 991 m 663 1288 q 716 1218 684 1256 q 781 1144 748 1179 q 836 1085 813 1109 l 836 1065 l 664 1065 q 596 1111 628 1086 q 528 1167 564 1136 q 462 1112 492 1136 q 396 1065 433 1088 l 221 1065 l 221 1085 q 280 1145 248 1110 q 345 1218 313 1181 q 396 1288 376 1256 l 663 1288 z "},"Ü":{"ha":1051,"x_min":102,"x_max":950,"o":"m 950 991 l 950 395 q 903 178 950 270 q 760 36 855 86 q 522 -14 665 -14 q 210 92 317 -14 q 102 389 102 197 l 102 991 l 371 991 l 371 410 q 410 257 371 304 q 526 210 450 210 q 616 230 581 210 q 666 296 650 251 q 682 411 682 340 l 682 991 l 950 991 m 247 1182 q 280 1263 247 1238 q 362 1289 313 1289 q 444 1263 409 1289 q 479 1182 479 1238 q 444 1102 479 1128 q 362 1076 409 1076 q 280 1102 313 1076 q 247 1182 247 1128 m 572 1182 q 605 1263 572 1238 q 688 1289 639 1289 q 771 1263 736 1289 q 806 1182 806 1238 q 771 1102 806 1128 q 688 1076 736 1076 q 605 1102 639 1076 q 572 1182 572 1128 z "},"Ý":{"ha":922,"x_min":0,"x_max":922,"o":"m 461 624 l 632 991 l 922 991 l 596 387 l 596 0 l 326 0 l 326 379 l 0 991 l 292 991 l 461 624 m 791 1288 l 791 1274 q 729 1226 767 1254 q 649 1167 691 1198 q 567 1110 606 1137 q 498 1065 527 1083 l 322 1065 l 322 1085 q 379 1146 346 1111 q 446 1219 412 1182 q 501 1288 479 1257 l 791 1288 z "},"Þ":{"ha":871,"x_min":107,"x_max":827,"o":"m 827 532 q 807 401 827 464 q 744 290 788 339 q 628 213 701 241 q 450 184 556 184 l 375 184 l 375 0 l 107 0 l 107 991 l 375 991 l 375 847 l 450 847 q 733 765 639 847 q 827 532 827 683 m 375 403 l 424 403 q 489 416 458 403 q 537 457 519 429 q 555 530 555 486 q 529 604 555 577 q 444 631 503 631 l 375 631 l 375 403 z "},"ß":{"ha":1042,"x_min":92,"x_max":1002,"o":"m 908 807 q 890 724 908 760 q 844 661 871 688 q 790 612 817 633 q 745 577 763 592 q 726 550 726 562 q 742 520 726 533 q 790 490 758 507 q 867 444 821 473 q 943 386 913 415 q 987 318 972 356 q 1002 227 1002 280 q 966 95 1002 149 q 863 14 931 41 q 694 -14 795 -14 q 544 -5 601 -14 q 443 26 487 3 l 443 224 q 500 198 466 210 q 569 177 534 185 q 632 170 604 170 q 698 185 671 170 q 725 228 725 200 q 717 256 725 243 q 683 287 709 269 q 599 335 656 305 q 509 392 543 365 q 461 448 476 418 q 447 513 447 477 q 466 586 447 556 q 513 638 485 616 q 570 681 542 661 q 617 724 598 701 q 636 779 636 747 q 602 837 636 814 q 507 860 568 860 q 422 843 456 860 q 373 795 389 827 q 357 718 357 764 l 357 0 l 92 0 l 92 746 q 145 919 92 848 q 294 1026 199 989 q 507 1063 388 1063 q 714 1035 624 1063 q 857 949 805 1006 q 908 807 908 892 z "},"à":{"ha":865,"x_min":50,"x_max":777,"o":"m 467 782 q 694 710 612 782 q 777 504 777 637 l 777 0 l 593 0 l 542 102 l 536 102 q 470 36 504 61 q 391 -2 435 10 q 283 -14 347 -14 q 164 14 217 -14 q 81 96 111 41 q 50 235 50 151 q 136 418 50 358 q 383 485 221 477 l 511 489 l 511 500 q 486 573 511 551 q 418 595 460 595 q 316 579 372 595 q 204 538 260 563 l 127 713 q 278 764 194 747 q 467 782 362 782 m 513 343 l 452 340 q 349 315 378 338 q 319 250 319 292 q 340 192 319 211 q 396 174 361 174 q 478 204 444 174 q 513 283 513 235 l 513 343 m 432 1064 q 489 996 456 1033 q 554 923 522 958 q 610 861 587 887 l 610 842 l 433 842 q 366 886 405 859 q 283 944 326 913 q 203 1002 241 974 q 140 1050 165 1030 l 140 1064 l 432 1064 z "},"á":{"ha":865,"x_min":50,"x_max":777,"o":"m 467 782 q 694 710 612 782 q 777 504 777 637 l 777 0 l 593 0 l 542 102 l 536 102 q 470 36 504 61 q 391 -2 435 10 q 283 -14 347 -14 q 164 14 217 -14 q 81 96 111 41 q 50 235 50 151 q 136 418 50 358 q 383 485 221 477 l 511 489 l 511 500 q 486 573 511 551 q 418 595 460 595 q 316 579 372 595 q 204 538 260 563 l 127 713 q 278 764 194 747 q 467 782 362 782 m 513 343 l 452 340 q 349 315 378 338 q 319 250 319 292 q 340 192 319 211 q 396 174 361 174 q 478 204 444 174 q 513 283 513 235 l 513 343 m 764 1064 l 764 1050 q 701 1002 739 1030 q 621 944 663 974 q 539 886 578 913 q 471 842 499 859 l 294 842 l 294 861 q 351 923 318 887 q 418 996 385 958 q 473 1064 451 1033 l 764 1064 z "},"â":{"ha":865,"x_min":50,"x_max":777,"o":"m 467 782 q 694 710 612 782 q 777 504 777 637 l 777 0 l 593 0 l 542 102 l 536 102 q 470 36 504 61 q 391 -2 435 10 q 283 -14 347 -14 q 164 14 217 -14 q 81 96 111 41 q 50 235 50 151 q 136 418 50 358 q 383 485 221 477 l 511 489 l 511 500 q 486 573 511 551 q 418 595 460 595 q 316 579 372 595 q 204 538 260 563 l 127 713 q 278 764 194 747 q 467 782 362 782 m 513 343 l 452 340 q 349 315 378 338 q 319 250 319 292 q 340 192 319 211 q 396 174 361 174 q 478 204 444 174 q 513 283 513 235 l 513 343 m 569 1064 q 623 994 591 1032 q 687 920 654 956 q 743 861 720 885 l 743 842 l 570 842 q 503 887 534 863 q 435 943 471 912 q 369 888 398 912 q 302 842 339 865 l 127 842 l 127 861 q 187 922 154 886 q 251 995 220 957 q 302 1064 282 1032 l 569 1064 z "},"ã":{"ha":865,"x_min":50,"x_max":777,"o":"m 467 782 q 694 710 612 782 q 777 504 777 637 l 777 0 l 593 0 l 542 102 l 536 102 q 470 36 504 61 q 391 -2 435 10 q 283 -14 347 -14 q 164 14 217 -14 q 81 96 111 41 q 50 235 50 151 q 136 418 50 358 q 383 485 221 477 l 511 489 l 511 500 q 486 573 511 551 q 418 595 460 595 q 316 579 372 595 q 204 538 260 563 l 127 713 q 278 764 194 747 q 467 782 362 782 m 513 343 l 452 340 q 349 315 378 338 q 319 250 319 292 q 340 192 319 211 q 396 174 361 174 q 478 204 444 174 q 513 283 513 235 l 513 343 m 146 839 q 163 947 150 903 q 198 1018 176 991 q 249 1058 219 1046 q 317 1071 279 1071 q 372 1061 342 1071 q 431 1038 401 1051 q 489 1016 460 1025 q 545 1006 518 1006 q 571 1017 557 1006 q 593 1072 586 1029 l 717 1072 q 662 894 708 947 q 550 840 616 840 q 489 850 519 840 q 428 873 458 860 q 370 896 398 886 q 317 905 342 905 q 290 895 304 905 q 268 839 277 884 l 146 839 z "},"ä":{"ha":865,"x_min":50,"x_max":777,"o":"m 467 782 q 694 710 612 782 q 777 504 777 637 l 777 0 l 593 0 l 542 102 l 536 102 q 470 36 504 61 q 391 -2 435 10 q 283 -14 347 -14 q 164 14 217 -14 q 81 96 111 41 q 50 235 50 151 q 136 418 50 358 q 383 485 221 477 l 511 489 l 511 500 q 486 573 511 551 q 418 595 460 595 q 316 579 372 595 q 204 538 260 563 l 127 713 q 278 764 194 747 q 467 782 362 782 m 513 343 l 452 340 q 349 315 378 338 q 319 250 319 292 q 340 192 319 211 q 396 174 361 174 q 478 204 444 174 q 513 283 513 235 l 513 343 m 154 958 q 187 1040 154 1014 q 269 1065 220 1065 q 351 1040 316 1065 q 386 958 386 1014 q 351 879 386 905 q 269 852 316 852 q 187 879 220 852 q 154 958 154 905 m 479 958 q 512 1040 479 1014 q 595 1065 546 1065 q 678 1040 643 1065 q 713 958 713 1014 q 678 879 713 905 q 595 852 643 852 q 512 879 546 852 q 479 958 479 905 z "},"å":{"ha":865,"x_min":50,"x_max":777,"o":"m 467 782 q 694 710 612 782 q 777 504 777 637 l 777 0 l 593 0 l 542 102 l 536 102 q 470 36 504 61 q 391 -2 435 10 q 283 -14 347 -14 q 164 14 217 -14 q 81 96 111 41 q 50 235 50 151 q 136 418 50 358 q 383 485 221 477 l 511 489 l 511 500 q 486 573 511 551 q 418 595 460 595 q 316 579 372 595 q 204 538 260 563 l 127 713 q 278 764 194 747 q 467 782 362 782 m 513 343 l 452 340 q 349 315 378 338 q 319 250 319 292 q 340 192 319 211 q 396 174 361 174 q 478 204 444 174 q 513 283 513 235 l 513 343 m 433 839 q 304 885 353 839 q 254 1010 254 930 q 304 1136 254 1090 q 433 1182 353 1182 q 564 1136 510 1182 q 618 1011 618 1090 q 564 885 618 931 q 433 839 511 839 m 433 953 q 474 969 457 953 q 490 1010 490 985 q 474 1051 490 1036 q 433 1067 457 1067 q 393 1051 410 1067 q 376 1010 376 1036 q 391 969 376 985 q 433 953 406 953 z "},"æ":{"ha":1299,"x_min":50,"x_max":1240,"o":"m 907 782 q 1080 743 1004 782 q 1198 626 1155 704 q 1240 429 1240 547 l 1240 313 l 768 313 q 815 216 772 256 q 945 175 859 175 q 1062 188 998 175 q 1192 233 1126 200 l 1192 43 q 1072 0 1136 14 q 909 -14 1008 -14 q 798 0 851 -14 q 699 42 744 14 q 618 115 653 71 q 529 38 571 66 q 432 -2 486 10 q 294 -14 378 -14 q 175 14 231 -14 q 85 97 119 41 q 50 239 50 153 q 92 377 50 324 q 210 456 134 430 q 387 485 286 481 l 511 489 l 511 501 q 484 576 511 557 q 419 595 456 595 q 317 580 374 595 q 207 541 261 566 l 132 714 q 277 765 198 748 q 440 782 356 782 q 564 766 506 782 q 668 718 621 750 q 772 767 716 751 q 907 782 828 782 m 513 343 l 456 340 q 349 312 378 338 q 321 241 321 286 q 342 189 321 204 q 397 174 363 174 q 455 188 429 174 q 497 226 481 201 q 513 283 513 251 l 513 343 m 892 602 q 810 574 843 602 q 772 479 778 547 l 1003 479 q 989 541 1002 513 q 952 585 977 568 q 892 602 927 602 z "},"ç":{"ha":749,"x_min":58,"x_max":714,"o":"m 441 -14 q 239 28 325 -14 q 105 157 153 70 q 58 380 58 244 q 111 609 58 520 q 255 740 163 698 q 463 782 347 782 q 596 766 533 782 q 714 724 660 751 l 636 528 q 548 561 589 549 q 463 574 507 574 q 392 553 422 574 q 345 489 361 532 q 328 382 328 447 q 345 275 328 315 q 393 216 362 234 q 464 197 424 197 q 579 215 522 197 q 688 265 636 233 l 688 54 q 581 5 640 23 q 441 -14 521 -14 m 597 -171 q 547 -289 597 -245 q 411 -334 496 -334 q 325 -326 363 -334 q 261 -310 286 -319 l 261 -179 q 306 -191 284 -186 q 351 -195 328 -195 q 392 -184 377 -195 q 407 -155 407 -173 q 384 -118 407 -132 q 309 -94 361 -104 l 350 0 l 482 0 l 469 -41 q 527 -61 497 -47 q 577 -100 557 -75 q 597 -171 597 -126 z "},"è":{"ha":859,"x_min":58,"x_max":800,"o":"m 437 782 q 631 743 549 782 q 756 626 712 704 q 800 431 800 548 l 800 313 l 326 313 q 371 214 330 252 q 494 175 413 175 q 626 189 566 175 q 750 233 686 203 l 750 43 q 629 0 694 14 q 463 -14 563 -14 q 255 28 347 -14 q 111 156 163 69 q 58 379 58 243 q 106 607 58 517 q 239 739 153 696 q 437 782 324 782 m 447 602 q 369 572 400 602 q 332 479 337 543 l 559 479 q 546 541 559 513 q 508 585 533 569 q 447 602 484 602 m 428 1064 q 485 996 452 1033 q 550 923 517 958 q 606 861 583 887 l 606 842 l 429 842 q 361 886 401 859 q 279 944 322 913 q 199 1002 237 974 q 136 1050 161 1030 l 136 1064 l 428 1064 z "},"é":{"ha":859,"x_min":58,"x_max":800,"o":"m 437 782 q 631 743 549 782 q 756 626 712 704 q 800 431 800 548 l 800 313 l 326 313 q 371 214 330 252 q 494 175 413 175 q 626 189 566 175 q 750 233 686 203 l 750 43 q 629 0 694 14 q 463 -14 563 -14 q 255 28 347 -14 q 111 156 163 69 q 58 379 58 243 q 106 607 58 517 q 239 739 153 696 q 437 782 324 782 m 447 602 q 369 572 400 602 q 332 479 337 543 l 559 479 q 546 541 559 513 q 508 585 533 569 q 447 602 484 602 m 760 1064 l 760 1050 q 697 1002 735 1030 q 617 944 659 974 q 535 886 574 913 q 467 842 495 859 l 290 842 l 290 861 q 347 923 314 887 q 414 996 380 958 q 469 1064 447 1033 l 760 1064 z "},"ê":{"ha":859,"x_min":58,"x_max":800,"o":"m 437 782 q 631 743 549 782 q 756 626 712 704 q 800 431 800 548 l 800 313 l 326 313 q 371 214 330 252 q 494 175 413 175 q 626 189 566 175 q 750 233 686 203 l 750 43 q 629 0 694 14 q 463 -14 563 -14 q 255 28 347 -14 q 111 156 163 69 q 58 379 58 243 q 106 607 58 517 q 239 739 153 696 q 437 782 324 782 m 447 602 q 369 572 400 602 q 332 479 337 543 l 559 479 q 546 541 559 513 q 508 585 533 569 q 447 602 484 602 m 565 1064 q 618 994 587 1032 q 683 920 650 956 q 739 861 715 885 l 739 842 l 566 842 q 498 887 530 863 q 431 943 467 912 q 365 888 394 912 q 298 842 335 865 l 123 842 l 123 861 q 183 922 150 886 q 247 995 216 957 q 298 1064 278 1032 l 565 1064 z "},"ë":{"ha":859,"x_min":58,"x_max":800,"o":"m 437 782 q 631 743 549 782 q 756 626 712 704 q 800 431 800 548 l 800 313 l 326 313 q 371 214 330 252 q 494 175 413 175 q 626 189 566 175 q 750 233 686 203 l 750 43 q 629 0 694 14 q 463 -14 563 -14 q 255 28 347 -14 q 111 156 163 69 q 58 379 58 243 q 106 607 58 517 q 239 739 153 696 q 437 782 324 782 m 447 602 q 369 572 400 602 q 332 479 337 543 l 559 479 q 546 541 559 513 q 508 585 533 569 q 447 602 484 602 m 150 958 q 183 1040 150 1014 q 265 1065 216 1065 q 347 1040 312 1065 q 382 958 382 1014 q 347 879 382 905 q 265 852 312 852 q 183 879 216 852 q 150 958 150 905 m 475 958 q 508 1040 475 1014 q 591 1065 542 1065 q 674 1040 639 1065 q 709 958 709 1014 q 674 879 709 905 q 591 852 639 852 q 508 879 542 852 q 475 958 475 905 z "},"ì":{"ha":452,"x_min":-66,"x_max":403,"o":"m 358 0 l 93 0 l 93 768 l 358 768 l 358 0 m 225 1064 q 282 996 249 1033 q 348 923 315 958 q 403 861 380 887 l 403 842 l 227 842 q 159 886 198 859 q 77 944 119 913 q -4 1002 34 974 q -66 1050 -41 1030 l -66 1064 l 225 1064 z "},"í":{"ha":452,"x_min":87,"x_max":557,"o":"m 358 0 l 93 0 l 93 768 l 358 768 l 358 0 m 557 1064 l 557 1050 q 494 1002 532 1030 q 414 944 456 974 q 332 886 372 913 q 264 842 292 859 l 87 842 l 87 861 q 144 923 111 887 q 211 996 178 958 q 267 1064 244 1033 l 557 1064 z "},"î":{"ha":452,"x_min":-79,"x_max":536,"o":"m 358 0 l 93 0 l 93 768 l 358 768 l 358 0 m 362 1064 q 416 994 384 1032 q 480 920 448 956 q 536 861 513 885 l 536 842 l 363 842 q 296 887 328 863 q 228 943 264 912 q 162 888 191 912 q 96 842 132 865 l -79 842 l -79 861 q -20 922 -53 886 q 44 995 13 957 q 96 1064 75 1032 l 362 1064 z "},"ï":{"ha":452,"x_min":-53,"x_max":506,"o":"m 358 0 l 93 0 l 93 768 l 358 768 l 358 0 m -53 958 q -20 1040 -53 1014 q 62 1065 14 1065 q 144 1040 109 1065 q 179 958 179 1014 q 144 879 179 905 q 62 852 109 852 q -20 879 14 852 q -53 958 -53 905 m 272 958 q 306 1040 272 1014 q 389 1065 339 1065 q 471 1040 436 1065 q 506 958 506 1014 q 471 879 506 905 q 389 852 436 852 q 306 879 339 852 q 272 958 272 905 z "},"ð":{"ha":890,"x_min":60,"x_max":825,"o":"m 325 1067 q 424 1022 379 1044 q 505 975 468 1000 l 647 1068 l 725 945 l 627 879 q 736 744 692 815 q 803 588 781 673 q 825 393 825 502 q 778 176 825 268 q 644 36 730 85 q 440 -14 557 -14 q 244 26 330 -14 q 109 145 158 66 q 60 338 60 223 q 102 530 60 452 q 219 648 145 608 q 385 688 292 688 q 463 681 430 688 q 517 662 495 675 q 550 631 538 650 l 555 633 q 514 706 536 671 q 458 774 492 741 l 335 693 l 256 818 l 353 880 q 304 911 332 894 q 252 943 277 928 l 325 1067 m 443 497 q 377 480 401 497 q 342 429 353 464 q 332 339 332 394 q 342 253 332 290 q 378 195 353 216 q 443 175 402 175 q 529 223 505 175 q 554 370 554 271 q 547 416 554 393 q 527 457 541 439 q 492 486 513 475 q 443 497 471 497 z "},"ñ":{"ha":930,"x_min":92,"x_max":842,"o":"m 572 782 q 766 715 691 782 q 842 500 842 648 l 842 0 l 576 0 l 576 419 q 554 535 576 496 q 484 574 532 574 q 382 512 408 574 q 357 336 357 451 l 357 0 l 92 0 l 92 768 l 292 768 l 328 667 l 338 667 q 396 729 362 703 q 474 768 430 755 q 572 782 518 782 m 178 839 q 195 947 182 903 q 230 1018 208 991 q 281 1058 251 1046 q 349 1071 311 1071 q 404 1061 374 1071 q 463 1038 433 1051 q 521 1016 492 1025 q 576 1006 550 1006 q 603 1017 589 1006 q 625 1072 618 1029 l 749 1072 q 694 894 740 947 q 582 840 648 840 q 520 850 551 840 q 460 873 490 860 q 402 896 430 886 q 349 905 374 905 q 322 895 336 905 q 300 839 309 884 l 178 839 z "},"ò":{"ha":885,"x_min":58,"x_max":825,"o":"m 825 386 q 799 215 825 290 q 722 90 772 140 q 601 13 672 39 q 440 -14 530 -14 q 287 13 357 -14 q 166 90 218 39 q 86 215 115 140 q 58 386 58 290 q 105 602 58 513 q 238 736 151 690 q 444 782 324 782 q 641 736 555 782 q 776 602 727 690 q 825 386 825 513 m 328 386 q 339 275 328 320 q 376 207 351 230 q 443 183 401 183 q 509 207 484 183 q 544 275 533 230 q 555 386 555 320 q 544 496 555 452 q 508 562 533 540 q 441 585 484 585 q 354 534 381 585 q 328 386 328 484 m 441 1064 q 498 996 465 1033 q 564 923 531 958 q 619 861 597 887 l 619 842 l 443 842 q 375 886 414 859 q 293 944 336 913 q 213 1002 250 974 q 150 1050 175 1030 l 150 1064 l 441 1064 z "},"ó":{"ha":885,"x_min":58,"x_max":825,"o":"m 825 386 q 799 215 825 290 q 722 90 772 140 q 601 13 672 39 q 440 -14 530 -14 q 287 13 357 -14 q 166 90 218 39 q 86 215 115 140 q 58 386 58 290 q 105 602 58 513 q 238 736 151 690 q 444 782 324 782 q 641 736 555 782 q 776 602 727 690 q 825 386 825 513 m 328 386 q 339 275 328 320 q 376 207 351 230 q 443 183 401 183 q 509 207 484 183 q 544 275 533 230 q 555 386 555 320 q 544 496 555 452 q 508 562 533 540 q 441 585 484 585 q 354 534 381 585 q 328 386 328 484 m 774 1064 l 774 1050 q 711 1002 749 1030 q 631 944 673 974 q 549 886 589 913 q 481 842 509 859 l 304 842 l 304 861 q 361 923 328 887 q 428 996 395 958 q 484 1064 461 1033 l 774 1064 z "},"ô":{"ha":885,"x_min":58,"x_max":825,"o":"m 825 386 q 799 215 825 290 q 722 90 772 140 q 601 13 672 39 q 440 -14 530 -14 q 287 13 357 -14 q 166 90 218 39 q 86 215 115 140 q 58 386 58 290 q 105 602 58 513 q 238 736 151 690 q 444 782 324 782 q 641 736 555 782 q 776 602 727 690 q 825 386 825 513 m 328 386 q 339 275 328 320 q 376 207 351 230 q 443 183 401 183 q 509 207 484 183 q 544 275 533 230 q 555 386 555 320 q 544 496 555 452 q 508 562 533 540 q 441 585 484 585 q 354 534 381 585 q 328 386 328 484 m 579 1064 q 633 994 601 1032 q 697 920 665 956 q 753 861 730 885 l 753 842 l 581 842 q 513 887 545 863 q 445 943 481 912 q 379 888 408 912 q 313 842 349 865 l 138 842 l 138 861 q 197 922 164 886 q 261 995 230 957 q 313 1064 292 1032 l 579 1064 z "},"õ":{"ha":885,"x_min":58,"x_max":825,"o":"m 825 386 q 799 215 825 290 q 722 90 772 140 q 601 13 672 39 q 440 -14 530 -14 q 287 13 357 -14 q 166 90 218 39 q 86 215 115 140 q 58 386 58 290 q 105 602 58 513 q 238 736 151 690 q 444 782 324 782 q 641 736 555 782 q 776 602 727 690 q 825 386 825 513 m 328 386 q 339 275 328 320 q 376 207 351 230 q 443 183 401 183 q 509 207 484 183 q 544 275 533 230 q 555 386 555 320 q 544 496 555 452 q 508 562 533 540 q 441 585 484 585 q 354 534 381 585 q 328 386 328 484 m 155 839 q 173 947 159 903 q 207 1018 186 991 q 259 1058 229 1046 q 326 1071 289 1071 q 381 1061 352 1071 q 440 1038 410 1051 q 499 1016 470 1025 q 554 1006 528 1006 q 581 1017 566 1006 q 602 1072 595 1029 l 726 1072 q 672 894 718 947 q 559 840 626 840 q 498 850 529 840 q 437 873 467 860 q 380 896 408 886 q 326 905 352 905 q 300 895 313 905 q 277 839 286 884 l 155 839 z "},"ö":{"ha":885,"x_min":58,"x_max":825,"o":"m 825 386 q 799 215 825 290 q 722 90 772 140 q 601 13 672 39 q 440 -14 530 -14 q 287 13 357 -14 q 166 90 218 39 q 86 215 115 140 q 58 386 58 290 q 105 602 58 513 q 238 736 151 690 q 444 782 324 782 q 641 736 555 782 q 776 602 727 690 q 825 386 825 513 m 328 386 q 339 275 328 320 q 376 207 351 230 q 443 183 401 183 q 509 207 484 183 q 544 275 533 230 q 555 386 555 320 q 544 496 555 452 q 508 562 533 540 q 441 585 484 585 q 354 534 381 585 q 328 386 328 484 m 163 958 q 197 1040 163 1014 q 279 1065 230 1065 q 360 1040 326 1065 q 395 958 395 1014 q 360 879 395 905 q 279 852 326 852 q 197 879 230 852 q 163 958 163 905 m 488 958 q 522 1040 488 1014 q 605 1065 555 1065 q 687 1040 652 1065 q 722 958 722 1014 q 687 879 722 905 q 605 852 652 852 q 522 879 555 852 q 488 958 488 905 z "},"÷":{"ha":814,"x_min":62,"x_max":750,"o":"m 62 399 l 62 581 l 750 581 l 750 399 l 62 399 m 406 110 q 331 137 363 110 q 300 225 300 165 q 331 315 300 290 q 406 340 363 340 q 480 315 448 340 q 513 225 513 290 q 480 137 513 165 q 406 110 448 110 m 406 639 q 331 666 363 639 q 300 754 300 694 q 331 844 300 819 q 406 869 363 869 q 480 844 448 869 q 513 754 513 819 q 480 666 513 694 q 406 639 448 639 z "},"ø":{"ha":924,"x_min":58,"x_max":864,"o":"m 864 386 q 815 169 864 258 q 676 33 767 79 q 460 -14 586 -14 q 379 -7 418 -14 q 304 9 340 -1 l 248 -79 l 132 -7 l 186 77 q 92 205 126 127 q 58 386 58 283 q 166 679 58 576 q 464 782 274 782 q 547 775 507 782 q 623 755 587 768 l 671 831 l 785 760 l 739 689 q 831 563 798 640 q 864 386 864 486 m 313 386 q 314 332 313 357 q 321 286 316 308 l 517 590 q 490 597 504 595 q 461 599 477 599 q 346 545 379 599 q 313 386 313 491 m 610 386 q 608 434 610 411 q 603 475 607 456 l 411 175 q 435 171 422 172 q 463 170 448 170 q 551 194 519 170 q 596 267 583 218 q 610 386 610 315 z "},"ù":{"ha":930,"x_min":90,"x_max":839,"o":"m 839 768 l 839 0 l 639 0 l 606 96 l 590 96 q 530 33 566 57 q 450 -2 494 9 q 358 -14 406 -14 q 222 16 283 -14 q 126 107 161 45 q 90 268 90 170 l 90 768 l 355 768 l 355 349 q 377 235 355 274 q 447 196 398 196 q 525 223 497 196 q 563 303 552 250 q 574 432 574 356 l 574 768 l 839 768 m 464 1064 q 520 996 488 1033 q 586 923 553 958 q 642 861 619 887 l 642 842 l 465 842 q 397 886 437 859 q 315 944 358 913 q 235 1002 273 974 q 172 1050 197 1030 l 172 1064 l 464 1064 z "},"ú":{"ha":930,"x_min":90,"x_max":839,"o":"m 839 768 l 839 0 l 639 0 l 606 96 l 590 96 q 530 33 566 57 q 450 -2 494 9 q 358 -14 406 -14 q 222 16 283 -14 q 126 107 161 45 q 90 268 90 170 l 90 768 l 355 768 l 355 349 q 377 235 355 274 q 447 196 398 196 q 525 223 497 196 q 563 303 552 250 q 574 432 574 356 l 574 768 l 839 768 m 795 1064 l 795 1050 q 733 1002 771 1030 q 653 944 695 974 q 571 886 610 913 q 503 842 531 859 l 326 842 l 326 861 q 383 923 350 887 q 450 996 416 958 q 505 1064 483 1033 l 795 1064 z "},"û":{"ha":930,"x_min":90,"x_max":839,"o":"m 839 768 l 839 0 l 639 0 l 606 96 l 590 96 q 530 33 566 57 q 450 -2 494 9 q 358 -14 406 -14 q 222 16 283 -14 q 126 107 161 45 q 90 268 90 170 l 90 768 l 355 768 l 355 349 q 377 235 355 274 q 447 196 398 196 q 525 223 497 196 q 563 303 552 250 q 574 432 574 356 l 574 768 l 839 768 m 602 1064 q 655 994 623 1032 q 720 920 687 956 q 775 861 752 885 l 775 842 l 603 842 q 535 887 567 863 q 467 943 503 912 q 401 888 431 912 q 335 842 372 865 l 160 842 l 160 861 q 219 922 186 886 q 283 995 252 957 q 335 1064 315 1032 l 602 1064 z "},"ü":{"ha":930,"x_min":90,"x_max":839,"o":"m 839 768 l 839 0 l 639 0 l 606 96 l 590 96 q 530 33 566 57 q 450 -2 494 9 q 358 -14 406 -14 q 222 16 283 -14 q 126 107 161 45 q 90 268 90 170 l 90 768 l 355 768 l 355 349 q 377 235 355 274 q 447 196 398 196 q 525 223 497 196 q 563 303 552 250 q 574 432 574 356 l 574 768 l 839 768 m 186 958 q 219 1040 186 1014 q 301 1065 252 1065 q 383 1040 348 1065 q 418 958 418 1014 q 383 879 418 905 q 301 852 348 852 q 219 879 252 852 q 186 958 186 905 m 511 958 q 544 1040 511 1014 q 627 1065 578 1065 q 710 1040 675 1065 q 745 958 745 1014 q 710 879 745 905 q 627 852 675 852 q 544 879 578 852 q 511 958 511 905 z "},"ý":{"ha":847,"x_min":-1,"x_max":847,"o":"m -1 768 l 278 768 l 408 328 q 414 304 411 318 q 418 275 416 290 q 421 244 420 259 l 427 244 q 434 293 430 272 q 443 326 439 313 l 576 768 l 847 768 l 543 -49 q 461 -206 508 -142 q 347 -301 415 -269 q 178 -334 279 -334 q 115 -330 141 -334 q 69 -322 89 -326 l 69 -114 q 106 -119 84 -117 q 151 -122 127 -122 q 223 -104 195 -122 q 268 -58 250 -87 q 298 4 286 -29 l 301 11 l -1 768 m 754 1064 l 754 1050 q 692 1002 730 1030 q 611 944 654 974 q 529 886 569 913 q 461 842 490 859 l 285 842 l 285 861 q 342 923 309 887 q 408 996 375 958 q 464 1064 441 1033 l 754 1064 z "},"þ":{"ha":893,"x_min":92,"x_max":833,"o":"m 833 386 q 797 166 833 255 q 696 32 760 77 q 551 -14 633 -14 q 467 -1 504 -14 q 404 32 431 12 q 357 74 376 52 l 347 74 q 352 42 350 60 q 355 4 354 23 q 357 -29 357 -14 l 357 -334 l 92 -334 l 92 1055 l 357 1055 l 357 822 q 353 728 357 766 q 345 669 349 690 l 357 669 q 403 726 374 701 q 471 767 431 751 q 561 782 511 782 q 757 681 681 782 q 833 386 833 581 m 564 389 q 541 527 564 479 q 463 574 519 574 q 382 532 405 574 q 357 407 359 490 l 357 387 q 381 248 357 296 q 467 200 405 200 q 524 221 503 200 q 554 285 545 243 q 564 389 564 327 z "},"ÿ":{"ha":847,"x_min":-1,"x_max":847,"o":"m -1 768 l 278 768 l 408 328 q 414 304 411 318 q 418 275 416 290 q 421 244 420 259 l 427 244 q 434 293 430 272 q 443 326 439 313 l 576 768 l 847 768 l 543 -49 q 461 -206 508 -142 q 347 -301 415 -269 q 178 -334 279 -334 q 115 -330 141 -334 q 69 -322 89 -326 l 69 -114 q 106 -119 84 -117 q 151 -122 127 -122 q 223 -104 195 -122 q 268 -58 250 -87 q 298 4 286 -29 l 301 11 l -1 768 m 144 958 q 178 1040 144 1014 q 260 1065 211 1065 q 341 1040 307 1065 q 376 958 376 1014 q 341 879 376 905 q 260 852 307 852 q 178 879 211 852 q 144 958 144 905 m 469 958 q 503 1040 469 1014 q 586 1065 536 1065 q 668 1040 633 1065 q 703 958 703 1014 q 668 879 703 905 q 586 852 633 852 q 503 879 536 852 q 469 958 469 905 z "},"Ā":{"ha":1008,"x_min":0,"x_max":1008,"o":"m 715 0 l 667 186 l 345 186 l 294 0 l 0 0 l 323 996 l 681 996 l 1008 0 l 715 0 m 611 406 l 568 568 q 549 644 562 595 q 523 746 536 693 q 504 832 511 798 q 487 748 498 798 q 464 650 475 699 q 443 568 452 601 l 400 406 l 611 406 m 755 1225 l 755 1065 l 262 1065 l 262 1225 l 755 1225 z "},"ā":{"ha":865,"x_min":50,"x_max":777,"o":"m 467 782 q 694 710 612 782 q 777 504 777 637 l 777 0 l 593 0 l 542 102 l 536 102 q 470 36 504 61 q 391 -2 435 10 q 283 -14 347 -14 q 164 14 217 -14 q 81 96 111 41 q 50 235 50 151 q 136 418 50 358 q 383 485 221 477 l 511 489 l 511 500 q 486 573 511 551 q 418 595 460 595 q 316 579 372 595 q 204 538 260 563 l 127 713 q 278 764 194 747 q 467 782 362 782 m 513 343 l 452 340 q 349 315 378 338 q 319 250 319 292 q 340 192 319 211 q 396 174 361 174 q 478 204 444 174 q 513 283 513 235 l 513 343 m 685 1002 l 685 842 l 192 842 l 192 1002 l 685 1002 z "},"Ă":{"ha":1008,"x_min":0,"x_max":1008,"o":"m 715 0 l 667 186 l 345 186 l 294 0 l 0 0 l 323 996 l 681 996 l 1008 0 l 715 0 m 611 406 l 568 568 q 549 644 562 595 q 523 746 536 693 q 504 832 511 798 q 487 748 498 798 q 464 650 475 699 q 443 568 452 601 l 400 406 l 611 406 m 782 1317 q 744 1185 777 1242 q 650 1097 710 1128 q 505 1065 589 1065 q 306 1133 373 1065 q 233 1317 239 1200 l 376 1317 q 402 1259 387 1278 q 442 1234 417 1240 q 505 1228 467 1228 q 561 1235 535 1228 q 605 1262 586 1242 q 633 1317 624 1281 l 782 1317 z "},"ă":{"ha":865,"x_min":50,"x_max":777,"o":"m 467 782 q 694 710 612 782 q 777 504 777 637 l 777 0 l 593 0 l 542 102 l 536 102 q 470 36 504 61 q 391 -2 435 10 q 283 -14 347 -14 q 164 14 217 -14 q 81 96 111 41 q 50 235 50 151 q 136 418 50 358 q 383 485 221 477 l 511 489 l 511 500 q 486 573 511 551 q 418 595 460 595 q 316 579 372 595 q 204 538 260 563 l 127 713 q 278 764 194 747 q 467 782 362 782 m 513 343 l 452 340 q 349 315 378 338 q 319 250 319 292 q 340 192 319 211 q 396 174 361 174 q 478 204 444 174 q 513 283 513 235 l 513 343 m 711 1093 q 673 961 707 1018 q 579 873 640 905 q 435 842 519 842 q 235 909 302 842 q 163 1093 168 977 l 306 1093 q 331 1036 316 1055 q 372 1010 347 1017 q 435 1004 397 1004 q 490 1011 465 1004 q 534 1038 515 1019 q 563 1093 553 1057 l 711 1093 z "},"Ą":{"ha":1008,"x_min":0,"x_max":1008,"o":"m 715 0 l 667 186 l 345 186 l 294 0 l 0 0 l 323 996 l 681 996 l 1008 0 l 715 0 m 611 406 l 568 568 q 549 644 562 595 q 523 746 536 693 q 504 832 511 798 q 487 748 498 798 q 464 650 475 699 q 443 568 452 601 l 400 406 l 611 406 m 852 -135 q 866 -170 852 -160 q 905 -180 881 -180 q 946 -176 922 -180 q 985 -165 970 -172 l 985 -315 q 933 -328 962 -322 q 867 -334 905 -334 q 734 -291 788 -334 q 680 -176 680 -249 q 693 -112 680 -145 q 742 -43 707 -79 q 838 35 776 -7 l 942 0 q 873 -74 895 -45 q 852 -135 852 -103 z "},"ą":{"ha":865,"x_min":50,"x_max":780,"o":"m 467 782 q 694 710 612 782 q 777 504 777 637 l 777 0 l 593 0 l 542 102 l 536 102 q 470 36 504 61 q 391 -2 435 10 q 283 -14 347 -14 q 164 14 217 -14 q 81 96 111 41 q 50 235 50 151 q 136 418 50 358 q 383 485 221 477 l 511 489 l 511 500 q 486 573 511 551 q 418 595 460 595 q 316 579 372 595 q 204 538 260 563 l 127 713 q 278 764 194 747 q 467 782 362 782 m 513 343 l 452 340 q 349 315 378 338 q 319 250 319 292 q 340 192 319 211 q 396 174 361 174 q 478 204 444 174 q 513 283 513 235 l 513 343 m 647 -135 q 662 -170 647 -160 q 700 -180 676 -180 q 742 -176 718 -180 q 780 -165 766 -172 l 780 -315 q 728 -328 757 -322 q 662 -334 700 -334 q 529 -291 583 -334 q 475 -176 475 -249 q 489 -112 475 -145 q 537 -43 503 -79 q 633 35 571 -7 l 737 0 q 669 -74 690 -45 q 647 -135 647 -103 z "},"Ć":{"ha":901,"x_min":71,"x_max":859,"o":"m 549 786 q 464 766 501 786 q 400 708 427 746 q 360 615 374 670 q 346 492 346 561 q 370 334 346 398 q 442 238 393 271 q 564 205 490 205 q 691 224 630 205 q 815 268 753 242 l 815 41 q 681 -1 749 12 q 534 -14 612 -14 q 270 51 373 -14 q 119 229 168 115 q 71 493 71 342 q 102 699 71 606 q 195 862 134 793 q 346 968 256 930 q 551 1006 435 1006 q 703 989 623 1006 q 859 936 783 972 l 777 725 q 667 768 722 751 q 549 786 611 786 m 838 1288 l 838 1274 q 775 1226 813 1254 q 695 1167 737 1198 q 613 1110 652 1137 q 545 1065 573 1083 l 368 1065 l 368 1085 q 425 1146 392 1111 q 492 1219 458 1182 q 547 1288 525 1257 l 838 1288 z "},"ć":{"ha":749,"x_min":58,"x_max":737,"o":"m 441 -14 q 239 28 325 -14 q 105 157 153 70 q 58 380 58 244 q 111 609 58 520 q 255 740 163 698 q 463 782 347 782 q 596 766 533 782 q 714 724 660 751 l 636 528 q 548 561 589 549 q 463 574 507 574 q 392 553 422 574 q 345 489 361 532 q 328 382 328 447 q 345 275 328 315 q 393 216 362 234 q 464 197 424 197 q 579 215 522 197 q 688 265 636 233 l 688 54 q 581 5 640 23 q 441 -14 521 -14 m 737 1064 l 737 1050 q 675 1002 713 1030 q 594 944 637 974 q 512 886 552 913 q 444 842 473 859 l 268 842 l 268 861 q 325 923 292 887 q 391 996 358 958 q 447 1064 425 1033 l 737 1064 z "},"Ĉ":{"ha":901,"x_min":71,"x_max":859,"o":"m 549 786 q 464 766 501 786 q 400 708 427 746 q 360 615 374 670 q 346 492 346 561 q 370 334 346 398 q 442 238 393 271 q 564 205 490 205 q 691 224 630 205 q 815 268 753 242 l 815 41 q 681 -1 749 12 q 534 -14 612 -14 q 270 51 373 -14 q 119 229 168 115 q 71 493 71 342 q 102 699 71 606 q 195 862 134 793 q 346 968 256 930 q 551 1006 435 1006 q 703 989 623 1006 q 859 936 783 972 l 777 725 q 667 768 722 751 q 549 786 611 786 m 643 1288 q 696 1218 665 1256 q 761 1144 728 1179 q 817 1085 793 1109 l 817 1065 l 644 1065 q 576 1111 608 1086 q 509 1167 545 1136 q 443 1112 472 1136 q 376 1065 413 1088 l 201 1065 l 201 1085 q 261 1145 228 1110 q 325 1218 294 1181 q 376 1288 356 1256 l 643 1288 z "},"ĉ":{"ha":749,"x_min":58,"x_max":717,"o":"m 441 -14 q 239 28 325 -14 q 105 157 153 70 q 58 380 58 244 q 111 609 58 520 q 255 740 163 698 q 463 782 347 782 q 596 766 533 782 q 714 724 660 751 l 636 528 q 548 561 589 549 q 463 574 507 574 q 392 553 422 574 q 345 489 361 532 q 328 382 328 447 q 345 275 328 315 q 393 216 362 234 q 464 197 424 197 q 579 215 522 197 q 688 265 636 233 l 688 54 q 581 5 640 23 q 441 -14 521 -14 m 543 1064 q 597 994 565 1032 q 661 920 629 956 q 717 861 694 885 l 717 842 l 545 842 q 477 887 509 863 q 409 943 445 912 q 343 888 372 912 q 277 842 313 865 l 102 842 l 102 861 q 161 922 128 886 q 225 995 194 957 q 277 1064 256 1032 l 543 1064 z "},"Ċ":{"ha":901,"x_min":71,"x_max":859,"o":"m 549 786 q 464 766 501 786 q 400 708 427 746 q 360 615 374 670 q 346 492 346 561 q 370 334 346 398 q 442 238 393 271 q 564 205 490 205 q 691 224 630 205 q 815 268 753 242 l 815 41 q 681 -1 749 12 q 534 -14 612 -14 q 270 51 373 -14 q 119 229 168 115 q 71 493 71 342 q 102 699 71 606 q 195 862 134 793 q 346 968 256 930 q 551 1006 435 1006 q 703 989 623 1006 q 859 936 783 972 l 777 725 q 667 768 722 751 q 549 786 611 786 m 509 1301 q 608 1278 566 1301 q 650 1183 650 1254 q 608 1091 650 1115 q 509 1067 566 1067 q 409 1091 450 1067 q 368 1183 368 1115 q 409 1278 368 1254 q 509 1301 450 1301 z "},"ċ":{"ha":749,"x_min":58,"x_max":714,"o":"m 441 -14 q 239 28 325 -14 q 105 157 153 70 q 58 380 58 244 q 111 609 58 520 q 255 740 163 698 q 463 782 347 782 q 596 766 533 782 q 714 724 660 751 l 636 528 q 548 561 589 549 q 463 574 507 574 q 392 553 422 574 q 345 489 361 532 q 328 382 328 447 q 345 275 328 315 q 393 216 362 234 q 464 197 424 197 q 579 215 522 197 q 688 265 636 233 l 688 54 q 581 5 640 23 q 441 -14 521 -14 m 408 1078 q 508 1054 465 1078 q 550 960 550 1030 q 508 867 550 891 q 408 843 465 843 q 309 867 350 843 q 268 960 268 891 q 309 1054 268 1030 q 408 1078 350 1078 z "},"Č":{"ha":901,"x_min":71,"x_max":859,"o":"m 549 786 q 464 766 501 786 q 400 708 427 746 q 360 615 374 670 q 346 492 346 561 q 370 334 346 398 q 442 238 393 271 q 564 205 490 205 q 691 224 630 205 q 815 268 753 242 l 815 41 q 681 -1 749 12 q 534 -14 612 -14 q 270 51 373 -14 q 119 229 168 115 q 71 493 71 342 q 102 699 71 606 q 195 862 134 793 q 346 968 256 930 q 551 1006 435 1006 q 703 989 623 1006 q 859 936 783 972 l 777 725 q 667 768 722 751 q 549 786 611 786 m 376 1065 q 325 1135 356 1097 q 261 1208 294 1173 q 201 1268 228 1243 l 201 1288 l 376 1288 q 443 1241 413 1265 q 509 1186 472 1218 q 576 1242 545 1218 q 644 1288 608 1267 l 817 1288 l 817 1268 q 761 1209 793 1244 q 696 1136 728 1174 q 643 1065 665 1097 l 376 1065 z "},"č":{"ha":749,"x_min":58,"x_max":717,"o":"m 441 -14 q 239 28 325 -14 q 105 157 153 70 q 58 380 58 244 q 111 609 58 520 q 255 740 163 698 q 463 782 347 782 q 596 766 533 782 q 714 724 660 751 l 636 528 q 548 561 589 549 q 463 574 507 574 q 392 553 422 574 q 345 489 361 532 q 328 382 328 447 q 345 275 328 315 q 393 216 362 234 q 464 197 424 197 q 579 215 522 197 q 688 265 636 233 l 688 54 q 581 5 640 23 q 441 -14 521 -14 m 277 842 q 225 911 256 873 q 161 984 194 949 q 102 1044 128 1019 l 102 1064 l 277 1064 q 343 1018 313 1041 q 409 962 372 994 q 477 1019 445 994 q 545 1064 509 1043 l 717 1064 l 717 1044 q 661 985 694 1021 q 597 912 629 950 q 543 842 565 873 l 277 842 z "},"Ď":{"ha":1019,"x_min":107,"x_max":949,"o":"m 949 517 q 884 229 949 344 q 703 57 820 115 q 428 0 586 0 l 107 0 l 107 991 l 450 991 q 722 937 610 991 q 891 776 833 882 q 949 517 949 670 m 671 507 q 647 657 671 597 q 574 746 623 716 q 453 775 526 775 l 375 775 l 375 220 l 435 220 q 614 291 557 220 q 671 507 671 361 m 379 1065 q 328 1135 359 1097 q 263 1208 296 1173 q 204 1268 231 1243 l 204 1288 l 379 1288 q 445 1241 416 1265 q 511 1186 475 1218 q 579 1242 547 1218 q 647 1288 611 1267 l 819 1288 l 819 1268 q 764 1209 796 1244 q 699 1136 731 1174 q 646 1065 667 1097 l 379 1065 z "},"ď":{"ha":893,"x_min":58,"x_max":1131,"o":"m 330 -14 q 135 87 212 -14 q 58 383 58 189 q 137 681 58 580 q 340 782 216 782 q 429 767 392 782 q 494 727 467 752 q 542 669 522 701 l 547 669 q 538 750 543 699 q 534 850 534 801 l 534 1055 l 802 1055 l 802 0 l 602 0 l 545 97 l 534 97 q 489 41 516 66 q 422 1 461 16 q 330 -14 383 -14 m 439 196 q 529 236 503 196 q 557 359 555 277 l 557 380 q 531 520 557 471 q 436 568 506 568 q 357 522 389 568 q 326 379 326 476 q 358 240 326 283 q 439 196 389 196 m 1131 1055 l 1131 1040 q 1094 975 1112 1006 q 1056 909 1076 943 q 1010 833 1036 875 l 852 833 l 852 852 q 863 899 857 873 q 873 952 868 924 q 883 1006 879 979 q 890 1055 888 1033 l 1131 1055 z "},"Đ":{"ha":1019,"x_min":21,"x_max":949,"o":"m 450 991 q 722 937 610 991 q 891 776 833 882 q 949 517 949 670 q 884 229 949 344 q 703 57 820 115 q 428 0 586 0 l 107 0 l 107 382 l 21 382 l 21 599 l 107 599 l 107 991 l 450 991 m 453 775 l 375 775 l 375 599 l 518 599 l 518 382 l 375 382 l 375 220 l 435 220 q 614 291 557 220 q 671 507 671 361 q 647 657 671 597 q 574 746 623 716 q 453 775 526 775 z "},"đ":{"ha":921,"x_min":58,"x_max":907,"o":"m 319 -14 q 132 79 206 -14 q 58 349 58 172 q 139 625 58 536 q 345 714 220 714 q 435 699 397 714 q 502 659 474 684 q 550 603 530 634 l 555 603 q 543 671 551 620 q 534 785 534 722 l 534 791 l 378 791 l 378 956 l 534 956 l 534 1055 l 802 1055 l 802 956 l 907 956 l 907 791 l 802 791 l 802 0 l 585 0 l 525 97 l 515 97 q 469 41 496 66 q 406 1 442 16 q 319 -14 369 -14 m 453 196 q 532 229 510 196 q 557 330 555 262 l 557 347 q 527 460 557 421 q 449 500 498 500 q 379 466 408 500 q 351 346 351 433 q 375 242 351 288 q 453 196 399 196 z "},"Ē":{"ha":762,"x_min":107,"x_max":696,"o":"m 696 0 l 107 0 l 107 991 l 696 991 l 696 777 l 375 777 l 375 621 l 672 621 l 672 406 l 375 406 l 375 218 l 696 218 l 696 0 m 653 1225 l 653 1065 l 160 1065 l 160 1225 l 653 1225 z "},"ē":{"ha":859,"x_min":58,"x_max":800,"o":"m 437 782 q 631 743 549 782 q 756 626 712 704 q 800 431 800 548 l 800 313 l 326 313 q 371 214 330 252 q 494 175 413 175 q 626 189 566 175 q 750 233 686 203 l 750 43 q 629 0 694 14 q 463 -14 563 -14 q 255 28 347 -14 q 111 156 163 69 q 58 379 58 243 q 106 607 58 517 q 239 739 153 696 q 437 782 324 782 m 447 602 q 369 572 400 602 q 332 479 337 543 l 559 479 q 546 541 559 513 q 508 585 533 569 q 447 602 484 602 m 681 1002 l 681 842 l 188 842 l 188 1002 l 681 1002 z "},"Ĕ":{"ha":762,"x_min":107,"x_max":696,"o":"m 696 0 l 107 0 l 107 991 l 696 991 l 696 777 l 375 777 l 375 621 l 672 621 l 672 406 l 375 406 l 375 218 l 696 218 l 696 0 m 680 1317 q 641 1185 675 1242 q 547 1097 608 1128 q 403 1065 487 1065 q 203 1133 271 1065 q 131 1317 136 1200 l 274 1317 q 299 1259 284 1278 q 340 1234 315 1240 q 403 1228 365 1228 q 458 1235 433 1228 q 503 1262 484 1242 q 531 1317 522 1281 l 680 1317 z "},"ĕ":{"ha":859,"x_min":58,"x_max":800,"o":"m 437 782 q 631 743 549 782 q 756 626 712 704 q 800 431 800 548 l 800 313 l 326 313 q 371 214 330 252 q 494 175 413 175 q 626 189 566 175 q 750 233 686 203 l 750 43 q 629 0 694 14 q 463 -14 563 -14 q 255 28 347 -14 q 111 156 163 69 q 58 379 58 243 q 106 607 58 517 q 239 739 153 696 q 437 782 324 782 m 447 602 q 369 572 400 602 q 332 479 337 543 l 559 479 q 546 541 559 513 q 508 585 533 569 q 447 602 484 602 m 707 1093 q 669 961 703 1018 q 575 873 635 905 q 431 842 515 842 q 231 909 298 842 q 159 1093 164 977 l 302 1093 q 327 1036 312 1055 q 368 1010 342 1017 q 431 1004 393 1004 q 486 1011 460 1004 q 530 1038 511 1019 q 559 1093 549 1057 l 707 1093 z "},"Ė":{"ha":762,"x_min":107,"x_max":696,"o":"m 696 0 l 107 0 l 107 991 l 696 991 l 696 777 l 375 777 l 375 621 l 672 621 l 672 406 l 375 406 l 375 218 l 696 218 l 696 0 m 403 1301 q 502 1278 460 1301 q 545 1183 545 1254 q 502 1091 545 1115 q 403 1067 460 1067 q 303 1091 345 1067 q 262 1183 262 1115 q 303 1278 262 1254 q 403 1301 345 1301 z "},"ė":{"ha":859,"x_min":58,"x_max":800,"o":"m 437 782 q 631 743 549 782 q 756 626 712 704 q 800 431 800 548 l 800 313 l 326 313 q 371 214 330 252 q 494 175 413 175 q 626 189 566 175 q 750 233 686 203 l 750 43 q 629 0 694 14 q 463 -14 563 -14 q 255 28 347 -14 q 111 156 163 69 q 58 379 58 243 q 106 607 58 517 q 239 739 153 696 q 437 782 324 782 m 447 602 q 369 572 400 602 q 332 479 337 543 l 559 479 q 546 541 559 513 q 508 585 533 569 q 447 602 484 602 m 431 1078 q 530 1054 488 1078 q 572 960 572 1030 q 530 867 572 891 q 431 843 488 843 q 331 867 372 843 q 290 960 290 891 q 331 1054 290 1030 q 431 1078 372 1078 z "},"Ę":{"ha":762,"x_min":107,"x_max":699,"o":"m 696 0 l 107 0 l 107 991 l 696 991 l 696 777 l 375 777 l 375 621 l 672 621 l 672 406 l 375 406 l 375 218 l 696 218 l 696 0 m 566 -135 q 580 -170 566 -160 q 618 -180 595 -180 q 660 -176 636 -180 q 699 -165 684 -172 l 699 -315 q 647 -328 675 -322 q 581 -334 618 -334 q 448 -291 502 -334 q 393 -176 393 -249 q 407 -112 393 -145 q 455 -43 421 -79 q 551 35 490 -7 l 656 0 q 587 -74 609 -45 q 566 -135 566 -103 z "},"ę":{"ha":859,"x_min":58,"x_max":800,"o":"m 621 -126 q 637 -166 621 -153 q 677 -180 654 -180 q 719 -176 699 -180 q 754 -165 739 -172 l 754 -315 q 703 -328 731 -322 q 636 -334 674 -334 q 503 -291 557 -334 q 449 -176 449 -249 q 463 -112 449 -145 q 511 -43 477 -79 q 607 35 545 -7 l 750 43 q 666 -35 694 -5 q 629 -85 638 -65 q 621 -126 621 -106 m 437 782 q 631 743 549 782 q 756 626 712 704 q 800 431 800 548 l 800 313 l 326 313 q 371 214 330 252 q 494 175 413 175 q 626 189 566 175 q 750 233 686 203 l 750 43 q 629 0 694 14 q 463 -14 563 -14 q 255 28 347 -14 q 111 156 163 69 q 58 379 58 243 q 106 607 58 517 q 239 739 153 696 q 437 782 324 782 m 447 602 q 369 572 400 602 q 332 479 337 543 l 559 479 q 546 541 559 513 q 508 585 533 569 q 447 602 484 602 z "},"Ě":{"ha":762,"x_min":96,"x_max":711,"o":"m 696 0 l 107 0 l 107 991 l 696 991 l 696 777 l 375 777 l 375 621 l 672 621 l 672 406 l 375 406 l 375 218 l 696 218 l 696 0 m 271 1065 q 219 1135 250 1097 q 155 1208 188 1173 q 96 1268 122 1243 l 96 1288 l 271 1288 q 337 1241 307 1265 q 403 1186 366 1218 q 471 1242 439 1218 q 538 1288 503 1267 l 711 1288 l 711 1268 q 655 1209 688 1244 q 591 1136 623 1174 q 537 1065 559 1097 l 271 1065 z "},"ě":{"ha":859,"x_min":58,"x_max":800,"o":"m 437 782 q 631 743 549 782 q 756 626 712 704 q 800 431 800 548 l 800 313 l 326 313 q 371 214 330 252 q 494 175 413 175 q 626 189 566 175 q 750 233 686 203 l 750 43 q 629 0 694 14 q 463 -14 563 -14 q 255 28 347 -14 q 111 156 163 69 q 58 379 58 243 q 106 607 58 517 q 239 739 153 696 q 437 782 324 782 m 447 602 q 369 572 400 602 q 332 479 337 543 l 559 479 q 546 541 559 513 q 508 585 533 569 q 447 602 484 602 m 298 842 q 247 911 278 873 q 183 984 216 949 q 123 1044 150 1019 l 123 1064 l 298 1064 q 365 1018 335 1041 q 431 962 394 994 q 498 1019 467 994 q 566 1064 530 1043 l 739 1064 l 739 1044 q 683 985 715 1021 q 618 912 650 950 q 565 842 587 873 l 298 842 z "},"Ĝ":{"ha":1028,"x_min":71,"x_max":933,"o":"m 505 581 l 933 581 l 933 46 q 758 3 857 20 q 550 -14 659 -14 q 299 42 407 -14 q 131 211 191 98 q 71 498 71 325 q 130 768 71 654 q 306 944 190 882 q 591 1006 422 1006 q 768 988 684 1006 q 913 943 851 970 l 828 733 q 717 773 774 760 q 593 786 659 786 q 450 746 504 786 q 372 639 396 706 q 347 492 347 572 q 373 336 347 399 q 450 240 399 273 q 572 207 500 207 q 630 210 596 207 q 682 218 665 214 l 682 374 l 505 374 l 505 581 m 693 1288 q 747 1218 715 1256 q 811 1144 779 1179 q 867 1085 844 1109 l 867 1065 l 694 1065 q 627 1111 659 1086 q 559 1167 595 1136 q 493 1112 522 1136 q 427 1065 463 1088 l 252 1065 l 252 1085 q 311 1145 278 1110 q 375 1218 344 1181 q 427 1288 406 1256 l 693 1288 z "},"ĝ":{"ha":842,"x_min":14,"x_max":817,"o":"m 354 -334 q 102 -279 191 -334 q 14 -122 14 -224 q 56 -9 14 -54 q 184 56 99 36 q 123 104 149 71 q 97 170 97 137 q 117 233 97 205 q 199 298 136 260 q 105 381 139 325 q 71 518 71 437 q 109 661 71 602 q 221 751 147 720 q 400 782 294 782 q 444 780 414 782 q 503 774 473 777 q 549 768 532 771 l 817 768 l 817 640 l 711 602 q 728 559 722 582 q 733 510 733 536 q 646 317 733 386 q 386 249 559 249 q 318 254 343 249 q 311 237 313 245 q 309 221 309 229 q 327 196 309 205 q 373 184 346 187 q 424 180 399 180 l 551 180 q 745 126 681 180 q 810 -37 810 72 q 690 -256 810 -178 q 354 -334 570 -334 m 367 -168 q 464 -160 415 -168 q 546 -132 513 -151 q 579 -82 579 -113 q 559 -46 579 -58 q 509 -31 540 -35 q 443 -26 477 -26 l 340 -26 q 288 -36 311 -26 q 251 -60 264 -45 q 237 -96 237 -76 q 273 -148 237 -128 q 367 -168 308 -168 m 403 399 q 461 428 441 399 q 482 515 482 457 q 463 605 482 575 q 403 635 443 635 q 341 605 361 635 q 321 517 321 576 q 341 428 321 458 q 403 399 361 399 m 536 1064 q 590 994 558 1032 q 654 920 622 956 q 710 861 687 885 l 710 842 l 538 842 q 470 887 502 863 q 402 943 438 912 q 336 888 366 912 q 270 842 307 865 l 95 842 l 95 861 q 154 922 121 886 q 218 995 187 957 q 270 1064 250 1032 l 536 1064 z "},"Ğ":{"ha":1028,"x_min":71,"x_max":933,"o":"m 505 581 l 933 581 l 933 46 q 758 3 857 20 q 550 -14 659 -14 q 299 42 407 -14 q 131 211 191 98 q 71 498 71 325 q 130 768 71 654 q 306 944 190 882 q 591 1006 422 1006 q 768 988 684 1006 q 913 943 851 970 l 828 733 q 717 773 774 760 q 593 786 659 786 q 450 746 504 786 q 372 639 396 706 q 347 492 347 572 q 373 336 347 399 q 450 240 399 273 q 572 207 500 207 q 630 210 596 207 q 682 218 665 214 l 682 374 l 505 374 l 505 581 m 835 1317 q 797 1185 830 1242 q 703 1097 763 1128 q 558 1065 642 1065 q 359 1133 426 1065 q 286 1317 292 1200 l 429 1317 q 455 1259 439 1278 q 495 1234 470 1240 q 558 1228 520 1228 q 613 1235 588 1228 q 658 1262 639 1242 q 686 1317 677 1281 l 835 1317 z "},"ğ":{"ha":842,"x_min":14,"x_max":817,"o":"m 354 -334 q 102 -279 191 -334 q 14 -122 14 -224 q 56 -9 14 -54 q 184 56 99 36 q 123 104 149 71 q 97 170 97 137 q 117 233 97 205 q 199 298 136 260 q 105 381 139 325 q 71 518 71 437 q 109 661 71 602 q 221 751 147 720 q 400 782 294 782 q 444 780 414 782 q 503 774 473 777 q 549 768 532 771 l 817 768 l 817 640 l 711 602 q 728 559 722 582 q 733 510 733 536 q 646 317 733 386 q 386 249 559 249 q 318 254 343 249 q 311 237 313 245 q 309 221 309 229 q 327 196 309 205 q 373 184 346 187 q 424 180 399 180 l 551 180 q 745 126 681 180 q 810 -37 810 72 q 690 -256 810 -178 q 354 -334 570 -334 m 367 -168 q 464 -160 415 -168 q 546 -132 513 -151 q 579 -82 579 -113 q 559 -46 579 -58 q 509 -31 540 -35 q 443 -26 477 -26 l 340 -26 q 288 -36 311 -26 q 251 -60 264 -45 q 237 -96 237 -76 q 273 -148 237 -128 q 367 -168 308 -168 m 403 399 q 461 428 441 399 q 482 515 482 457 q 463 605 482 575 q 403 635 443 635 q 341 605 361 635 q 321 517 321 576 q 341 428 321 458 q 403 399 361 399 m 676 1093 q 638 961 671 1018 q 544 873 604 905 q 399 842 484 842 q 200 909 267 842 q 127 1093 133 977 l 271 1093 q 296 1036 281 1055 q 336 1010 311 1017 q 399 1004 361 1004 q 455 1011 429 1004 q 499 1038 480 1019 q 528 1093 518 1057 l 676 1093 z "},"Ġ":{"ha":1028,"x_min":71,"x_max":933,"o":"m 505 581 l 933 581 l 933 46 q 758 3 857 20 q 550 -14 659 -14 q 299 42 407 -14 q 131 211 191 98 q 71 498 71 325 q 130 768 71 654 q 306 944 190 882 q 591 1006 422 1006 q 768 988 684 1006 q 913 943 851 970 l 828 733 q 717 773 774 760 q 593 786 659 786 q 450 746 504 786 q 372 639 396 706 q 347 492 347 572 q 373 336 347 399 q 450 240 399 273 q 572 207 500 207 q 630 210 596 207 q 682 218 665 214 l 682 374 l 505 374 l 505 581 m 559 1301 q 658 1278 616 1301 q 701 1183 701 1254 q 658 1091 701 1115 q 559 1067 616 1067 q 459 1091 500 1067 q 418 1183 418 1115 q 459 1278 418 1254 q 559 1301 500 1301 z "},"ġ":{"ha":842,"x_min":14,"x_max":817,"o":"m 354 -334 q 102 -279 191 -334 q 14 -122 14 -224 q 56 -9 14 -54 q 184 56 99 36 q 123 104 149 71 q 97 170 97 137 q 117 233 97 205 q 199 298 136 260 q 105 381 139 325 q 71 518 71 437 q 109 661 71 602 q 221 751 147 720 q 400 782 294 782 q 444 780 414 782 q 503 774 473 777 q 549 768 532 771 l 817 768 l 817 640 l 711 602 q 728 559 722 582 q 733 510 733 536 q 646 317 733 386 q 386 249 559 249 q 318 254 343 249 q 311 237 313 245 q 309 221 309 229 q 327 196 309 205 q 373 184 346 187 q 424 180 399 180 l 551 180 q 745 126 681 180 q 810 -37 810 72 q 690 -256 810 -178 q 354 -334 570 -334 m 367 -168 q 464 -160 415 -168 q 546 -132 513 -151 q 579 -82 579 -113 q 559 -46 579 -58 q 509 -31 540 -35 q 443 -26 477 -26 l 340 -26 q 288 -36 311 -26 q 251 -60 264 -45 q 237 -96 237 -76 q 273 -148 237 -128 q 367 -168 308 -168 m 403 399 q 461 428 441 399 q 482 515 482 457 q 463 605 482 575 q 403 635 443 635 q 341 605 361 635 q 321 517 321 576 q 341 428 321 458 q 403 399 361 399 m 402 1078 q 502 1054 459 1078 q 544 960 544 1030 q 502 867 544 891 q 402 843 459 843 q 303 867 344 843 q 262 960 262 891 q 303 1054 262 1030 q 402 1078 344 1078 z "},"Ģ":{"ha":1028,"x_min":71,"x_max":933,"o":"m 505 581 l 933 581 l 933 46 q 758 3 857 20 q 550 -14 659 -14 q 299 42 407 -14 q 131 211 191 98 q 71 498 71 325 q 130 768 71 654 q 306 944 190 882 q 591 1006 422 1006 q 768 988 684 1006 q 913 943 851 970 l 828 733 q 717 773 774 760 q 593 786 659 786 q 450 746 504 786 q 372 639 396 706 q 347 492 347 572 q 373 336 347 399 q 450 240 399 273 q 572 207 500 207 q 630 210 596 207 q 682 218 665 214 l 682 374 l 505 374 l 505 581 m 663 -85 l 663 -100 q 630 -170 646 -137 q 594 -236 614 -203 q 549 -307 575 -269 l 390 -307 l 390 -288 q 405 -221 398 -258 q 416 -148 412 -184 q 422 -85 421 -111 l 663 -85 z "},"ģ":{"ha":842,"x_min":14,"x_max":817,"o":"m 528 1057 l 528 1037 q 517 972 523 1008 q 506 900 511 936 q 498 834 500 864 l 256 834 l 256 850 q 293 916 275 884 q 330 982 311 947 q 371 1057 349 1016 l 528 1057 m 354 -334 q 102 -279 191 -334 q 14 -122 14 -224 q 56 -9 14 -54 q 184 56 99 36 q 123 104 149 71 q 97 170 97 137 q 117 233 97 205 q 199 298 136 260 q 105 381 139 325 q 71 518 71 437 q 109 661 71 602 q 221 751 147 720 q 400 782 294 782 q 444 780 414 782 q 503 774 473 777 q 549 768 532 771 l 817 768 l 817 640 l 711 602 q 728 559 722 582 q 733 510 733 536 q 646 317 733 386 q 386 249 559 249 q 318 254 343 249 q 311 237 313 245 q 309 221 309 229 q 327 196 309 205 q 373 184 346 187 q 424 180 399 180 l 551 180 q 745 126 681 180 q 810 -37 810 72 q 690 -256 810 -178 q 354 -334 570 -334 m 367 -168 q 464 -160 415 -168 q 546 -132 513 -151 q 579 -82 579 -113 q 559 -46 579 -58 q 509 -31 540 -35 q 443 -26 477 -26 l 340 -26 q 288 -36 311 -26 q 251 -60 264 -45 q 237 -96 237 -76 q 273 -148 237 -128 q 367 -168 308 -168 m 403 399 q 461 428 441 399 q 482 515 482 457 q 463 605 482 575 q 403 635 443 635 q 341 605 361 635 q 321 517 321 576 q 341 428 321 458 q 403 399 361 399 z "},"Ĥ":{"ha":1064,"x_min":107,"x_max":957,"o":"m 957 0 l 688 0 l 688 404 l 376 404 l 376 0 l 107 0 l 107 991 l 376 991 l 376 624 l 688 624 l 688 991 l 957 991 l 957 0 m 668 1288 q 722 1218 690 1256 q 786 1144 753 1179 q 842 1085 819 1109 l 842 1065 l 669 1065 q 602 1111 633 1086 q 534 1167 570 1136 q 468 1112 497 1136 q 401 1065 438 1088 l 227 1065 l 227 1085 q 286 1145 253 1110 q 350 1218 319 1181 q 401 1288 381 1256 l 668 1288 z "},"ĥ":{"ha":930,"x_min":-78,"x_max":842,"o":"m 357 1055 l 357 905 q 353 762 357 820 q 346 673 349 704 l 358 673 q 415 737 383 713 q 486 771 447 761 q 570 782 524 782 q 707 753 646 782 q 805 662 768 724 q 842 500 842 600 l 842 0 l 575 0 l 575 419 q 553 535 575 496 q 484 574 530 574 q 408 546 435 574 q 368 466 380 519 q 357 338 357 414 l 357 0 l 92 0 l 92 1055 l 357 1055 m 363 1352 q 417 1281 385 1320 q 481 1208 449 1243 q 537 1149 514 1173 l 537 1129 l 365 1129 q 297 1175 329 1150 q 229 1231 265 1200 q 163 1176 193 1200 q 97 1129 134 1152 l -78 1129 l -78 1149 q -19 1209 -52 1174 q 45 1282 14 1244 q 97 1352 77 1320 l 363 1352 z "},"Ħ":{"ha":1086,"x_min":0,"x_max":1086,"o":"m 118 0 l 118 724 l 0 724 l 0 882 l 118 882 l 118 991 l 386 991 l 386 882 l 699 882 l 699 991 l 968 991 l 968 882 l 1086 882 l 1086 724 l 968 724 l 968 0 l 699 0 l 699 404 l 386 404 l 386 0 l 118 0 m 386 624 l 699 624 l 699 724 l 386 724 l 386 624 z "},"ħ":{"ha":945,"x_min":0,"x_max":856,"o":"m 371 1055 l 371 956 l 529 956 l 529 791 l 370 791 l 370 764 q 366 685 370 732 q 359 606 363 637 l 375 606 q 431 669 400 645 q 500 703 462 692 q 585 714 538 714 q 723 685 661 714 q 820 593 784 655 q 856 433 856 532 l 856 0 l 589 0 l 589 351 q 566 467 589 428 q 497 505 544 505 q 422 478 450 505 q 382 397 394 450 q 371 268 371 345 l 371 0 l 106 0 l 106 791 l 0 791 l 0 956 l 106 956 l 106 1055 l 371 1055 z "},"Ĩ":{"ha":484,"x_min":-43,"x_max":528,"o":"m 107 0 l 107 991 l 376 991 l 376 0 l 107 0 m -43 1063 q -26 1171 -39 1126 q 8 1242 -13 1215 q 60 1282 30 1270 q 127 1295 90 1295 q 182 1285 153 1295 q 241 1262 212 1275 q 300 1239 271 1249 q 355 1230 329 1230 q 382 1241 368 1230 q 404 1296 397 1253 l 528 1296 q 473 1118 519 1171 q 361 1064 427 1064 q 299 1074 330 1064 q 239 1097 269 1084 q 181 1119 209 1109 q 127 1129 153 1129 q 101 1118 115 1129 q 79 1063 87 1107 l -43 1063 z "},"ĩ":{"ha":452,"x_min":-61,"x_max":510,"o":"m 358 0 l 93 0 l 93 768 l 358 768 l 358 0 m -61 839 q -44 947 -57 903 q -9 1018 -31 991 q 42 1058 12 1046 q 110 1071 73 1071 q 165 1061 136 1071 q 224 1038 194 1051 q 282 1016 254 1025 q 338 1006 311 1006 q 365 1017 350 1006 q 386 1072 379 1029 l 510 1072 q 455 894 501 947 q 343 840 410 840 q 282 850 313 840 q 221 873 251 860 q 163 896 191 886 q 110 905 136 905 q 83 895 97 905 q 61 839 70 884 l -61 839 z "},"Ī":{"ha":484,"x_min":-4,"x_max":489,"o":"m 107 0 l 107 991 l 376 991 l 376 0 l 107 0 m 489 1225 l 489 1065 l -4 1065 l -4 1225 l 489 1225 z "},"ī":{"ha":452,"x_min":-15,"x_max":478,"o":"m 358 0 l 93 0 l 93 768 l 358 768 l 358 0 m 478 1002 l 478 842 l -15 842 l -15 1002 l 478 1002 z "},"Ĭ":{"ha":484,"x_min":-33,"x_max":515,"o":"m 107 0 l 107 991 l 376 991 l 376 0 l 107 0 m 515 1317 q 477 1185 511 1242 q 383 1097 444 1128 q 239 1065 323 1065 q 39 1133 106 1065 q -33 1317 -28 1200 l 110 1317 q 135 1259 120 1278 q 176 1234 151 1240 q 239 1228 201 1228 q 294 1235 269 1228 q 338 1262 319 1242 q 367 1317 357 1281 l 515 1317 z "},"ĭ":{"ha":452,"x_min":-44,"x_max":505,"o":"m 358 0 l 93 0 l 93 768 l 358 768 l 358 0 m 505 1093 q 466 961 500 1018 q 372 873 433 905 q 228 842 312 842 q 28 909 96 842 q -44 1093 -39 977 l 99 1093 q 124 1036 109 1055 q 165 1010 140 1017 q 228 1004 190 1004 q 283 1011 258 1004 q 328 1038 309 1019 q 356 1093 347 1057 l 505 1093 z "},"Į":{"ha":484,"x_min":89,"x_max":394,"o":"m 107 0 l 107 991 l 376 991 l 376 0 l 107 0 m 261 -135 q 276 -170 261 -160 q 314 -180 290 -180 q 356 -176 332 -180 q 394 -165 380 -172 l 394 -315 q 342 -328 371 -322 q 276 -334 314 -334 q 143 -291 197 -334 q 89 -176 89 -249 q 103 -112 89 -145 q 151 -43 117 -79 q 247 35 185 -7 l 351 0 q 283 -74 304 -45 q 261 -135 261 -103 z "},"į":{"ha":452,"x_min":69,"x_max":374,"o":"m 358 768 l 358 0 l 93 0 l 93 768 l 358 768 m 227 1078 q 326 1054 283 1078 q 368 960 368 1030 q 326 867 368 891 q 227 843 283 843 q 127 867 168 843 q 86 960 86 891 q 127 1054 86 1030 q 227 1078 168 1078 m 241 -135 q 256 -170 241 -160 q 294 -180 271 -180 q 336 -176 312 -180 q 374 -165 360 -172 l 374 -315 q 323 -328 351 -322 q 256 -334 294 -334 q 123 -291 178 -334 q 69 -176 69 -249 q 83 -112 69 -145 q 131 -43 97 -79 q 227 35 165 -7 l 332 0 q 263 -74 285 -45 q 241 -135 241 -103 z "},"İ":{"ha":484,"x_min":101,"x_max":383,"o":"m 107 0 l 107 991 l 376 991 l 376 0 l 107 0 m 241 1301 q 341 1278 298 1301 q 383 1183 383 1254 q 341 1091 383 1115 q 241 1067 298 1067 q 142 1091 183 1067 q 101 1183 101 1115 q 142 1278 101 1254 q 241 1301 183 1301 z "},"Ĳ":{"ha":972,"x_min":107,"x_max":865,"o":"m 107 0 l 107 991 l 376 991 l 376 0 l 107 0 m 513 -311 q 433 -307 467 -311 q 374 -297 399 -302 l 374 -89 q 420 -98 395 -93 q 473 -103 444 -103 q 548 -83 521 -103 q 585 -24 574 -64 q 596 74 596 15 l 596 991 l 865 991 l 865 97 q 821 -142 865 -52 q 696 -271 776 -231 q 513 -311 617 -311 z "},"ĳ":{"ha":901,"x_min":86,"x_max":819,"o":"m 358 768 l 358 0 l 93 0 l 93 768 l 358 768 m 227 1078 q 326 1054 283 1078 q 368 960 368 1030 q 326 867 368 891 q 227 843 283 843 q 127 867 168 843 q 86 960 86 891 q 127 1054 86 1030 q 227 1078 168 1078 m 524 -334 q 450 -329 492 -334 q 381 -317 408 -323 l 381 -110 q 421 -119 403 -116 q 463 -122 439 -122 q 519 -99 495 -122 q 543 -7 543 -77 l 543 768 l 808 768 l 808 -62 q 781 -194 808 -132 q 692 -295 754 -256 q 524 -334 629 -334 m 536 960 q 577 1054 536 1030 q 677 1078 618 1078 q 776 1054 734 1078 q 819 960 819 1030 q 776 867 819 891 q 677 843 734 843 q 577 867 618 843 q 536 960 536 891 z "},"Ĵ":{"ha":489,"x_min":-110,"x_max":554,"o":"m 29 -311 q -51 -307 -16 -311 q -110 -297 -85 -302 l -110 -89 q -64 -98 -88 -93 q -11 -103 -39 -103 q 64 -83 37 -103 q 102 -24 91 -64 q 113 74 113 15 l 113 991 l 382 991 l 382 97 q 337 -142 382 -52 q 213 -271 292 -231 q 29 -311 134 -311 m 380 1288 q 434 1218 402 1256 q 498 1144 466 1179 q 554 1085 531 1109 l 554 1065 l 382 1065 q 314 1111 346 1086 q 246 1167 282 1136 q 180 1112 210 1136 q 114 1065 151 1088 l -61 1065 l -61 1085 q -2 1145 -35 1110 q 62 1218 31 1181 q 114 1288 94 1256 l 380 1288 z "},"ĵ":{"ha":450,"x_min":-81,"x_max":534,"o":"m 72 -334 q -2 -329 40 -334 q -71 -317 -43 -323 l -71 -110 q -31 -119 -49 -116 q 11 -122 -12 -122 q 67 -99 43 -122 q 92 -7 92 -77 l 92 768 l 357 768 l 357 -62 q 330 -194 357 -132 q 240 -295 302 -256 q 72 -334 178 -334 m 361 1064 q 414 994 382 1032 q 479 920 446 956 q 534 861 511 885 l 534 842 l 362 842 q 294 887 326 863 q 227 943 262 912 q 160 888 190 912 q 94 842 131 865 l -81 842 l -81 861 q -21 922 -54 886 q 43 995 12 957 q 94 1064 74 1032 l 361 1064 z "},"Ķ":{"ha":954,"x_min":107,"x_max":960,"o":"m 954 0 l 652 0 l 456 379 l 376 332 l 376 0 l 107 0 l 107 991 l 376 991 l 376 561 q 415 626 393 593 q 458 688 437 659 l 667 991 l 960 991 l 647 547 l 954 0 m 635 -85 l 635 -100 q 602 -170 618 -137 q 567 -236 586 -203 q 521 -307 547 -269 l 362 -307 l 362 -288 q 377 -221 370 -258 q 389 -148 384 -184 q 394 -85 393 -111 l 635 -85 z "},"ķ":{"ha":916,"x_min":92,"x_max":916,"o":"m 358 1055 l 358 640 q 354 536 358 593 q 343 432 351 479 l 349 432 q 388 492 364 456 q 431 551 412 528 l 603 768 l 899 768 l 632 441 l 916 0 l 612 0 l 444 275 l 358 210 l 358 0 l 92 0 l 92 1055 l 358 1055 m 593 -85 l 593 -100 q 561 -170 577 -137 q 525 -236 545 -203 q 479 -307 506 -269 l 321 -307 l 321 -288 q 336 -221 329 -258 q 347 -148 342 -184 q 353 -85 352 -111 l 593 -85 z "},"ĸ":{"ha":916,"x_min":92,"x_max":916,"o":"m 903 768 l 628 432 l 916 0 l 616 0 l 446 271 l 358 204 l 358 0 l 92 0 l 92 768 l 358 768 l 358 602 q 356 503 358 544 q 351 436 353 462 l 357 436 q 390 486 370 454 q 439 554 411 517 l 606 768 l 903 768 z "},"Ĺ":{"ha":808,"x_min":97,"x_max":757,"o":"m 107 0 l 107 991 l 375 991 l 375 216 l 757 216 l 757 0 l 107 0 m 566 1288 l 566 1274 q 504 1226 542 1254 q 424 1167 466 1198 q 341 1110 381 1137 q 273 1065 302 1083 l 97 1065 l 97 1085 q 154 1146 121 1111 q 220 1219 187 1182 q 276 1288 254 1257 l 566 1288 z "},"ĺ":{"ha":449,"x_min":86,"x_max":555,"o":"m 357 0 l 92 0 l 92 1055 l 357 1055 l 357 0 m 555 1352 l 555 1337 q 493 1290 531 1318 q 413 1231 455 1261 q 331 1174 370 1201 q 262 1129 291 1147 l 86 1129 l 86 1149 q 143 1210 110 1175 q 210 1283 176 1246 q 265 1352 243 1320 l 555 1352 z "},"Ļ":{"ha":808,"x_min":107,"x_max":757,"o":"m 107 0 l 107 991 l 375 991 l 375 216 l 757 216 l 757 0 l 107 0 m 564 -85 l 564 -100 q 532 -170 548 -137 q 496 -236 515 -203 q 450 -307 477 -269 l 292 -307 l 292 -288 q 307 -221 300 -258 q 318 -148 313 -184 q 323 -85 323 -111 l 564 -85 z "},"ļ":{"ha":449,"x_min":87,"x_max":360,"o":"m 357 0 l 92 0 l 92 1055 l 357 1055 l 357 0 m 360 -85 l 360 -100 q 328 -170 344 -137 q 292 -236 311 -203 q 246 -307 273 -269 l 87 -307 l 87 -288 q 102 -221 96 -258 q 114 -148 109 -184 q 119 -85 119 -111 l 360 -85 z "},"Ľ":{"ha":808,"x_min":107,"x_max":799,"o":"m 107 0 l 107 991 l 375 991 l 375 216 l 757 216 l 757 0 l 107 0 m 799 991 l 799 977 q 761 911 779 943 q 723 845 743 879 q 677 770 703 811 l 519 770 l 519 789 q 530 835 525 809 q 541 888 536 861 q 551 942 547 916 q 558 991 555 969 l 799 991 z "},"ľ":{"ha":449,"x_min":92,"x_max":680,"o":"m 357 0 l 92 0 l 92 1055 l 357 1055 l 357 0 m 680 1055 l 680 1040 q 642 975 660 1006 q 604 909 624 943 q 558 833 584 875 l 400 833 l 400 852 q 411 899 406 873 q 422 952 416 924 q 432 1006 427 979 q 439 1055 436 1033 l 680 1055 z "},"Ŀ":{"ha":808,"x_min":107,"x_max":763,"o":"m 107 0 l 107 991 l 375 991 l 375 216 l 757 216 l 757 0 l 107 0 m 621 668 q 721 644 678 668 q 763 550 763 621 q 721 457 763 481 q 621 433 678 433 q 522 457 563 433 q 481 550 481 481 q 522 644 481 621 q 621 668 563 668 z "},"ŀ":{"ha":602,"x_min":92,"x_max":665,"o":"m 357 0 l 92 0 l 92 1055 l 357 1055 l 357 0 m 524 644 q 623 621 581 644 q 665 526 665 597 q 623 434 665 458 q 524 410 581 410 q 424 434 465 410 q 383 526 383 458 q 424 621 383 597 q 524 644 465 644 z "},"Ł":{"ha":846,"x_min":-21,"x_max":794,"o":"m 144 0 l 144 326 l 75 288 l -21 456 l 144 554 l 144 991 l 412 991 l 412 720 l 555 808 l 656 643 l 412 492 l 412 216 l 794 216 l 794 0 l 144 0 z "},"ł":{"ha":579,"x_min":-21,"x_max":600,"o":"m 158 0 l 158 273 l 74 228 l -21 396 l 158 498 l 158 1055 l 424 1055 l 424 659 l 501 705 l 600 538 l 424 433 l 424 0 l 158 0 z "},"Ń":{"ha":1158,"x_min":107,"x_max":1051,"o":"m 1051 0 l 700 0 l 338 699 l 332 699 q 338 622 335 667 q 342 531 340 577 q 345 447 345 484 l 345 0 l 107 0 l 107 991 l 457 991 l 818 302 l 822 302 q 818 378 820 335 q 814 465 816 421 q 812 543 812 509 l 812 991 l 1051 991 l 1051 0 m 909 1288 l 909 1274 q 847 1226 885 1254 q 767 1167 809 1198 q 685 1110 724 1137 q 616 1065 645 1083 l 440 1065 l 440 1085 q 497 1146 464 1111 q 564 1219 530 1182 q 619 1288 597 1257 l 909 1288 z "},"ń":{"ha":930,"x_min":92,"x_max":842,"o":"m 572 782 q 766 715 691 782 q 842 500 842 648 l 842 0 l 576 0 l 576 419 q 554 535 576 496 q 484 574 532 574 q 382 512 408 574 q 357 336 357 451 l 357 0 l 92 0 l 92 768 l 292 768 l 328 667 l 338 667 q 396 729 362 703 q 474 768 430 755 q 572 782 518 782 m 795 1064 l 795 1050 q 733 1002 771 1030 q 653 944 695 974 q 571 886 610 913 q 503 842 531 859 l 326 842 l 326 861 q 383 923 350 887 q 450 996 416 958 q 505 1064 483 1033 l 795 1064 z "},"Ņ":{"ha":1158,"x_min":107,"x_max":1051,"o":"m 1051 0 l 700 0 l 338 699 l 332 699 q 338 622 335 667 q 342 531 340 577 q 345 447 345 484 l 345 0 l 107 0 l 107 991 l 457 991 l 818 302 l 822 302 q 818 378 820 335 q 814 465 816 421 q 812 543 812 509 l 812 991 l 1051 991 l 1051 0 m 714 -85 l 714 -100 q 682 -170 698 -137 q 646 -236 665 -203 q 600 -307 627 -269 l 441 -307 l 441 -288 q 456 -221 450 -258 q 468 -148 463 -184 q 473 -85 473 -111 l 714 -85 z "},"ņ":{"ha":930,"x_min":92,"x_max":842,"o":"m 572 782 q 766 715 691 782 q 842 500 842 648 l 842 0 l 576 0 l 576 419 q 554 535 576 496 q 484 574 532 574 q 382 512 408 574 q 357 336 357 451 l 357 0 l 92 0 l 92 768 l 292 768 l 328 667 l 338 667 q 396 729 362 703 q 474 768 430 755 q 572 782 518 782 m 600 -85 l 600 -100 q 568 -170 584 -137 q 532 -236 551 -203 q 486 -307 513 -269 l 328 -307 l 328 -288 q 342 -221 336 -258 q 354 -148 349 -184 q 359 -85 359 -111 l 600 -85 z "},"Ň":{"ha":1158,"x_min":107,"x_max":1051,"o":"m 1051 0 l 700 0 l 338 699 l 332 699 q 338 622 335 667 q 342 531 340 577 q 345 447 345 484 l 345 0 l 107 0 l 107 991 l 457 991 l 818 302 l 822 302 q 818 378 820 335 q 814 465 816 421 q 812 543 812 509 l 812 991 l 1051 991 l 1051 0 m 449 1065 q 397 1135 429 1097 q 333 1208 366 1173 q 274 1268 300 1243 l 274 1288 l 449 1288 q 515 1241 486 1265 q 581 1186 545 1218 q 649 1242 617 1218 q 717 1288 681 1267 l 889 1288 l 889 1268 q 833 1209 866 1244 q 769 1136 801 1174 q 715 1065 737 1097 l 449 1065 z "},"ň":{"ha":930,"x_min":92,"x_max":842,"o":"m 572 782 q 766 715 691 782 q 842 500 842 648 l 842 0 l 576 0 l 576 419 q 554 535 576 496 q 484 574 532 574 q 382 512 408 574 q 357 336 357 451 l 357 0 l 92 0 l 92 768 l 292 768 l 328 667 l 338 667 q 396 729 362 703 q 474 768 430 755 q 572 782 518 782 m 335 842 q 283 911 315 873 q 219 984 252 949 q 160 1044 186 1019 l 160 1064 l 335 1064 q 401 1018 372 1041 q 467 962 431 994 q 535 1019 503 994 q 603 1064 567 1043 l 775 1064 l 775 1044 q 720 985 752 1021 q 655 912 687 950 q 602 842 623 873 l 335 842 z "},"ŉ":{"ha":1153,"x_min":0,"x_max":1064,"o":"m 795 782 q 989 715 913 782 q 1064 500 1064 648 l 1064 0 l 799 0 l 799 419 q 777 535 799 496 q 706 574 755 574 q 605 512 631 574 q 579 336 579 451 l 579 0 l 314 0 l 314 768 l 514 768 l 550 667 l 560 667 q 618 729 585 703 q 696 768 652 755 q 795 782 741 782 m 298 990 l 309 975 q 277 856 296 925 q 234 716 257 786 q 189 595 212 646 l 0 595 q 20 694 10 642 q 39 798 30 746 q 55 900 47 850 q 66 990 62 949 l 298 990 z "},"Ŋ":{"ha":1158,"x_min":107,"x_max":1051,"o":"m 697 -332 q 610 -327 648 -332 q 546 -318 572 -323 l 546 -110 q 600 -119 572 -114 q 663 -123 628 -123 q 751 -110 716 -123 q 805 -68 786 -96 q 827 0 823 -41 l 338 699 l 332 699 q 338 624 335 671 q 342 522 340 577 q 345 416 345 467 l 345 0 l 107 0 l 107 991 l 429 991 l 818 443 l 823 443 q 819 519 821 469 q 814 626 817 569 q 812 729 812 682 l 812 991 l 1051 991 l 1051 -5 q 1006 -184 1051 -112 q 881 -294 961 -257 q 697 -332 802 -332 z "},"ŋ":{"ha":930,"x_min":92,"x_max":842,"o":"m 562 -334 q 489 -329 531 -334 q 419 -317 447 -323 l 419 -110 q 460 -119 443 -116 q 498 -122 477 -122 q 552 -99 529 -122 q 575 -7 575 -77 l 575 444 q 551 541 575 508 q 484 574 528 574 q 406 546 433 574 q 368 466 378 519 q 357 336 357 413 l 357 0 l 92 0 l 92 768 l 292 768 l 325 673 l 342 673 q 403 736 366 713 q 484 771 439 760 q 574 782 528 782 q 709 752 648 782 q 806 661 770 723 q 842 500 842 599 l 842 -62 q 815 -194 842 -132 q 727 -295 788 -256 q 562 -334 665 -334 z "},"Ō":{"ha":1107,"x_min":71,"x_max":1035,"o":"m 1035 497 q 1007 289 1035 382 q 922 127 980 195 q 772 23 863 59 q 553 -14 680 -14 q 337 23 428 -14 q 186 126 245 59 q 99 288 127 194 q 71 498 71 382 q 122 767 71 653 q 280 944 173 882 q 554 1007 387 1007 q 830 944 724 1007 q 985 766 936 881 q 1035 497 1035 652 m 353 497 q 373 343 353 408 q 437 244 393 279 q 553 210 481 210 q 670 244 627 210 q 733 343 714 279 q 753 497 753 408 q 708 709 753 631 q 554 787 663 787 q 437 752 481 787 q 373 652 393 717 q 353 497 353 587 m 806 1225 l 806 1065 l 313 1065 l 313 1225 l 806 1225 z "},"ō":{"ha":885,"x_min":58,"x_max":825,"o":"m 825 386 q 799 215 825 290 q 722 90 772 140 q 601 13 672 39 q 440 -14 530 -14 q 287 13 357 -14 q 166 90 218 39 q 86 215 115 140 q 58 386 58 290 q 105 602 58 513 q 238 736 151 690 q 444 782 324 782 q 641 736 555 782 q 776 602 727 690 q 825 386 825 513 m 328 386 q 339 275 328 320 q 376 207 351 230 q 443 183 401 183 q 509 207 484 183 q 544 275 533 230 q 555 386 555 320 q 544 496 555 452 q 508 562 533 540 q 441 585 484 585 q 354 534 381 585 q 328 386 328 484 m 694 1002 l 694 842 l 201 842 l 201 1002 l 694 1002 z "},"Ŏ":{"ha":1107,"x_min":71,"x_max":1035,"o":"m 1035 497 q 1007 289 1035 382 q 922 127 980 195 q 772 23 863 59 q 553 -14 680 -14 q 337 23 428 -14 q 186 126 245 59 q 99 288 127 194 q 71 498 71 382 q 122 767 71 653 q 280 944 173 882 q 554 1007 387 1007 q 830 944 724 1007 q 985 766 936 881 q 1035 497 1035 652 m 353 497 q 373 343 353 408 q 437 244 393 279 q 553 210 481 210 q 670 244 627 210 q 733 343 714 279 q 753 497 753 408 q 708 709 753 631 q 554 787 663 787 q 437 752 481 787 q 373 652 393 717 q 353 497 353 587 m 832 1317 q 794 1185 827 1242 q 700 1097 760 1128 q 555 1065 640 1065 q 356 1133 423 1065 q 283 1317 289 1200 l 427 1317 q 452 1259 437 1278 q 492 1234 467 1240 q 555 1228 517 1228 q 611 1235 585 1228 q 655 1262 636 1242 q 684 1317 674 1281 l 832 1317 z "},"ŏ":{"ha":885,"x_min":58,"x_max":825,"o":"m 825 386 q 799 215 825 290 q 722 90 772 140 q 601 13 672 39 q 440 -14 530 -14 q 287 13 357 -14 q 166 90 218 39 q 86 215 115 140 q 58 386 58 290 q 105 602 58 513 q 238 736 151 690 q 444 782 324 782 q 641 736 555 782 q 776 602 727 690 q 825 386 825 513 m 328 386 q 339 275 328 320 q 376 207 351 230 q 443 183 401 183 q 509 207 484 183 q 544 275 533 230 q 555 386 555 320 q 544 496 555 452 q 508 562 533 540 q 441 585 484 585 q 354 534 381 585 q 328 386 328 484 m 721 1093 q 683 961 716 1018 q 589 873 649 905 q 444 842 528 842 q 245 909 312 842 q 172 1093 178 977 l 315 1093 q 341 1036 326 1055 q 381 1010 356 1017 q 444 1004 406 1004 q 499 1011 474 1004 q 544 1038 525 1019 q 572 1093 563 1057 l 721 1093 z "},"Ő":{"ha":1107,"x_min":71,"x_max":1035,"o":"m 1035 497 q 1007 289 1035 382 q 922 127 980 195 q 772 23 863 59 q 553 -14 680 -14 q 337 23 428 -14 q 186 126 245 59 q 99 288 127 194 q 71 498 71 382 q 122 767 71 653 q 280 944 173 882 q 554 1007 387 1007 q 830 944 724 1007 q 985 766 936 881 q 1035 497 1035 652 m 353 497 q 373 343 353 408 q 437 244 393 279 q 553 210 481 210 q 670 244 627 210 q 733 343 714 279 q 753 497 753 408 q 708 709 753 631 q 554 787 663 787 q 437 752 481 787 q 373 652 393 717 q 353 497 353 587 m 987 1288 l 987 1274 q 946 1228 977 1255 q 876 1170 916 1200 q 798 1112 837 1139 q 732 1065 760 1084 l 595 1065 l 595 1085 q 641 1147 614 1112 q 692 1220 667 1183 q 735 1288 718 1257 l 987 1288 m 672 1288 l 672 1274 q 631 1228 661 1255 q 561 1170 600 1200 q 483 1112 522 1139 q 418 1065 445 1084 l 281 1065 l 281 1085 q 326 1147 300 1112 q 378 1220 352 1183 q 421 1288 404 1257 l 672 1288 z "},"ő":{"ha":885,"x_min":58,"x_max":876,"o":"m 825 386 q 799 215 825 290 q 722 90 772 140 q 601 13 672 39 q 440 -14 530 -14 q 287 13 357 -14 q 166 90 218 39 q 86 215 115 140 q 58 386 58 290 q 105 602 58 513 q 238 736 151 690 q 444 782 324 782 q 641 736 555 782 q 776 602 727 690 q 825 386 825 513 m 328 386 q 339 275 328 320 q 376 207 351 230 q 443 183 401 183 q 509 207 484 183 q 544 275 533 230 q 555 386 555 320 q 544 496 555 452 q 508 562 533 540 q 441 585 484 585 q 354 534 381 585 q 328 386 328 484 m 876 1064 l 876 1050 q 835 1004 865 1031 q 765 946 804 977 q 687 888 726 916 q 621 842 648 860 l 484 842 l 484 861 q 529 923 503 888 q 581 996 555 959 q 624 1064 607 1033 l 876 1064 m 561 1064 l 561 1050 q 519 1004 550 1031 q 450 946 489 977 q 372 888 410 916 q 307 842 334 860 l 170 842 l 170 861 q 215 923 189 888 q 267 996 241 959 q 310 1064 292 1033 l 561 1064 z "},"Œ":{"ha":1329,"x_min":71,"x_max":1263,"o":"m 526 1007 q 615 1003 564 1007 q 696 991 666 999 l 1263 991 l 1263 777 l 942 777 l 942 621 l 1238 621 l 1238 406 l 942 406 l 942 218 l 1263 218 l 1263 0 l 690 0 q 611 -10 661 -6 q 525 -14 561 -14 q 274 50 375 -14 q 122 229 173 114 q 71 498 71 345 q 121 767 71 652 q 272 944 171 881 q 526 1007 373 1007 m 528 787 q 450 767 483 787 q 395 709 417 747 q 363 618 374 671 q 353 497 353 564 q 372 343 353 408 q 429 244 391 279 q 526 210 467 210 q 609 217 569 210 q 673 239 648 224 l 673 754 q 610 779 650 770 q 528 787 570 787 z "},"œ":{"ha":1361,"x_min":58,"x_max":1303,"o":"m 970 782 q 1142 743 1067 782 q 1260 626 1217 704 q 1303 429 1303 547 l 1303 313 l 831 313 q 878 216 834 256 q 1007 175 922 175 q 1124 188 1060 175 q 1254 233 1188 200 l 1254 43 q 1135 0 1198 14 q 972 -14 1072 -14 q 830 9 897 -14 q 713 79 764 32 q 594 10 663 34 q 440 -14 526 -14 q 243 33 330 -14 q 107 169 157 79 q 58 386 58 258 q 105 602 58 513 q 238 736 151 690 q 444 782 324 782 q 584 760 519 782 q 699 696 649 739 q 771 742 732 723 q 860 772 811 762 q 970 782 909 782 m 441 585 q 355 534 381 585 q 329 386 329 484 q 340 275 329 320 q 376 207 351 230 q 443 183 401 183 q 509 207 484 183 q 544 275 533 230 q 555 386 555 320 q 544 496 555 452 q 508 562 533 540 q 441 585 484 585 m 954 602 q 873 574 905 602 q 835 479 840 547 l 1065 479 q 1052 541 1065 513 q 1014 585 1039 568 q 954 602 989 602 z "},"Ŕ":{"ha":940,"x_min":107,"x_max":957,"o":"m 432 991 q 656 959 567 991 q 791 861 746 926 q 836 699 836 795 q 816 589 836 638 q 758 500 795 539 q 668 432 720 461 l 957 0 l 653 0 l 443 361 l 375 361 l 375 0 l 107 0 l 107 991 l 432 991 m 428 789 l 375 789 l 375 562 l 425 562 q 526 589 487 562 q 566 686 566 616 q 533 762 566 734 q 428 789 500 789 m 802 1288 l 802 1274 q 739 1226 777 1254 q 659 1167 701 1198 q 577 1110 616 1137 q 509 1065 537 1083 l 332 1065 l 332 1085 q 389 1146 356 1111 q 456 1219 422 1182 q 511 1288 489 1257 l 802 1288 z "},"ŕ":{"ha":652,"x_min":92,"x_max":679,"o":"m 555 782 q 601 779 577 782 q 636 774 625 776 l 612 524 q 579 529 600 527 q 522 532 559 532 q 469 527 497 532 q 415 507 440 522 q 373 461 389 492 q 357 378 357 430 l 357 0 l 92 0 l 92 768 l 289 768 l 330 646 l 343 646 q 397 714 364 684 q 471 764 430 745 q 555 782 512 782 m 679 1064 l 679 1050 q 616 1002 654 1030 q 536 944 578 974 q 454 886 494 913 q 386 842 414 859 l 210 842 l 210 861 q 267 923 233 887 q 333 996 300 958 q 389 1064 366 1033 l 679 1064 z "},"Ŗ":{"ha":940,"x_min":107,"x_max":957,"o":"m 432 991 q 656 959 567 991 q 791 861 746 926 q 836 699 836 795 q 816 589 836 638 q 758 500 795 539 q 668 432 720 461 l 957 0 l 653 0 l 443 361 l 375 361 l 375 0 l 107 0 l 107 991 l 432 991 m 428 789 l 375 789 l 375 562 l 425 562 q 526 589 487 562 q 566 686 566 616 q 533 762 566 734 q 428 789 500 789 m 627 -85 l 627 -100 q 594 -170 610 -137 q 558 -236 578 -203 q 513 -307 539 -269 l 354 -307 l 354 -288 q 369 -221 362 -258 q 380 -148 376 -184 q 386 -85 385 -111 l 627 -85 z "},"ŗ":{"ha":652,"x_min":92,"x_max":636,"o":"m 555 782 q 601 779 577 782 q 636 774 625 776 l 612 524 q 579 529 600 527 q 522 532 559 532 q 469 527 497 532 q 415 507 440 522 q 373 461 389 492 q 357 378 357 430 l 357 0 l 92 0 l 92 768 l 289 768 l 330 646 l 343 646 q 397 714 364 684 q 471 764 430 745 q 555 782 512 782 m 364 -85 l 364 -100 q 332 -170 348 -137 q 296 -236 315 -203 q 250 -307 277 -269 l 92 -307 l 92 -288 q 106 -221 100 -258 q 118 -148 113 -184 q 123 -85 123 -111 l 364 -85 z "},"Ř":{"ha":940,"x_min":107,"x_max":957,"o":"m 432 991 q 656 959 567 991 q 791 861 746 926 q 836 699 836 795 q 816 589 836 638 q 758 500 795 539 q 668 432 720 461 l 957 0 l 653 0 l 443 361 l 375 361 l 375 0 l 107 0 l 107 991 l 432 991 m 428 789 l 375 789 l 375 562 l 425 562 q 526 589 487 562 q 566 686 566 616 q 533 762 566 734 q 428 789 500 789 m 340 1065 q 289 1135 320 1097 q 225 1208 258 1173 q 165 1268 192 1243 l 165 1288 l 340 1288 q 407 1241 377 1265 q 473 1186 436 1218 q 541 1242 509 1218 q 608 1288 572 1267 l 781 1288 l 781 1268 q 725 1209 758 1244 q 661 1136 692 1174 q 607 1065 629 1097 l 340 1065 z "},"ř":{"ha":652,"x_min":43,"x_max":659,"o":"m 555 782 q 601 779 577 782 q 636 774 625 776 l 612 524 q 579 529 600 527 q 522 532 559 532 q 469 527 497 532 q 415 507 440 522 q 373 461 389 492 q 357 378 357 430 l 357 0 l 92 0 l 92 768 l 289 768 l 330 646 l 343 646 q 397 714 364 684 q 471 764 430 745 q 555 782 512 782 m 218 842 q 167 911 198 873 q 103 984 136 949 q 43 1044 70 1019 l 43 1064 l 218 1064 q 284 1018 255 1041 q 351 962 314 994 q 418 1019 387 994 q 486 1064 450 1043 l 659 1064 l 659 1044 q 603 985 635 1021 q 538 912 570 950 q 485 842 507 873 l 218 842 z "},"Ś":{"ha":802,"x_min":61,"x_max":755,"o":"m 755 301 q 715 148 755 220 q 588 31 674 76 q 367 -14 503 -14 q 248 -7 299 -14 q 153 13 197 -1 q 61 49 109 26 l 61 288 q 224 225 142 247 q 372 204 306 204 q 438 214 412 204 q 475 240 463 223 q 488 278 488 256 q 470 322 488 304 q 412 359 452 340 q 309 408 373 379 q 209 461 254 434 q 133 523 165 488 q 85 605 102 558 q 68 715 68 652 q 115 876 68 811 q 247 973 162 941 q 441 1006 331 1006 q 616 984 538 1006 q 755 935 694 962 l 673 728 q 548 774 610 757 q 433 791 486 791 q 377 783 399 791 q 344 760 355 774 q 334 728 334 746 q 352 686 334 705 q 412 647 370 668 q 528 591 454 625 q 651 521 600 559 q 729 431 702 484 q 755 301 755 378 m 732 1288 l 732 1274 q 669 1226 707 1254 q 589 1167 631 1198 q 507 1110 547 1137 q 439 1065 467 1083 l 262 1065 l 262 1085 q 319 1146 286 1111 q 386 1219 353 1182 q 441 1288 419 1257 l 732 1288 z "},"ś":{"ha":718,"x_min":58,"x_max":679,"o":"m 663 236 q 630 106 663 163 q 526 18 597 50 q 338 -14 454 -14 q 191 -5 256 -14 q 60 29 126 4 l 60 241 q 208 194 132 208 q 326 179 283 179 q 392 189 371 179 q 412 218 412 199 q 398 247 412 235 q 349 275 385 259 q 249 317 313 290 q 143 374 185 343 q 79 449 100 406 q 58 555 58 492 q 145 725 58 668 q 375 782 232 782 q 518 765 451 782 q 657 717 585 749 l 585 546 q 469 587 528 572 q 376 603 411 603 q 328 595 345 603 q 311 571 311 587 q 323 546 311 557 q 368 521 335 535 q 465 481 401 507 q 576 423 532 454 q 641 348 620 392 q 663 236 663 304 m 679 1064 l 679 1050 q 616 1002 654 1030 q 536 944 578 974 q 454 886 494 913 q 386 842 414 859 l 210 842 l 210 861 q 267 923 233 887 q 333 996 300 958 q 389 1064 366 1033 l 679 1064 z "},"Ŝ":{"ha":802,"x_min":61,"x_max":755,"o":"m 755 301 q 715 148 755 220 q 588 31 674 76 q 367 -14 503 -14 q 248 -7 299 -14 q 153 13 197 -1 q 61 49 109 26 l 61 288 q 224 225 142 247 q 372 204 306 204 q 438 214 412 204 q 475 240 463 223 q 488 278 488 256 q 470 322 488 304 q 412 359 452 340 q 309 408 373 379 q 209 461 254 434 q 133 523 165 488 q 85 605 102 558 q 68 715 68 652 q 115 876 68 811 q 247 973 162 941 q 441 1006 331 1006 q 616 984 538 1006 q 755 935 694 962 l 673 728 q 548 774 610 757 q 433 791 486 791 q 377 783 399 791 q 344 760 355 774 q 334 728 334 746 q 352 686 334 705 q 412 647 370 668 q 528 591 454 625 q 651 521 600 559 q 729 431 702 484 q 755 301 755 378 m 537 1288 q 591 1218 559 1256 q 655 1144 623 1179 q 711 1085 688 1109 l 711 1065 l 538 1065 q 471 1111 503 1086 q 403 1167 439 1136 q 337 1112 366 1136 q 271 1065 307 1088 l 96 1065 l 96 1085 q 155 1145 122 1110 q 219 1218 188 1181 q 271 1288 250 1256 l 537 1288 z "},"ŝ":{"ha":718,"x_min":43,"x_max":663,"o":"m 663 236 q 630 106 663 163 q 526 18 597 50 q 338 -14 454 -14 q 191 -5 256 -14 q 60 29 126 4 l 60 241 q 208 194 132 208 q 326 179 283 179 q 392 189 371 179 q 412 218 412 199 q 398 247 412 235 q 349 275 385 259 q 249 317 313 290 q 143 374 185 343 q 79 449 100 406 q 58 555 58 492 q 145 725 58 668 q 375 782 232 782 q 518 765 451 782 q 657 717 585 749 l 585 546 q 469 587 528 572 q 376 603 411 603 q 328 595 345 603 q 311 571 311 587 q 323 546 311 557 q 368 521 335 535 q 465 481 401 507 q 576 423 532 454 q 641 348 620 392 q 663 236 663 304 m 485 1064 q 538 994 507 1032 q 603 920 570 956 q 659 861 635 885 l 659 842 l 486 842 q 418 887 450 863 q 351 943 387 912 q 284 888 314 912 q 218 842 255 865 l 43 842 l 43 861 q 103 922 70 886 q 167 995 136 957 q 218 1064 198 1032 l 485 1064 z "},"Ş":{"ha":802,"x_min":61,"x_max":755,"o":"m 755 301 q 715 148 755 220 q 588 31 674 76 q 367 -14 503 -14 q 248 -7 299 -14 q 153 13 197 -1 q 61 49 109 26 l 61 288 q 224 225 142 247 q 372 204 306 204 q 438 214 412 204 q 475 240 463 223 q 488 278 488 256 q 470 322 488 304 q 412 359 452 340 q 309 408 373 379 q 209 461 254 434 q 133 523 165 488 q 85 605 102 558 q 68 715 68 652 q 115 876 68 811 q 247 973 162 941 q 441 1006 331 1006 q 616 984 538 1006 q 755 935 694 962 l 673 728 q 548 774 610 757 q 433 791 486 791 q 377 783 399 791 q 344 760 355 774 q 334 728 334 746 q 352 686 334 705 q 412 647 370 668 q 528 591 454 625 q 651 521 600 559 q 729 431 702 484 q 755 301 755 378 m 562 -171 q 511 -289 562 -245 q 375 -334 460 -334 q 289 -326 328 -334 q 225 -310 250 -319 l 225 -179 q 270 -191 248 -186 q 315 -195 292 -195 q 356 -184 341 -195 q 371 -155 371 -173 q 348 -118 371 -132 q 273 -94 326 -104 l 314 0 l 446 0 l 433 -41 q 491 -61 461 -47 q 541 -100 521 -75 q 562 -171 562 -126 z "},"ş":{"ha":718,"x_min":58,"x_max":663,"o":"m 663 236 q 630 106 663 163 q 526 18 597 50 q 338 -14 454 -14 q 191 -5 256 -14 q 60 29 126 4 l 60 241 q 208 194 132 208 q 326 179 283 179 q 392 189 371 179 q 412 218 412 199 q 398 247 412 235 q 349 275 385 259 q 249 317 313 290 q 143 374 185 343 q 79 449 100 406 q 58 555 58 492 q 145 725 58 668 q 375 782 232 782 q 518 765 451 782 q 657 717 585 749 l 585 546 q 469 587 528 572 q 376 603 411 603 q 328 595 345 603 q 311 571 311 587 q 323 546 311 557 q 368 521 335 535 q 465 481 401 507 q 576 423 532 454 q 641 348 620 392 q 663 236 663 304 m 509 -171 q 458 -289 509 -245 q 322 -334 407 -334 q 236 -326 275 -334 q 172 -310 197 -319 l 172 -179 q 217 -191 195 -186 q 262 -195 239 -195 q 303 -184 288 -195 q 318 -155 318 -173 q 295 -118 318 -132 q 220 -94 273 -104 l 261 0 l 393 0 l 380 -41 q 438 -61 408 -47 q 488 -100 468 -75 q 509 -171 509 -126 z "},"Š":{"ha":802,"x_min":61,"x_max":755,"o":"m 755 301 q 715 148 755 220 q 588 31 674 76 q 367 -14 503 -14 q 248 -7 299 -14 q 153 13 197 -1 q 61 49 109 26 l 61 288 q 224 225 142 247 q 372 204 306 204 q 438 214 412 204 q 475 240 463 223 q 488 278 488 256 q 470 322 488 304 q 412 359 452 340 q 309 408 373 379 q 209 461 254 434 q 133 523 165 488 q 85 605 102 558 q 68 715 68 652 q 115 876 68 811 q 247 973 162 941 q 441 1006 331 1006 q 616 984 538 1006 q 755 935 694 962 l 673 728 q 548 774 610 757 q 433 791 486 791 q 377 783 399 791 q 344 760 355 774 q 334 728 334 746 q 352 686 334 705 q 412 647 370 668 q 528 591 454 625 q 651 521 600 559 q 729 431 702 484 q 755 301 755 378 m 271 1065 q 219 1135 250 1097 q 155 1208 188 1173 q 96 1268 122 1243 l 96 1288 l 271 1288 q 337 1241 307 1265 q 403 1186 366 1218 q 471 1242 439 1218 q 538 1288 503 1267 l 711 1288 l 711 1268 q 655 1209 688 1244 q 591 1136 623 1174 q 537 1065 559 1097 l 271 1065 z "},"š":{"ha":718,"x_min":43,"x_max":663,"o":"m 663 236 q 630 106 663 163 q 526 18 597 50 q 338 -14 454 -14 q 191 -5 256 -14 q 60 29 126 4 l 60 241 q 208 194 132 208 q 326 179 283 179 q 392 189 371 179 q 412 218 412 199 q 398 247 412 235 q 349 275 385 259 q 249 317 313 290 q 143 374 185 343 q 79 449 100 406 q 58 555 58 492 q 145 725 58 668 q 375 782 232 782 q 518 765 451 782 q 657 717 585 749 l 585 546 q 469 587 528 572 q 376 603 411 603 q 328 595 345 603 q 311 571 311 587 q 323 546 311 557 q 368 521 335 535 q 465 481 401 507 q 576 423 532 454 q 641 348 620 392 q 663 236 663 304 m 218 842 q 167 911 198 873 q 103 984 136 949 q 43 1044 70 1019 l 43 1064 l 218 1064 q 284 1018 255 1041 q 351 962 314 994 q 418 1019 387 994 q 486 1064 450 1043 l 659 1064 l 659 1044 q 603 985 635 1021 q 538 912 570 950 q 485 842 507 873 l 218 842 z "},"Ț":{"ha":821,"x_min":35,"x_max":786,"o":"m 545 0 l 277 0 l 277 772 l 35 772 l 35 991 l 786 991 l 786 772 l 545 772 l 545 0 m 546 -85 l 546 -100 q 513 -170 530 -137 q 478 -236 497 -203 q 432 -307 458 -269 l 273 -307 l 273 -288 q 288 -221 281 -258 q 300 -148 295 -184 q 305 -85 304 -111 l 546 -85 z "},"ț":{"ha":639,"x_min":36,"x_max":596,"o":"m 468 196 q 534 203 504 196 q 596 222 564 211 l 596 29 q 504 -2 553 10 q 380 -14 456 -14 q 249 10 306 -14 q 160 91 192 33 q 129 253 129 149 l 129 570 l 36 570 l 36 677 l 154 761 l 222 922 l 396 922 l 396 768 l 585 768 l 585 570 l 396 570 l 396 271 q 415 215 396 233 q 468 196 434 196 m 502 -85 l 502 -100 q 469 -170 486 -137 q 434 -236 453 -203 q 388 -307 414 -269 l 229 -307 l 229 -288 q 244 -221 237 -258 q 256 -148 251 -184 q 261 -85 260 -111 l 502 -85 z "},"Ť":{"ha":821,"x_min":35,"x_max":786,"o":"m 545 0 l 277 0 l 277 772 l 35 772 l 35 991 l 786 991 l 786 772 l 545 772 l 545 0 m 281 1065 q 229 1135 260 1097 q 165 1208 198 1173 q 106 1268 132 1243 l 106 1288 l 281 1288 q 347 1241 317 1265 q 413 1186 376 1218 q 481 1242 449 1218 q 549 1288 513 1267 l 721 1288 l 721 1268 q 665 1209 698 1244 q 601 1136 633 1174 q 547 1065 569 1097 l 281 1065 z "},"ť":{"ha":639,"x_min":36,"x_max":878,"o":"m 468 196 q 534 203 504 196 q 596 222 564 211 l 596 29 q 504 -2 553 10 q 380 -14 456 -14 q 249 10 306 -14 q 160 91 192 33 q 129 253 129 149 l 129 570 l 36 570 l 36 677 l 154 761 l 222 922 l 396 922 l 396 768 l 585 768 l 585 570 l 396 570 l 396 271 q 415 215 396 233 q 468 196 434 196 m 878 1055 l 878 1040 q 841 975 859 1006 q 803 909 823 943 q 757 833 783 875 l 599 833 l 599 852 q 610 899 604 873 q 621 952 615 924 q 630 1006 626 979 q 637 1055 635 1033 l 878 1055 z "},"Ŧ":{"ha":821,"x_min":35,"x_max":786,"o":"m 277 0 l 277 371 l 136 371 l 136 591 l 277 591 l 277 772 l 35 772 l 35 991 l 786 991 l 786 772 l 545 772 l 545 591 l 688 591 l 688 371 l 545 371 l 545 0 l 277 0 z "},"ŧ":{"ha":667,"x_min":36,"x_max":596,"o":"m 50 301 l 50 467 l 561 467 l 561 301 l 50 301 m 468 196 q 534 203 504 196 q 596 222 564 211 l 596 29 q 504 -2 553 10 q 380 -14 456 -14 q 249 10 306 -14 q 160 91 192 33 q 129 253 129 149 l 129 570 l 36 570 l 36 677 l 154 761 l 222 922 l 396 922 l 396 768 l 585 768 l 585 570 l 396 570 l 396 271 q 415 215 396 233 q 468 196 434 196 z "},"Ũ":{"ha":1051,"x_min":102,"x_max":950,"o":"m 950 991 l 950 395 q 903 178 950 270 q 760 36 855 86 q 522 -14 665 -14 q 210 92 317 -14 q 102 389 102 197 l 102 991 l 371 991 l 371 410 q 410 257 371 304 q 526 210 450 210 q 616 230 581 210 q 666 296 650 251 q 682 411 682 340 l 682 991 l 950 991 m 239 1063 q 256 1171 243 1126 q 291 1242 269 1215 q 342 1282 312 1270 q 410 1295 372 1295 q 465 1285 435 1295 q 524 1262 494 1275 q 582 1239 553 1249 q 637 1230 611 1230 q 664 1241 650 1230 q 686 1296 679 1253 l 810 1296 q 755 1118 801 1171 q 643 1064 709 1064 q 582 1074 612 1064 q 521 1097 551 1084 q 463 1119 491 1109 q 410 1129 435 1129 q 383 1118 397 1129 q 361 1063 370 1107 l 239 1063 z "},"ũ":{"ha":930,"x_min":90,"x_max":839,"o":"m 839 768 l 839 0 l 639 0 l 606 96 l 590 96 q 530 33 566 57 q 450 -2 494 9 q 358 -14 406 -14 q 222 16 283 -14 q 126 107 161 45 q 90 268 90 170 l 90 768 l 355 768 l 355 349 q 377 235 355 274 q 447 196 398 196 q 525 223 497 196 q 563 303 552 250 q 574 432 574 356 l 574 768 l 839 768 m 178 839 q 195 947 182 903 q 230 1018 208 991 q 281 1058 251 1046 q 349 1071 311 1071 q 404 1061 374 1071 q 463 1038 433 1051 q 521 1016 492 1025 q 576 1006 550 1006 q 603 1017 589 1006 q 625 1072 618 1029 l 749 1072 q 694 894 740 947 q 582 840 648 840 q 520 850 551 840 q 460 873 490 860 q 402 896 430 886 q 349 905 374 905 q 322 895 336 905 q 300 839 309 884 l 178 839 z "},"Ū":{"ha":1051,"x_min":102,"x_max":950,"o":"m 950 991 l 950 395 q 903 178 950 270 q 760 36 855 86 q 522 -14 665 -14 q 210 92 317 -14 q 102 389 102 197 l 102 991 l 371 991 l 371 410 q 410 257 371 304 q 526 210 450 210 q 616 230 581 210 q 666 296 650 251 q 682 411 682 340 l 682 991 l 950 991 m 778 1225 l 778 1065 l 285 1065 l 285 1225 l 778 1225 z "},"ū":{"ha":930,"x_min":90,"x_max":839,"o":"m 839 768 l 839 0 l 639 0 l 606 96 l 590 96 q 530 33 566 57 q 450 -2 494 9 q 358 -14 406 -14 q 222 16 283 -14 q 126 107 161 45 q 90 268 90 170 l 90 768 l 355 768 l 355 349 q 377 235 355 274 q 447 196 398 196 q 525 223 497 196 q 563 303 552 250 q 574 432 574 356 l 574 768 l 839 768 m 717 1002 l 717 842 l 224 842 l 224 1002 l 717 1002 z "},"Ŭ":{"ha":1051,"x_min":102,"x_max":950,"o":"m 950 991 l 950 395 q 903 178 950 270 q 760 36 855 86 q 522 -14 665 -14 q 210 92 317 -14 q 102 389 102 197 l 102 991 l 371 991 l 371 410 q 410 257 371 304 q 526 210 450 210 q 616 230 581 210 q 666 296 650 251 q 682 411 682 340 l 682 991 l 950 991 m 804 1317 q 766 1185 800 1242 q 672 1097 732 1128 q 528 1065 612 1065 q 328 1133 395 1065 q 256 1317 261 1200 l 399 1317 q 424 1259 409 1278 q 465 1234 439 1240 q 528 1228 490 1228 q 583 1235 557 1228 q 627 1262 608 1242 q 656 1317 646 1281 l 804 1317 z "},"ŭ":{"ha":930,"x_min":90,"x_max":839,"o":"m 839 768 l 839 0 l 639 0 l 606 96 l 590 96 q 530 33 566 57 q 450 -2 494 9 q 358 -14 406 -14 q 222 16 283 -14 q 126 107 161 45 q 90 268 90 170 l 90 768 l 355 768 l 355 349 q 377 235 355 274 q 447 196 398 196 q 525 223 497 196 q 563 303 552 250 q 574 432 574 356 l 574 768 l 839 768 m 743 1093 q 705 961 739 1018 q 611 873 671 905 q 467 842 551 842 q 267 909 334 842 q 195 1093 200 977 l 338 1093 q 363 1036 348 1055 q 404 1010 378 1017 q 467 1004 429 1004 q 522 1011 496 1004 q 566 1038 547 1019 q 595 1093 585 1057 l 743 1093 z "},"Ů":{"ha":1051,"x_min":102,"x_max":950,"o":"m 950 991 l 950 395 q 903 178 950 270 q 760 36 855 86 q 522 -14 665 -14 q 210 92 317 -14 q 102 389 102 197 l 102 991 l 371 991 l 371 410 q 410 257 371 304 q 526 210 450 210 q 616 230 581 210 q 666 296 650 251 q 682 411 682 340 l 682 991 l 950 991 m 526 1063 q 397 1108 446 1063 q 347 1234 347 1154 q 397 1360 347 1314 q 526 1406 446 1406 q 657 1360 603 1406 q 711 1235 711 1314 q 657 1109 711 1155 q 526 1063 604 1063 m 526 1177 q 567 1193 550 1177 q 583 1234 583 1208 q 567 1275 583 1259 q 526 1291 550 1291 q 486 1275 503 1291 q 469 1234 469 1259 q 484 1193 469 1208 q 526 1177 498 1177 z "},"ů":{"ha":930,"x_min":90,"x_max":839,"o":"m 839 768 l 839 0 l 639 0 l 606 96 l 590 96 q 530 33 566 57 q 450 -2 494 9 q 358 -14 406 -14 q 222 16 283 -14 q 126 107 161 45 q 90 268 90 170 l 90 768 l 355 768 l 355 349 q 377 235 355 274 q 447 196 398 196 q 525 223 497 196 q 563 303 552 250 q 574 432 574 356 l 574 768 l 839 768 m 465 839 q 336 885 385 839 q 286 1010 286 930 q 336 1136 286 1090 q 465 1182 385 1182 q 596 1136 542 1182 q 650 1011 650 1090 q 596 885 650 931 q 465 839 543 839 m 465 953 q 506 969 489 953 q 522 1010 522 985 q 506 1051 522 1036 q 465 1067 489 1067 q 425 1051 441 1067 q 408 1010 408 1036 q 423 969 408 985 q 465 953 437 953 z "},"Ű":{"ha":1051,"x_min":102,"x_max":960,"o":"m 950 991 l 950 395 q 903 178 950 270 q 760 36 855 86 q 522 -14 665 -14 q 210 92 317 -14 q 102 389 102 197 l 102 991 l 371 991 l 371 410 q 410 257 371 304 q 526 210 450 210 q 616 230 581 210 q 666 296 650 251 q 682 411 682 340 l 682 991 l 950 991 m 960 1288 l 960 1274 q 918 1228 949 1255 q 848 1170 888 1200 q 770 1112 809 1139 q 705 1065 732 1084 l 567 1065 l 567 1085 q 613 1147 587 1112 q 665 1220 639 1183 q 707 1288 690 1257 l 960 1288 m 644 1288 l 644 1274 q 603 1228 633 1255 q 533 1170 572 1200 q 455 1112 494 1139 q 391 1065 417 1084 l 253 1065 l 253 1085 q 298 1147 273 1112 q 350 1220 324 1183 q 393 1288 376 1257 l 644 1288 z "},"ű":{"ha":930,"x_min":90,"x_max":899,"o":"m 839 768 l 839 0 l 639 0 l 606 96 l 590 96 q 530 33 566 57 q 450 -2 494 9 q 358 -14 406 -14 q 222 16 283 -14 q 126 107 161 45 q 90 268 90 170 l 90 768 l 355 768 l 355 349 q 377 235 355 274 q 447 196 398 196 q 525 223 497 196 q 563 303 552 250 q 574 432 574 356 l 574 768 l 839 768 m 899 1064 l 899 1050 q 857 1004 888 1031 q 787 946 827 977 q 709 888 748 916 q 644 842 671 860 l 506 842 l 506 861 q 552 923 526 888 q 604 996 578 959 q 646 1064 629 1033 l 899 1064 m 583 1064 l 583 1050 q 542 1004 572 1031 q 472 946 511 977 q 394 888 433 916 q 330 842 356 860 l 192 842 l 192 861 q 237 923 212 888 q 289 996 263 959 q 332 1064 315 1033 l 583 1064 z "},"Ų":{"ha":1051,"x_min":102,"x_max":950,"o":"m 721 -122 q 735 -169 721 -157 q 774 -180 750 -180 q 815 -176 791 -180 q 854 -165 840 -172 l 854 -315 q 803 -328 831 -322 q 736 -334 774 -334 q 603 -290 657 -334 q 549 -164 549 -246 q 563 -90 549 -129 q 611 -8 576 -52 q 707 82 645 35 l 859 115 q 785 27 817 66 q 738 -47 754 -12 q 721 -122 721 -82 m 950 991 l 950 395 q 903 178 950 270 q 760 36 855 86 q 522 -14 665 -14 q 210 92 317 -14 q 102 389 102 197 l 102 991 l 371 991 l 371 410 q 410 257 371 304 q 526 210 450 210 q 616 230 581 210 q 666 296 650 251 q 682 411 682 340 l 682 991 l 950 991 z "},"ų":{"ha":930,"x_min":90,"x_max":839,"o":"m 839 768 l 839 0 l 639 0 l 606 96 l 590 96 q 530 33 566 57 q 450 -2 494 9 q 358 -14 406 -14 q 222 16 283 -14 q 126 107 161 45 q 90 268 90 170 l 90 768 l 355 768 l 355 349 q 377 235 355 274 q 447 196 398 196 q 525 223 497 196 q 563 303 552 250 q 574 432 574 356 l 574 768 l 839 768 m 696 -135 q 710 -170 696 -160 q 749 -180 725 -180 q 790 -176 766 -180 q 829 -165 814 -172 l 829 -315 q 777 -328 806 -322 q 711 -334 749 -334 q 578 -291 632 -334 q 524 -176 524 -249 q 537 -112 524 -145 q 586 -43 551 -79 q 682 35 620 -7 l 786 0 q 718 -74 739 -45 q 696 -135 696 -103 z "},"Ŵ":{"ha":1443,"x_min":21,"x_max":1422,"o":"m 1422 991 l 1178 0 l 861 0 l 766 432 q 758 473 764 444 q 745 540 752 503 q 732 613 738 577 q 724 675 726 650 q 715 613 721 650 q 702 540 709 577 q 688 473 694 503 q 679 432 682 444 l 583 0 l 267 0 l 21 991 l 279 991 l 387 494 q 398 443 391 476 q 413 369 406 409 q 428 293 421 330 q 437 232 435 256 q 452 328 443 274 q 472 436 461 381 q 494 539 484 492 q 511 616 504 587 l 599 991 l 847 991 l 932 616 q 949 539 939 587 q 971 436 960 492 q 991 327 982 380 q 1006 232 1001 273 q 1019 318 1010 266 q 1039 419 1029 370 q 1054 493 1048 468 l 1164 991 l 1422 991 m 858 1288 q 911 1218 880 1256 q 976 1144 943 1179 q 1031 1085 1008 1109 l 1031 1065 l 859 1065 q 791 1111 823 1086 q 724 1167 760 1136 q 657 1112 687 1136 q 591 1065 628 1088 l 416 1065 l 416 1085 q 476 1145 443 1110 q 540 1218 509 1181 q 591 1288 571 1256 l 858 1288 z "},"ŵ":{"ha":1264,"x_min":17,"x_max":1247,"o":"m 753 0 l 672 336 q 660 395 666 362 q 648 461 654 428 q 638 522 642 494 q 632 566 634 550 l 628 566 q 621 522 626 550 q 610 460 616 494 q 597 391 604 426 q 583 326 590 356 l 505 0 l 227 0 l 17 768 l 278 768 l 340 473 q 354 396 347 441 q 367 304 361 351 q 375 221 373 258 l 379 221 q 386 285 380 249 q 397 357 391 321 q 409 421 404 393 q 416 458 414 448 l 488 768 l 781 768 l 846 454 q 860 387 852 428 q 874 301 867 346 q 885 221 882 257 l 889 221 q 897 306 892 258 q 910 398 903 353 q 924 473 917 444 l 991 768 l 1247 768 l 1036 0 l 753 0 m 768 1064 q 821 994 789 1032 q 886 920 853 956 q 941 861 918 885 l 941 842 l 769 842 q 701 887 733 863 q 633 943 669 912 q 567 888 597 912 q 501 842 538 865 l 326 842 l 326 861 q 386 922 353 886 q 450 995 418 957 q 501 1064 481 1032 l 768 1064 z "},"Ŷ":{"ha":922,"x_min":0,"x_max":922,"o":"m 461 624 l 632 991 l 922 991 l 596 387 l 596 0 l 326 0 l 326 379 l 0 991 l 292 991 l 461 624 m 597 1288 q 650 1218 618 1256 q 715 1144 682 1179 q 770 1085 747 1109 l 770 1065 l 598 1065 q 530 1111 562 1086 q 463 1167 498 1136 q 396 1112 426 1136 q 330 1065 367 1088 l 155 1065 l 155 1085 q 215 1145 182 1110 q 279 1218 248 1181 q 330 1288 310 1256 l 597 1288 z "},"ŷ":{"ha":847,"x_min":-1,"x_max":847,"o":"m -1 768 l 278 768 l 408 328 q 414 304 411 318 q 418 275 416 290 q 421 244 420 259 l 427 244 q 434 293 430 272 q 443 326 439 313 l 576 768 l 847 768 l 543 -49 q 461 -206 508 -142 q 347 -301 415 -269 q 178 -334 279 -334 q 115 -330 141 -334 q 69 -322 89 -326 l 69 -114 q 106 -119 84 -117 q 151 -122 127 -122 q 223 -104 195 -122 q 268 -58 250 -87 q 298 4 286 -29 l 301 11 l -1 768 m 559 1064 q 613 994 581 1032 q 677 920 645 956 q 733 861 710 885 l 733 842 l 561 842 q 493 887 525 863 q 425 943 461 912 q 359 888 389 912 q 293 842 330 865 l 118 842 l 118 861 q 177 922 144 886 q 241 995 210 957 q 293 1064 273 1032 l 559 1064 z "},"Ÿ":{"ha":922,"x_min":0,"x_max":922,"o":"m 461 624 l 632 991 l 922 991 l 596 387 l 596 0 l 326 0 l 326 379 l 0 991 l 292 991 l 461 624 m 182 1182 q 215 1263 182 1238 q 297 1289 248 1289 q 379 1263 344 1289 q 414 1182 414 1238 q 379 1102 414 1128 q 297 1076 344 1076 q 215 1102 248 1076 q 182 1182 182 1128 m 507 1182 q 540 1263 507 1238 q 623 1289 574 1289 q 706 1263 671 1289 q 741 1182 741 1238 q 706 1102 741 1128 q 623 1076 671 1076 q 540 1102 574 1076 q 507 1182 507 1128 z "},"Ź":{"ha":848,"x_min":41,"x_max":814,"o":"m 814 0 l 41 0 l 41 165 l 471 775 l 52 775 l 52 991 l 803 991 l 803 827 l 374 216 l 814 216 l 814 0 m 768 1288 l 768 1274 q 705 1226 743 1254 q 625 1167 667 1198 q 543 1110 583 1137 q 475 1065 503 1083 l 298 1065 l 298 1085 q 355 1146 322 1111 q 422 1219 389 1182 q 477 1288 455 1257 l 768 1288 z "},"ź":{"ha":704,"x_min":33,"x_max":683,"o":"m 669 0 l 33 0 l 33 151 l 351 566 l 52 566 l 52 768 l 654 768 l 654 604 l 350 203 l 669 203 l 669 0 m 683 1064 l 683 1050 q 621 1002 659 1030 q 540 944 583 974 q 458 886 498 913 q 390 842 418 859 l 214 842 l 214 861 q 271 923 237 887 q 337 996 304 958 q 393 1064 370 1033 l 683 1064 z "},"Ż":{"ha":848,"x_min":41,"x_max":814,"o":"m 814 0 l 41 0 l 41 165 l 471 775 l 52 775 l 52 991 l 803 991 l 803 827 l 374 216 l 814 216 l 814 0 m 439 1301 q 538 1278 496 1301 q 581 1183 581 1254 q 538 1091 581 1115 q 439 1067 496 1067 q 339 1091 380 1067 q 298 1183 298 1115 q 339 1278 298 1254 q 439 1301 380 1301 z "},"ż":{"ha":704,"x_min":33,"x_max":669,"o":"m 669 0 l 33 0 l 33 151 l 351 566 l 52 566 l 52 768 l 654 768 l 654 604 l 350 203 l 669 203 l 669 0 m 354 1078 q 453 1054 411 1078 q 496 960 496 1030 q 453 867 496 891 q 354 843 411 843 q 255 867 296 843 q 214 960 214 891 q 255 1054 214 1030 q 354 1078 296 1078 z "},"Ž":{"ha":848,"x_min":41,"x_max":814,"o":"m 814 0 l 41 0 l 41 165 l 471 775 l 52 775 l 52 991 l 803 991 l 803 827 l 374 216 l 814 216 l 814 0 m 307 1065 q 256 1135 287 1097 q 192 1208 224 1173 q 132 1268 159 1243 l 132 1288 l 307 1288 q 373 1241 344 1265 q 439 1186 403 1218 q 507 1242 475 1218 q 575 1288 539 1267 l 747 1288 l 747 1268 q 692 1209 724 1244 q 627 1136 659 1174 q 574 1065 595 1097 l 307 1065 z "},"ž":{"ha":704,"x_min":33,"x_max":669,"o":"m 669 0 l 33 0 l 33 151 l 351 566 l 52 566 l 52 768 l 654 768 l 654 604 l 350 203 l 669 203 l 669 0 m 222 842 q 171 911 202 873 q 107 984 140 949 q 47 1044 74 1019 l 47 1064 l 222 1064 q 289 1018 259 1041 q 355 962 318 994 q 422 1019 391 994 q 490 1064 454 1043 l 663 1064 l 663 1044 q 607 985 640 1021 q 543 912 574 950 q 489 842 511 873 l 222 842 z "},"ſ":{"ha":559,"x_min":92,"x_max":587,"o":"m 431 872 q 371 847 386 872 q 357 771 357 822 l 357 0 l 92 0 l 92 777 q 126 958 92 897 q 224 1041 161 1019 q 374 1063 288 1063 q 499 1052 446 1063 q 587 1026 552 1041 l 536 850 q 487 865 511 857 q 431 872 462 872 z "},"ƒ":{"ha":771,"x_min":94,"x_max":713,"o":"m 492 1063 q 609 1052 550 1063 q 713 1026 667 1042 l 661 851 q 614 863 637 859 q 567 868 590 868 q 515 846 532 868 q 498 771 498 823 l 498 768 l 672 768 l 672 570 l 498 570 l 498 -57 q 469 -206 498 -144 q 382 -301 439 -268 q 240 -334 324 -334 q 162 -328 204 -334 q 94 -314 119 -322 l 94 -110 q 131 -119 115 -116 q 170 -122 146 -122 q 217 -97 201 -122 q 233 -25 233 -73 l 233 570 l 132 570 l 132 700 l 239 765 l 239 790 q 266 949 239 889 q 348 1036 292 1008 q 492 1063 404 1063 z "},"Ǻ":{"ha":1006,"x_min":0,"x_max":1008,"o":"m 0 0 l 328 953 q 323 978 325 964 q 322 1004 322 991 q 372 1131 322 1084 q 501 1177 421 1177 q 632 1131 578 1177 q 686 1006 686 1084 q 684 977 686 991 q 677 950 682 962 l 1008 0 l 715 0 l 663 186 l 345 186 l 294 0 l 0 0 m 404 408 l 607 408 l 564 550 q 544 617 555 576 q 522 701 532 658 q 504 778 511 744 q 492 723 499 753 q 477 663 486 694 q 461 603 469 632 q 446 550 453 574 l 404 408 m 501 947 q 542 963 525 947 q 558 1004 558 979 q 542 1046 558 1030 q 501 1061 525 1061 q 461 1046 477 1061 q 444 1004 444 1030 q 459 963 444 979 q 501 947 473 947 m 387 1214 l 387 1231 q 429 1261 407 1244 q 471 1296 450 1278 q 505 1331 491 1314 l 798 1331 l 798 1317 q 758 1293 787 1307 q 694 1263 730 1278 q 623 1235 658 1248 q 564 1214 588 1221 l 387 1214 z "},"ǻ":{"ha":865,"x_min":50,"x_max":777,"o":"m 467 782 q 694 710 612 782 q 777 504 777 637 l 777 0 l 593 0 l 542 102 l 536 102 q 470 36 504 61 q 391 -2 435 10 q 283 -14 347 -14 q 164 14 217 -14 q 81 97 111 41 q 50 239 50 153 q 133 424 50 367 q 383 485 216 480 l 511 489 l 511 500 q 486 573 511 551 q 418 595 460 595 q 316 579 372 595 q 204 538 260 563 l 127 713 q 278 764 194 747 q 467 782 362 782 m 513 343 l 452 340 q 350 312 378 338 q 321 244 321 286 q 341 189 321 205 q 396 174 361 174 q 478 204 444 174 q 513 283 513 235 l 513 343 m 443 1046 q 402 1030 419 1046 q 386 989 386 1015 q 400 948 386 964 q 443 932 415 932 q 483 948 467 932 q 500 989 500 964 q 483 1030 500 1015 q 443 1046 467 1046 m 443 1161 q 536 1140 494 1161 q 603 1081 578 1120 q 628 990 628 1043 q 574 864 628 910 q 443 818 520 818 q 313 864 363 818 q 264 989 264 910 q 313 1115 264 1069 q 443 1161 363 1161 m 699 1339 l 699 1331 q 645 1290 684 1315 q 562 1239 606 1264 q 486 1197 517 1213 l 314 1197 l 314 1208 q 355 1249 334 1226 q 397 1295 377 1272 q 432 1339 418 1319 l 699 1339 z "},"Ǽ":{"ha":1314,"x_min":-7,"x_max":1247,"o":"m 1247 0 l 657 0 l 657 186 l 361 186 l 293 0 l -7 0 l 419 991 l 1247 991 l 1247 777 l 926 777 l 926 621 l 1223 621 l 1223 406 l 926 406 l 926 218 l 1247 218 l 1247 0 m 443 408 l 657 408 l 657 765 l 582 765 l 443 408 m 1064 1288 l 1064 1274 q 1002 1226 1040 1254 q 921 1167 964 1198 q 839 1110 879 1137 q 771 1065 800 1083 l 595 1065 l 595 1085 q 652 1146 618 1111 q 718 1219 685 1182 q 774 1288 751 1257 l 1064 1288 z "},"ǽ":{"ha":1299,"x_min":50,"x_max":1240,"o":"m 907 782 q 1080 743 1004 782 q 1198 626 1155 704 q 1240 429 1240 547 l 1240 313 l 768 313 q 815 216 772 256 q 945 175 859 175 q 1062 188 998 175 q 1192 233 1126 200 l 1192 43 q 1072 0 1136 14 q 909 -14 1008 -14 q 798 0 851 -14 q 699 42 744 14 q 618 115 653 71 q 529 38 571 66 q 432 -2 486 10 q 294 -14 378 -14 q 175 14 231 -14 q 85 97 119 41 q 50 239 50 153 q 92 377 50 324 q 210 456 134 430 q 387 485 286 481 l 511 489 l 511 501 q 484 576 511 557 q 419 595 456 595 q 317 580 374 595 q 207 541 261 566 l 132 714 q 277 765 198 748 q 440 782 356 782 q 564 766 506 782 q 668 718 621 750 q 772 767 716 751 q 907 782 828 782 m 513 343 l 456 340 q 349 312 378 338 q 321 241 321 286 q 342 189 321 204 q 397 174 363 174 q 455 188 429 174 q 497 226 481 201 q 513 283 513 251 l 513 343 m 892 602 q 810 574 843 602 q 772 479 778 547 l 1003 479 q 989 541 1002 513 q 952 585 977 568 q 892 602 927 602 m 998 1064 l 998 1050 q 936 1002 974 1030 q 856 944 898 974 q 773 886 813 913 q 705 842 734 859 l 529 842 l 529 861 q 586 923 553 887 q 652 996 619 958 q 708 1064 686 1033 l 998 1064 z "},"Ǿ":{"ha":1107,"x_min":71,"x_max":1035,"o":"m 1035 497 q 1007 289 1035 382 q 922 127 980 195 q 772 23 863 59 q 553 -14 680 -14 q 441 -6 493 -14 q 345 16 389 1 l 288 -74 l 157 11 l 214 96 q 105 266 140 163 q 71 498 71 368 q 122 767 71 653 q 280 944 173 882 q 554 1007 387 1007 q 676 998 620 1007 q 778 970 732 988 l 829 1050 l 958 972 l 903 888 q 1003 721 971 821 q 1035 497 1035 621 m 753 497 q 750 575 753 539 q 741 640 747 611 l 473 220 q 511 212 490 215 q 553 210 531 210 q 670 244 627 210 q 733 343 714 279 q 753 497 753 408 m 353 497 q 357 409 353 450 q 372 335 361 368 l 646 768 q 603 782 626 777 q 554 787 579 787 q 437 752 481 787 q 373 652 393 717 q 353 497 353 587 m 889 1288 l 889 1274 q 827 1226 865 1254 q 746 1167 789 1198 q 664 1110 704 1137 q 596 1065 625 1083 l 420 1065 l 420 1085 q 477 1146 444 1111 q 543 1219 510 1182 q 599 1288 576 1257 l 889 1288 z "},"ǿ":{"ha":924,"x_min":58,"x_max":864,"o":"m 864 386 q 815 169 864 258 q 676 33 767 79 q 460 -14 586 -14 q 379 -7 418 -14 q 304 9 340 -1 l 248 -79 l 132 -7 l 186 77 q 92 205 126 127 q 58 386 58 283 q 166 679 58 576 q 464 782 274 782 q 547 775 507 782 q 623 755 587 768 l 671 831 l 785 760 l 739 689 q 831 563 798 640 q 864 386 864 486 m 313 386 q 314 332 313 357 q 321 286 316 308 l 517 590 q 490 597 504 595 q 461 599 477 599 q 346 545 379 599 q 313 386 313 491 m 610 386 q 608 434 610 411 q 603 475 607 456 l 411 175 q 435 171 422 172 q 463 170 448 170 q 551 194 519 170 q 596 267 583 218 q 610 386 610 315 m 794 1064 l 794 1050 q 732 1002 770 1030 q 651 944 694 974 q 569 886 609 913 q 501 842 530 859 l 325 842 l 325 861 q 382 923 349 887 q 448 996 415 958 q 504 1064 481 1033 l 794 1064 z "},"Ș":{"ha":802,"x_min":61,"x_max":755,"o":"m 755 301 q 715 148 755 220 q 588 31 674 76 q 367 -14 503 -14 q 248 -7 299 -14 q 153 13 197 -1 q 61 49 109 26 l 61 288 q 224 225 142 247 q 372 204 306 204 q 438 214 412 204 q 475 240 463 223 q 488 278 488 256 q 470 322 488 304 q 412 359 452 340 q 309 408 373 379 q 209 461 254 434 q 133 523 165 488 q 85 605 102 558 q 68 715 68 652 q 115 876 68 811 q 247 973 162 941 q 441 1006 331 1006 q 616 984 538 1006 q 755 935 694 962 l 673 728 q 548 774 610 757 q 433 791 486 791 q 377 783 399 791 q 344 760 355 774 q 334 728 334 746 q 352 686 334 705 q 412 647 370 668 q 528 591 454 625 q 651 521 600 559 q 729 431 702 484 q 755 301 755 378 m 536 -85 l 536 -100 q 504 -170 520 -137 q 468 -236 488 -203 q 422 -307 449 -269 l 264 -307 l 264 -288 q 279 -221 272 -258 q 290 -148 286 -184 q 296 -85 295 -111 l 536 -85 z "},"ș":{"ha":718,"x_min":58,"x_max":663,"o":"m 663 236 q 630 106 663 163 q 526 18 597 50 q 338 -14 454 -14 q 191 -5 256 -14 q 60 29 126 4 l 60 241 q 208 194 132 208 q 326 179 283 179 q 392 189 371 179 q 412 218 412 199 q 398 247 412 235 q 349 275 385 259 q 249 317 313 290 q 143 374 185 343 q 79 449 100 406 q 58 555 58 492 q 145 725 58 668 q 375 782 232 782 q 518 765 451 782 q 657 717 585 749 l 585 546 q 469 587 528 572 q 376 603 411 603 q 328 595 345 603 q 311 571 311 587 q 323 546 311 557 q 368 521 335 535 q 465 481 401 507 q 576 423 532 454 q 641 348 620 392 q 663 236 663 304 m 484 -85 l 484 -100 q 451 -170 467 -137 q 415 -236 435 -203 q 370 -307 396 -269 l 211 -307 l 211 -288 q 226 -221 219 -258 q 237 -148 233 -184 q 243 -85 242 -111 l 484 -85 z "},"ˆ":{"ha":726,"x_min":56,"x_max":671,"o":"m 497 1064 q 551 994 519 1032 q 615 920 583 956 q 671 861 648 885 l 671 842 l 498 842 q 431 887 463 863 q 363 943 399 912 q 297 888 326 912 q 231 842 267 865 l 56 842 l 56 861 q 115 922 82 886 q 179 995 148 957 q 231 1064 210 1032 l 497 1064 z "},"ˇ":{"ha":726,"x_min":56,"x_max":671,"o":"m 231 842 q 179 911 210 873 q 115 984 148 949 q 56 1044 82 1019 l 56 1064 l 231 1064 q 297 1018 267 1041 q 363 962 326 994 q 431 1019 399 994 q 498 1064 463 1043 l 671 1064 l 671 1044 q 615 985 648 1021 q 551 912 583 950 q 497 842 519 873 l 231 842 z "},"ˉ":{"ha":604,"x_min":56,"x_max":549,"o":"m 549 1002 l 549 842 l 56 842 l 56 1002 l 549 1002 z "},"˘":{"ha":660,"x_min":56,"x_max":604,"o":"m 604 1093 q 566 961 600 1018 q 472 873 532 905 q 328 842 412 842 q 128 909 195 842 q 56 1093 61 977 l 199 1093 q 224 1036 209 1055 q 264 1010 239 1017 q 328 1004 290 1004 q 383 1011 357 1004 q 427 1038 408 1019 q 456 1093 446 1057 l 604 1093 z "},"˙":{"ha":393,"x_min":56,"x_max":338,"o":"m 196 1078 q 295 1054 253 1078 q 338 960 338 1030 q 295 867 338 891 q 196 843 253 843 q 97 867 138 843 q 56 960 56 891 q 97 1054 56 1030 q 196 1078 138 1078 z "},"˚":{"ha":475,"x_min":56,"x_max":419,"o":"m 235 839 q 105 885 155 839 q 56 1010 56 930 q 105 1136 56 1090 q 235 1182 155 1182 q 365 1136 311 1182 q 419 1011 419 1090 q 366 885 419 931 q 235 839 312 839 m 235 953 q 275 969 258 953 q 292 1010 292 985 q 275 1051 292 1036 q 235 1067 258 1067 q 194 1051 211 1067 q 178 1010 178 1036 q 192 969 178 985 q 235 953 207 953 z "},"˛":{"ha":416,"x_min":56,"x_max":361,"o":"m 228 -135 q 242 -170 228 -160 q 281 -180 257 -180 q 322 -176 298 -180 q 361 -165 347 -172 l 361 -315 q 309 -328 338 -322 q 243 -334 281 -334 q 110 -291 164 -334 q 56 -176 56 -249 q 70 -112 56 -145 q 118 -43 83 -79 q 214 35 152 -7 l 318 0 q 250 -74 271 -45 q 228 -135 228 -103 z "},"˜":{"ha":682,"x_min":56,"x_max":627,"o":"m 56 839 q 73 947 60 903 q 107 1018 86 991 q 159 1058 129 1046 q 227 1071 189 1071 q 281 1061 252 1071 q 340 1038 311 1051 q 399 1016 370 1025 q 454 1006 428 1006 q 481 1017 467 1006 q 503 1072 496 1029 l 627 1072 q 572 894 618 947 q 460 840 526 840 q 398 850 429 840 q 338 873 368 860 q 280 896 308 886 q 227 905 252 905 q 200 895 214 905 q 178 839 186 884 l 56 839 z "},"˝":{"ha":818,"x_min":56,"x_max":762,"o":"m 762 1064 l 762 1050 q 721 1004 751 1031 q 651 946 690 977 q 573 888 612 916 q 507 842 534 860 l 370 842 l 370 861 q 415 923 389 888 q 467 996 441 959 q 510 1064 493 1033 l 762 1064 m 447 1064 l 447 1050 q 406 1004 436 1031 q 336 946 375 977 q 258 888 296 916 q 193 842 220 860 l 56 842 l 56 861 q 101 923 75 888 q 153 996 127 959 q 196 1064 178 1033 l 447 1064 z "},"΄":{"ha":751,"x_min":275,"x_max":559,"o":"m 275 842 l 275 864 q 290 918 282 888 q 304 982 297 949 q 317 1047 311 1015 q 326 1104 323 1079 l 559 1104 l 559 1086 q 522 1008 542 1047 q 479 928 502 968 q 428 842 456 887 l 275 842 z "},"΅":{"ha":785,"x_min":78,"x_max":707,"o":"m 547 1164 l 547 1150 q 516 1085 534 1119 q 476 1016 498 1052 q 429 942 454 980 l 313 942 l 313 961 q 323 1024 317 987 q 334 1098 329 1061 q 339 1164 338 1135 l 547 1164 m 182 1065 q 258 1040 229 1065 q 288 958 288 1014 q 258 879 288 905 q 182 852 229 852 q 105 879 133 852 q 78 958 78 905 q 105 1040 78 1014 q 182 1065 133 1065 m 602 1065 q 678 1040 650 1065 q 707 958 707 1014 q 678 879 707 905 q 602 852 650 852 q 523 879 551 852 q 494 958 494 905 q 523 1040 494 1014 q 602 1065 551 1065 z "},"Ά":{"ha":1064,"x_min":10,"x_max":1064,"o":"m 771 0 l 722 186 l 400 186 l 350 0 l 56 0 l 379 996 l 736 996 l 1064 0 l 771 0 m 667 406 l 624 568 q 604 644 617 595 q 579 746 591 693 q 559 832 566 798 q 542 748 553 798 q 519 650 531 699 q 498 568 507 601 l 456 406 l 667 406 m 10 783 l 10 806 q 24 860 17 829 q 39 924 32 890 q 52 989 45 957 q 61 1046 58 1021 l 294 1046 l 294 1028 q 257 949 277 989 q 214 869 237 910 q 163 783 191 829 l 10 783 z "},"·":{"ha":401,"x_min":58,"x_max":342,"o":"m 58 647 q 101 748 58 719 q 203 777 143 777 q 300 748 259 777 q 342 647 342 719 q 300 548 342 578 q 203 517 259 517 q 101 548 143 517 q 58 647 58 578 z "},"Έ":{"ha":957,"x_min":-9,"x_max":890,"o":"m 890 0 l 302 0 l 302 991 l 890 991 l 890 777 l 570 777 l 570 621 l 867 621 l 867 406 l 570 406 l 570 218 l 890 218 l 890 0 m -9 783 l -9 806 q 5 860 -3 829 q 19 924 12 890 q 32 989 26 957 q 41 1046 38 1021 l 275 1046 l 275 1028 q 237 949 257 989 q 194 869 217 910 q 143 783 171 829 l -9 783 z "},"Ή":{"ha":1258,"x_min":-9,"x_max":1152,"o":"m 1152 0 l 882 0 l 882 404 l 571 404 l 571 0 l 302 0 l 302 991 l 571 991 l 571 624 l 882 624 l 882 991 l 1152 991 l 1152 0 m -9 783 l -9 806 q 5 860 -3 829 q 19 924 12 890 q 32 989 26 957 q 41 1046 38 1021 l 275 1046 l 275 1028 q 237 949 257 989 q 194 869 217 910 q 143 783 171 829 l -9 783 z "},"Ί":{"ha":685,"x_min":-9,"x_max":578,"o":"m 309 0 l 309 991 l 578 991 l 578 0 l 309 0 m -9 783 l -9 806 q 5 860 -3 829 q 19 924 12 890 q 32 989 26 957 q 41 1046 38 1021 l 275 1046 l 275 1028 q 237 949 257 989 q 194 869 217 910 q 143 783 171 829 l -9 783 z "},"Ό":{"ha":1211,"x_min":-9,"x_max":1139,"o":"m 1139 497 q 1112 289 1139 382 q 1026 127 1084 195 q 876 23 968 59 q 657 -14 785 -14 q 441 23 532 -14 q 291 126 350 59 q 203 288 232 194 q 175 498 175 382 q 226 767 175 653 q 385 944 277 882 q 659 1007 492 1007 q 934 944 828 1007 q 1090 766 1040 881 q 1139 497 1139 652 m 457 497 q 477 343 457 408 q 542 244 498 279 q 657 210 586 210 q 775 244 731 210 q 838 343 819 279 q 857 497 857 408 q 812 709 857 631 q 659 787 768 787 q 542 752 586 787 q 477 652 497 717 q 457 497 457 587 m -9 783 l -9 806 q 5 860 -3 829 q 19 924 12 890 q 32 989 26 957 q 41 1046 38 1021 l 275 1046 l 275 1028 q 237 949 257 989 q 194 869 217 910 q 143 783 171 829 l -9 783 z "},"Ύ":{"ha":1204,"x_min":-9,"x_max":1204,"o":"m 743 624 l 914 991 l 1204 991 l 878 387 l 878 0 l 608 0 l 608 379 l 282 991 l 574 991 l 743 624 m -9 783 l -9 806 q 5 860 -3 829 q 19 924 12 890 q 32 989 26 957 q 41 1046 38 1021 l 275 1046 l 275 1028 q 237 949 257 989 q 194 869 217 910 q 143 783 171 829 l -9 783 z "},"Ώ":{"ha":1225,"x_min":-9,"x_max":1192,"o":"m 672 787 q 568 761 615 787 q 492 680 520 734 q 464 541 464 625 q 478 416 464 469 q 523 322 492 363 q 608 248 555 281 l 608 0 l 153 0 l 153 220 l 406 220 q 284 314 333 255 q 212 443 236 372 q 189 586 189 514 q 249 812 189 718 q 418 957 309 907 q 672 1007 527 1007 q 925 957 816 1007 q 1095 812 1034 906 q 1156 587 1156 718 q 1132 444 1156 513 q 1060 317 1109 374 q 933 220 1010 259 l 1192 220 l 1192 0 l 732 0 l 732 248 q 821 324 788 283 q 867 419 853 366 q 880 543 880 473 q 852 681 880 627 q 777 761 824 735 q 672 787 729 787 m -9 783 l -9 806 q 5 860 -3 829 q 19 924 12 890 q 32 989 26 957 q 41 1046 38 1021 l 275 1046 l 275 1028 q 237 949 257 989 q 194 869 217 910 q 143 783 171 829 l -9 783 z "},"ΐ":{"ha":604,"x_min":-77,"x_max":576,"o":"m 355 768 l 355 264 q 380 208 355 221 q 435 195 405 195 q 504 202 473 195 q 576 224 535 209 l 576 29 q 485 -2 537 10 q 367 -14 433 -14 q 226 9 289 -14 q 127 90 163 33 q 90 252 90 148 l 90 768 l 355 768 m 392 1164 l 392 1150 q 361 1085 379 1119 q 321 1016 343 1052 q 274 942 299 980 l 157 942 l 157 961 q 168 1024 162 987 q 178 1098 174 1061 q 184 1164 183 1135 l 392 1164 m 26 1065 q 103 1040 73 1065 q 132 958 132 1014 q 103 879 132 905 q 26 852 73 852 q -50 879 -22 852 q -77 958 -77 905 q -50 1040 -77 1014 q 26 1065 -22 1065 m 446 1065 q 523 1040 494 1065 q 551 958 551 1014 q 523 879 551 905 q 446 852 494 852 q 368 879 396 852 q 339 958 339 905 q 368 1040 339 1014 q 446 1065 396 1065 z "},"Α":{"ha":1008,"x_min":0,"x_max":1008,"o":"m 715 0 l 667 186 l 345 186 l 294 0 l 0 0 l 323 996 l 681 996 l 1008 0 l 715 0 m 611 406 l 568 568 q 549 644 562 595 q 523 746 536 693 q 504 832 511 798 q 487 748 498 798 q 464 650 475 699 q 443 568 452 601 l 400 406 l 611 406 z "},"Β":{"ha":936,"x_min":107,"x_max":871,"o":"m 107 991 l 453 991 q 760 928 668 991 q 851 745 851 864 q 828 634 851 680 q 769 562 804 589 q 696 526 733 536 l 696 519 q 777 486 736 509 q 844 416 817 463 q 871 290 871 370 q 825 135 871 200 q 694 35 779 70 q 493 0 610 0 l 107 0 l 107 991 m 375 611 l 456 611 q 549 638 522 611 q 576 705 576 666 q 546 767 576 746 q 450 789 515 789 l 375 789 l 375 611 m 375 415 l 375 207 l 469 207 q 567 237 539 207 q 595 313 595 267 q 583 362 595 339 q 543 400 571 386 q 464 415 514 415 l 375 415 z "},"Γ":{"ha":803,"x_min":107,"x_max":768,"o":"m 768 991 l 768 775 l 376 775 l 376 0 l 107 0 l 107 991 l 768 991 z "},"Δ":{"ha":981,"x_min":22,"x_max":958,"o":"m 650 999 l 958 150 l 958 0 l 22 0 l 22 151 l 334 999 l 650 999 m 667 220 l 513 690 q 504 719 509 703 q 496 752 500 734 q 490 787 493 770 q 484 752 488 770 q 476 718 480 734 q 469 690 473 703 l 315 220 l 667 220 z "},"Ε":{"ha":762,"x_min":107,"x_max":696,"o":"m 696 0 l 107 0 l 107 991 l 696 991 l 696 777 l 375 777 l 375 621 l 672 621 l 672 406 l 375 406 l 375 218 l 696 218 l 696 0 z "},"Ζ":{"ha":848,"x_min":41,"x_max":814,"o":"m 814 0 l 41 0 l 41 165 l 471 775 l 52 775 l 52 991 l 803 991 l 803 827 l 374 216 l 814 216 l 814 0 z "},"Η":{"ha":1064,"x_min":107,"x_max":957,"o":"m 957 0 l 688 0 l 688 404 l 376 404 l 376 0 l 107 0 l 107 991 l 376 991 l 376 624 l 688 624 l 688 991 l 957 991 l 957 0 z "},"Θ":{"ha":1107,"x_min":71,"x_max":1035,"o":"m 693 606 l 693 403 l 414 403 l 414 606 l 693 606 m 1035 497 q 1007 289 1035 382 q 922 127 980 195 q 772 23 863 59 q 553 -14 680 -14 q 337 23 428 -14 q 186 126 245 59 q 99 288 127 194 q 71 498 71 382 q 122 767 71 653 q 280 944 173 882 q 554 1007 387 1007 q 830 944 724 1007 q 985 766 936 881 q 1035 497 1035 652 m 353 497 q 373 343 353 408 q 437 244 393 279 q 553 210 481 210 q 670 244 627 210 q 733 343 714 279 q 753 497 753 408 q 708 709 753 631 q 554 787 663 787 q 437 752 481 787 q 373 652 393 717 q 353 497 353 587 z "},"Ι":{"ha":484,"x_min":107,"x_max":376,"o":"m 107 0 l 107 991 l 376 991 l 376 0 l 107 0 z "},"Κ":{"ha":954,"x_min":107,"x_max":960,"o":"m 954 0 l 652 0 l 456 379 l 376 332 l 376 0 l 107 0 l 107 991 l 376 991 l 376 561 q 415 626 393 593 q 458 688 437 659 l 667 991 l 960 991 l 647 547 l 954 0 z "},"Λ":{"ha":964,"x_min":0,"x_max":964,"o":"m 640 991 l 964 0 l 663 0 l 528 503 q 511 575 521 531 q 493 664 501 620 q 482 736 484 709 q 472 665 479 709 q 455 577 465 621 q 437 505 446 534 l 300 0 l 0 0 l 325 991 l 640 991 z "},"Μ":{"ha":1343,"x_min":107,"x_max":1236,"o":"m 539 0 l 336 714 l 330 714 q 336 639 333 686 q 342 536 339 591 q 345 431 345 481 l 345 0 l 107 0 l 107 991 l 464 991 l 671 288 l 676 288 l 879 991 l 1236 991 l 1236 0 l 990 0 l 990 435 q 992 535 990 481 q 996 637 994 589 q 1000 713 998 685 l 994 713 l 794 0 l 539 0 z "},"Ν":{"ha":1158,"x_min":107,"x_max":1051,"o":"m 1051 0 l 700 0 l 338 699 l 332 699 q 338 622 335 667 q 342 531 340 577 q 345 447 345 484 l 345 0 l 107 0 l 107 991 l 457 991 l 818 302 l 822 302 q 818 378 820 335 q 814 465 816 421 q 812 543 812 509 l 812 991 l 1051 991 l 1051 0 z "},"Ξ":{"ha":798,"x_min":54,"x_max":743,"o":"m 54 0 l 54 218 l 743 218 l 743 0 l 54 0 m 138 406 l 138 621 l 660 621 l 660 406 l 138 406 m 82 777 l 82 991 l 715 991 l 715 777 l 82 777 z "},"Ο":{"ha":1107,"x_min":71,"x_max":1035,"o":"m 1035 497 q 1007 289 1035 382 q 922 127 980 195 q 772 23 863 59 q 553 -14 680 -14 q 337 23 428 -14 q 186 126 245 59 q 99 288 127 194 q 71 498 71 382 q 122 767 71 653 q 280 944 173 882 q 554 1007 387 1007 q 830 944 724 1007 q 985 766 936 881 q 1035 497 1035 652 m 353 497 q 373 343 353 408 q 437 244 393 279 q 553 210 481 210 q 670 244 627 210 q 733 343 714 279 q 753 497 753 408 q 708 709 753 631 q 554 787 663 787 q 437 752 481 787 q 373 652 393 717 q 353 497 353 587 z "},"Π":{"ha":1026,"x_min":107,"x_max":920,"o":"m 107 0 l 107 991 l 920 991 l 920 0 l 650 0 l 650 772 l 376 772 l 376 0 l 107 0 z "},"Ρ":{"ha":878,"x_min":107,"x_max":827,"o":"m 450 991 q 733 909 639 991 q 827 676 827 827 q 807 546 827 608 q 744 435 788 484 q 628 357 701 386 q 450 329 556 329 l 375 329 l 375 0 l 107 0 l 107 991 l 450 991 m 444 775 l 375 775 l 375 547 l 428 547 q 492 559 463 547 q 540 598 522 571 q 558 669 558 625 q 530 746 558 716 q 444 775 503 775 z "},"Σ":{"ha":836,"x_min":50,"x_max":785,"o":"m 50 0 l 50 208 l 351 521 l 58 790 l 58 991 l 745 991 l 745 777 l 517 777 q 463 777 489 777 q 411 779 437 777 q 357 783 385 780 l 643 522 l 342 210 q 425 216 387 214 q 513 218 463 218 l 785 218 l 785 0 l 50 0 z "},"Τ":{"ha":821,"x_min":35,"x_max":786,"o":"m 545 0 l 277 0 l 277 772 l 35 772 l 35 991 l 786 991 l 786 772 l 545 772 l 545 0 z "},"Υ":{"ha":922,"x_min":0,"x_max":922,"o":"m 461 624 l 632 991 l 922 991 l 596 387 l 596 0 l 326 0 l 326 379 l 0 991 l 292 991 l 461 624 z "},"Φ":{"ha":1242,"x_min":52,"x_max":1190,"o":"m 750 1006 l 750 884 q 1004 832 907 884 q 1145 695 1101 780 q 1190 513 1190 610 q 1166 371 1190 438 q 1090 252 1143 304 q 954 169 1038 199 q 750 139 870 139 l 750 -14 l 492 -14 l 492 139 q 286 168 370 139 q 150 248 201 197 q 75 367 98 299 q 52 514 52 435 q 74 650 52 584 q 147 768 96 715 q 283 852 198 821 q 492 884 368 884 l 492 1006 l 750 1006 m 492 679 q 381 655 420 679 q 327 595 342 632 q 313 514 313 557 q 326 426 313 465 q 378 365 339 387 q 492 342 416 342 l 492 679 m 750 679 l 750 342 q 862 365 823 342 q 915 426 901 387 q 929 514 929 465 q 913 596 929 559 q 858 656 897 633 q 750 679 819 679 z "},"Χ":{"ha":1004,"x_min":3,"x_max":1000,"o":"m 1000 0 l 690 0 l 497 310 l 306 0 l 3 0 l 332 507 l 22 991 l 319 991 l 498 685 l 671 991 l 977 991 l 663 486 l 1000 0 z "},"Ψ":{"ha":1292,"x_min":77,"x_max":1215,"o":"m 1215 991 l 1215 668 q 1192 489 1215 564 q 1117 367 1168 414 q 981 296 1065 319 q 775 269 897 273 l 775 0 l 517 0 l 517 269 q 311 294 395 273 q 175 359 227 315 q 100 474 123 403 q 77 650 77 546 l 77 991 l 340 991 l 340 653 q 359 555 340 591 q 416 505 377 519 q 517 490 455 490 l 517 991 l 775 991 l 775 490 q 870 506 830 490 q 930 556 909 522 q 951 650 951 591 l 951 991 l 1215 991 z "},"Ω":{"ha":1105,"x_min":33,"x_max":1072,"o":"m 553 787 q 448 761 496 787 q 373 680 401 734 q 345 541 345 625 q 358 416 345 469 q 404 322 372 363 q 489 248 435 281 l 489 0 l 33 0 l 33 220 l 286 220 q 165 314 214 255 q 93 443 117 372 q 69 586 69 514 q 130 812 69 718 q 299 957 190 907 q 553 1007 408 1007 q 805 957 696 1007 q 975 812 914 906 q 1036 587 1036 718 q 1013 444 1036 513 q 940 317 989 374 q 814 220 891 259 l 1072 220 l 1072 0 l 612 0 l 612 248 q 701 324 669 283 q 747 419 734 366 q 761 543 761 473 q 733 681 761 627 q 657 761 705 735 q 553 787 610 787 z "},"Ϊ":{"ha":484,"x_min":-38,"x_max":521,"o":"m 107 0 l 107 991 l 376 991 l 376 0 l 107 0 m -38 1182 q -5 1263 -38 1238 q 77 1289 28 1289 q 159 1263 124 1289 q 194 1182 194 1238 q 159 1102 194 1128 q 77 1076 124 1076 q -5 1102 28 1076 q -38 1182 -38 1128 m 287 1182 q 320 1263 287 1238 q 404 1289 354 1289 q 486 1263 451 1289 q 521 1182 521 1238 q 486 1102 521 1128 q 404 1076 451 1076 q 320 1102 354 1076 q 287 1182 287 1128 z "},"Ϋ":{"ha":922,"x_min":0,"x_max":922,"o":"m 461 624 l 632 991 l 922 991 l 596 387 l 596 0 l 326 0 l 326 379 l 0 991 l 292 991 l 461 624 m 182 1182 q 215 1263 182 1238 q 297 1289 248 1289 q 379 1263 344 1289 q 414 1182 414 1238 q 379 1102 414 1128 q 297 1076 344 1076 q 215 1102 248 1076 q 182 1182 182 1128 m 507 1182 q 540 1263 507 1238 q 623 1289 574 1289 q 706 1263 671 1289 q 741 1182 741 1238 q 706 1102 741 1128 q 623 1076 671 1076 q 540 1102 574 1076 q 507 1182 507 1128 z "},"ά":{"ha":933,"x_min":58,"x_max":899,"o":"m 440 192 q 510 212 484 192 q 546 272 535 231 q 558 375 557 313 l 558 382 q 532 524 558 473 q 437 574 506 574 q 356 523 384 574 q 328 379 328 473 q 356 240 328 288 q 440 192 385 192 m 350 -14 q 139 87 219 -14 q 58 380 58 188 q 143 679 58 578 q 368 779 229 779 q 497 751 447 779 q 579 665 547 724 l 590 665 q 608 718 597 689 q 637 768 620 747 l 860 768 q 836 691 850 739 q 813 582 823 644 q 803 450 803 521 l 803 277 q 820 211 803 227 q 859 195 837 195 q 881 197 868 195 q 899 201 894 199 l 899 4 q 872 -4 892 0 q 830 -11 852 -8 q 793 -14 808 -14 q 662 11 711 -14 q 582 100 614 35 l 566 100 q 515 43 545 68 q 444 2 485 17 q 350 -14 403 -14 m 380 842 l 380 864 q 394 918 387 888 q 408 982 401 949 q 421 1047 415 1015 q 431 1104 427 1079 l 664 1104 l 664 1086 q 626 1008 646 1047 q 583 928 606 968 q 532 842 560 887 l 380 842 z "},"έ":{"ha":770,"x_min":43,"x_max":721,"o":"m 571 485 l 571 313 l 471 313 q 368 305 403 313 q 321 284 333 298 q 309 249 309 270 q 317 221 309 237 q 356 194 326 205 q 449 183 387 183 q 604 202 535 183 q 721 243 673 221 l 721 40 q 592 1 663 15 q 410 -14 521 -14 q 126 46 210 -14 q 43 218 43 106 q 90 335 43 285 q 228 399 136 386 l 228 406 q 127 467 165 422 q 89 574 89 511 q 135 695 89 650 q 258 761 180 741 q 429 782 335 782 q 584 767 516 782 q 721 724 652 753 l 646 545 q 544 581 593 568 q 440 593 496 593 q 363 579 387 593 q 339 542 339 566 q 372 499 339 513 q 488 485 406 485 l 571 485 m 335 842 l 335 864 q 349 918 342 888 q 363 982 357 949 q 376 1047 370 1015 q 386 1104 382 1079 l 619 1104 l 619 1086 q 582 1008 602 1047 q 538 928 562 968 q 488 842 515 887 l 335 842 z "},"ή":{"ha":930,"x_min":92,"x_max":842,"o":"m 572 782 q 709 752 648 782 q 806 661 770 723 q 842 500 842 599 l 842 -334 l 576 -334 l 576 437 q 554 537 576 500 q 484 574 532 574 q 406 546 433 574 q 368 466 378 519 q 357 336 357 413 l 357 0 l 92 0 l 92 768 l 292 768 l 325 673 l 340 673 q 401 736 365 713 q 481 771 437 760 q 572 782 526 782 m 387 842 l 387 864 q 401 918 393 888 q 415 982 408 949 q 428 1047 422 1015 q 437 1104 434 1079 l 671 1104 l 671 1086 q 633 1008 653 1047 q 590 928 613 968 q 539 842 567 887 l 387 842 z "},"ί":{"ha":604,"x_min":90,"x_max":576,"o":"m 355 768 l 355 264 q 380 208 355 221 q 435 195 405 195 q 504 202 473 195 q 576 224 535 209 l 576 29 q 485 -2 537 10 q 367 -14 433 -14 q 226 9 289 -14 q 127 90 163 33 q 90 252 90 148 l 90 768 l 355 768 m 142 842 l 142 864 q 156 918 149 888 q 170 982 163 949 q 183 1047 177 1015 q 193 1104 189 1079 l 426 1104 l 426 1086 q 388 1008 408 1047 q 345 928 368 968 q 294 842 322 887 l 142 842 z "},"ΰ":{"ha":921,"x_min":89,"x_max":854,"o":"m 458 -11 q 234 37 314 -11 q 121 168 153 85 q 89 351 89 250 l 89 768 l 354 768 l 354 338 q 381 229 354 260 q 464 197 408 197 q 557 244 526 197 q 589 419 589 290 q 575 587 589 505 q 536 768 562 670 l 804 768 q 833 647 822 704 q 849 533 844 589 q 854 414 854 477 q 754 92 854 194 q 458 -11 653 -11 m 621 1164 l 621 1150 q 590 1085 608 1119 q 550 1016 572 1052 q 503 942 528 980 l 387 942 l 387 961 q 397 1024 391 987 q 408 1098 403 1061 q 413 1164 412 1135 l 621 1164 m 256 1065 q 332 1040 302 1065 q 361 958 361 1014 q 332 879 361 905 q 256 852 302 852 q 179 879 207 852 q 152 958 152 905 q 179 1040 152 1014 q 256 1065 207 1065 m 675 1065 q 752 1040 724 1065 q 781 958 781 1014 q 752 879 781 905 q 675 852 724 852 q 597 879 625 852 q 568 958 568 905 q 597 1040 568 1014 q 675 1065 625 1065 z "},"α":{"ha":933,"x_min":58,"x_max":899,"o":"m 440 192 q 510 212 484 192 q 546 272 535 231 q 558 375 557 313 l 558 382 q 532 524 558 473 q 437 574 506 574 q 356 523 384 574 q 328 379 328 473 q 356 240 328 288 q 440 192 385 192 m 350 -14 q 139 87 219 -14 q 58 380 58 188 q 143 679 58 578 q 368 779 229 779 q 497 751 447 779 q 579 665 547 724 l 590 665 q 608 718 597 689 q 637 768 620 747 l 860 768 q 836 691 850 739 q 813 582 823 644 q 803 450 803 521 l 803 277 q 820 211 803 227 q 859 195 837 195 q 881 197 868 195 q 899 201 894 199 l 899 4 q 872 -4 892 0 q 830 -11 852 -8 q 793 -14 808 -14 q 662 11 711 -14 q 582 100 614 35 l 566 100 q 515 43 545 68 q 444 2 485 17 q 350 -14 403 -14 z "},"β":{"ha":951,"x_min":92,"x_max":896,"o":"m 476 1063 q 661 1033 580 1063 q 788 944 742 1003 q 835 794 835 884 q 785 636 835 694 q 644 564 735 578 l 644 558 q 826 486 757 544 q 896 301 896 427 q 854 132 896 203 q 740 24 813 62 q 570 -14 666 -14 q 455 -3 512 -14 q 357 26 397 7 l 357 -334 l 92 -334 l 92 743 q 143 926 92 855 q 281 1029 194 996 q 476 1063 368 1063 m 468 865 q 412 853 437 865 q 372 809 387 841 q 357 720 357 778 l 357 231 q 414 206 376 217 q 486 195 453 195 q 589 228 551 195 q 627 326 627 260 q 605 397 627 372 q 552 432 584 422 q 488 443 519 443 l 449 443 l 449 640 l 475 640 q 548 673 524 640 q 571 755 571 707 q 543 837 571 808 q 468 865 514 865 z "},"γ":{"ha":838,"x_min":-1,"x_max":842,"o":"m 842 768 l 558 9 q 522 -109 537 -47 q 499 -229 507 -170 q 492 -334 492 -287 l 212 -334 q 221 -237 212 -295 q 245 -114 230 -178 q 278 8 260 -49 l -1 768 l 275 768 l 354 519 q 378 437 366 481 q 400 351 391 394 q 414 269 410 308 l 419 269 q 430 325 422 290 q 450 406 437 360 q 481 507 463 452 l 566 768 l 842 768 z "},"δ":{"ha":884,"x_min":58,"x_max":827,"o":"m 486 1068 q 663 1048 579 1068 q 827 990 747 1029 l 728 799 q 598 852 659 833 q 490 871 536 871 q 428 860 447 871 q 408 827 408 848 q 424 793 408 809 q 478 754 439 777 q 586 692 517 731 q 724 590 671 645 q 801 470 777 536 q 825 325 825 405 q 777 136 825 212 q 641 24 728 61 q 437 -14 554 -14 q 242 23 328 -14 q 107 129 157 59 q 58 297 58 198 q 83 430 58 370 q 161 535 108 490 q 302 610 215 581 q 221 679 254 642 q 172 759 188 716 q 155 848 155 802 q 236 1008 155 947 q 486 1068 317 1068 m 444 509 q 393 477 420 501 q 347 412 366 453 q 328 313 328 371 q 341 247 328 276 q 379 200 354 217 q 440 183 404 183 q 502 200 476 183 q 542 249 528 217 q 555 326 555 281 q 524 430 555 385 q 444 509 492 475 z "},"ε":{"ha":770,"x_min":43,"x_max":721,"o":"m 571 485 l 571 313 l 471 313 q 368 305 403 313 q 321 284 333 298 q 309 249 309 270 q 317 221 309 237 q 356 194 326 205 q 449 183 387 183 q 604 202 535 183 q 721 243 673 221 l 721 40 q 592 1 663 15 q 410 -14 521 -14 q 126 46 210 -14 q 43 218 43 106 q 90 335 43 285 q 228 399 136 386 l 228 406 q 127 467 165 422 q 89 574 89 511 q 135 695 89 650 q 258 761 180 741 q 429 782 335 782 q 584 767 516 782 q 721 724 652 753 l 646 545 q 544 581 593 568 q 440 593 496 593 q 363 579 387 593 q 339 542 339 566 q 372 499 339 513 q 488 485 406 485 l 571 485 z "},"ζ":{"ha":708,"x_min":58,"x_max":720,"o":"m 720 -12 q 693 -134 720 -76 q 625 -248 667 -192 l 354 -248 q 411 -175 388 -211 q 445 -111 433 -140 q 457 -69 457 -83 q 445 -37 457 -50 q 399 -12 433 -24 q 298 17 366 1 q 145 83 197 41 q 76 185 94 125 q 58 319 58 244 q 79 457 58 388 q 142 595 99 526 q 252 734 185 664 q 412 873 319 804 q 377 865 397 869 q 336 860 357 862 q 300 859 316 859 l 96 859 l 96 1055 l 704 1055 l 704 899 q 520 731 593 808 q 405 585 447 653 q 345 454 363 517 q 328 332 328 392 q 344 267 328 292 q 402 226 361 242 q 517 193 444 210 q 640 147 595 177 q 702 76 684 117 q 720 -12 720 36 z "},"η":{"ha":930,"x_min":92,"x_max":842,"o":"m 572 782 q 709 752 648 782 q 806 661 770 723 q 842 500 842 599 l 842 -334 l 576 -334 l 576 437 q 554 537 576 500 q 484 574 532 574 q 406 546 433 574 q 368 466 378 519 q 357 336 357 413 l 357 0 l 92 0 l 92 768 l 292 768 l 325 673 l 340 673 q 401 736 365 713 q 481 771 437 760 q 572 782 526 782 z "},"θ":{"ha":892,"x_min":58,"x_max":833,"o":"m 833 529 q 795 238 833 359 q 670 51 756 116 q 444 -14 585 -14 q 154 130 250 -14 q 58 529 58 274 q 96 821 58 699 q 219 1006 134 942 q 444 1071 304 1071 q 736 929 639 1071 q 833 529 833 787 m 444 172 q 533 238 504 172 q 564 435 562 304 l 328 435 q 357 239 329 307 q 444 172 385 172 m 447 885 q 361 820 389 885 q 330 621 334 754 l 566 621 q 533 820 561 754 q 447 885 505 885 z "},"ι":{"ha":604,"x_min":90,"x_max":576,"o":"m 355 768 l 355 264 q 380 208 355 221 q 435 195 405 195 q 504 202 473 195 q 576 224 535 209 l 576 29 q 485 -2 537 10 q 367 -14 433 -14 q 226 9 289 -14 q 127 90 163 33 q 90 252 90 148 l 90 768 l 355 768 z "},"κ":{"ha":916,"x_min":92,"x_max":916,"o":"m 903 768 l 628 432 l 916 0 l 616 0 l 446 271 l 358 204 l 358 0 l 92 0 l 92 768 l 358 768 l 358 602 q 356 503 358 544 q 351 436 353 462 l 357 436 q 390 486 370 454 q 439 554 411 517 l 606 768 l 903 768 z "},"λ":{"ha":924,"x_min":0,"x_max":911,"o":"m 0 0 l 330 717 l 321 745 q 260 836 296 815 q 184 856 225 856 q 140 853 165 856 q 93 844 115 850 l 93 1053 q 130 1058 106 1056 q 179 1062 153 1061 q 221 1064 204 1064 q 379 1038 315 1064 q 485 957 442 1013 q 559 814 528 902 l 726 347 q 771 245 751 278 q 812 204 791 213 q 860 195 833 195 q 883 196 870 195 q 911 201 896 197 l 911 9 q 871 -2 899 3 q 812 -10 843 -7 q 764 -14 782 -14 q 646 15 692 -14 q 570 88 599 43 q 522 183 541 133 l 475 313 q 462 352 468 334 q 452 387 456 371 q 445 417 448 404 q 440 443 442 431 l 435 443 q 420 373 430 410 q 401 314 411 337 l 275 0 l 0 0 z "},"μ":{"ha":933,"x_min":92,"x_max":842,"o":"m 842 768 l 842 0 l 643 0 l 607 103 l 596 103 q 558 38 581 64 q 509 -1 536 12 q 452 -14 481 -14 q 392 0 414 -14 q 351 43 370 14 l 349 43 q 353 -4 351 24 q 356 -61 355 -32 q 357 -117 357 -91 l 357 -334 l 92 -334 l 92 768 l 357 768 l 357 351 q 379 235 357 273 q 456 196 402 196 q 527 223 501 196 q 564 303 553 250 q 575 432 575 356 l 575 768 l 842 768 z "},"ν":{"ha":861,"x_min":0,"x_max":812,"o":"m 0 768 l 272 768 l 411 335 q 419 306 415 323 q 428 272 424 290 q 435 239 432 255 l 441 239 q 498 371 475 300 q 534 538 522 442 q 547 768 547 633 l 812 768 q 784 494 812 623 q 690 244 755 366 q 513 0 625 123 l 290 0 l 0 768 z "},"ξ":{"ha":717,"x_min":58,"x_max":720,"o":"m 58 289 q 80 401 58 353 q 143 487 101 450 q 249 549 186 523 l 249 554 q 168 587 200 565 q 118 642 135 609 q 102 715 102 674 q 116 778 102 747 q 162 832 130 808 q 245 867 194 856 q 209 863 227 865 q 170 860 191 861 q 118 859 149 859 l 81 859 l 81 1055 l 685 1055 l 685 859 l 574 859 q 496 853 533 859 q 429 833 458 847 q 382 795 399 819 q 366 734 366 771 q 399 667 366 691 q 525 643 433 643 l 635 643 l 635 449 l 526 449 q 400 431 443 449 q 342 383 357 412 q 328 321 328 354 q 340 268 328 290 q 391 229 352 246 q 509 195 429 212 q 633 148 587 178 q 700 77 680 117 q 720 -12 720 36 q 693 -134 720 -76 q 625 -248 667 -192 l 354 -248 q 411 -175 388 -211 q 445 -111 433 -140 q 457 -69 457 -83 q 447 -37 457 -50 q 409 -12 437 -23 q 328 11 381 -1 q 175 70 234 32 q 87 163 115 108 q 58 289 58 218 z "},"ο":{"ha":885,"x_min":58,"x_max":825,"o":"m 825 386 q 799 215 825 290 q 722 90 772 140 q 601 13 672 39 q 440 -14 530 -14 q 287 13 357 -14 q 166 90 218 39 q 86 215 115 140 q 58 386 58 290 q 105 602 58 513 q 238 736 151 690 q 444 782 324 782 q 641 736 555 782 q 776 602 727 690 q 825 386 825 513 m 328 386 q 339 275 328 320 q 376 207 351 230 q 443 183 401 183 q 509 207 484 183 q 544 275 533 230 q 555 386 555 320 q 544 496 555 452 q 508 562 533 540 q 441 585 484 585 q 354 534 381 585 q 328 386 328 484 z "},"π":{"ha":1104,"x_min":16,"x_max":1050,"o":"m 945 195 q 997 201 968 195 q 1050 218 1027 208 l 1050 36 q 962 1 1018 16 q 844 -14 906 -14 q 669 51 723 -14 q 615 239 615 116 l 615 571 l 444 571 l 444 0 l 179 0 l 179 571 l 16 571 l 16 684 l 151 768 l 1050 768 l 1050 571 l 880 571 l 880 268 q 899 212 880 229 q 945 195 918 195 z "},"ρ":{"ha":903,"x_min":89,"x_max":844,"o":"m 844 383 q 807 169 844 258 q 703 33 770 80 q 542 -14 635 -14 q 441 -1 490 -14 q 357 32 391 11 l 339 32 q 349 -52 345 0 q 354 -149 354 -104 l 354 -334 l 89 -334 l 89 379 q 133 593 89 503 q 262 733 177 684 q 471 782 347 782 q 662 734 578 782 q 795 598 747 687 q 844 383 844 509 m 467 585 q 383 542 412 585 q 354 415 354 500 l 354 243 q 407 205 375 218 q 468 192 439 192 q 549 234 524 192 q 575 383 575 277 q 549 537 575 490 q 467 585 523 585 z "},"ς":{"ha":741,"x_min":58,"x_max":722,"o":"m 453 782 q 588 766 519 782 q 722 718 656 750 l 647 524 q 541 560 593 547 q 453 574 488 574 q 357 519 387 574 q 328 374 328 465 q 341 293 328 327 q 395 235 355 258 q 517 193 436 211 q 640 147 595 177 q 702 76 684 117 q 720 -12 720 36 q 693 -134 720 -76 q 625 -248 667 -192 l 354 -248 q 411 -175 388 -211 q 445 -111 433 -140 q 457 -69 457 -83 q 446 -37 457 -50 q 400 -12 434 -24 q 298 17 366 1 q 203 52 247 29 q 126 115 159 75 q 76 219 94 155 q 58 378 58 283 q 105 599 58 509 q 240 735 151 689 q 453 782 328 782 z "},"σ":{"ha":946,"x_min":58,"x_max":909,"o":"m 844 323 q 799 149 844 225 q 666 30 753 73 q 450 -14 578 -14 q 244 30 333 -14 q 107 155 156 73 q 58 355 58 237 q 105 582 58 490 q 254 721 152 674 q 519 768 355 768 l 909 768 l 909 571 l 721 571 q 813 465 783 526 q 844 323 844 404 m 329 357 q 342 276 329 312 q 383 218 355 239 q 453 197 410 197 q 546 242 517 197 q 575 364 575 287 q 567 452 575 418 q 543 514 558 487 q 505 571 527 541 l 490 571 q 368 523 406 571 q 329 357 329 475 z "},"τ":{"ha":734,"x_min":16,"x_max":690,"o":"m 690 768 l 690 571 l 464 571 l 464 268 q 482 214 464 233 q 532 195 500 195 q 596 202 566 195 q 663 224 627 210 l 663 31 q 572 0 624 12 q 456 -12 519 -12 q 320 10 378 -12 q 231 90 262 33 q 199 253 199 148 l 199 571 l 16 571 l 16 684 l 147 768 l 690 768 z "},"υ":{"ha":921,"x_min":89,"x_max":854,"o":"m 458 -11 q 234 37 314 -11 q 121 168 153 85 q 89 351 89 250 l 89 768 l 354 768 l 354 338 q 381 229 354 260 q 464 197 408 197 q 557 244 526 197 q 589 419 589 290 q 575 587 589 505 q 536 768 562 670 l 804 768 q 833 647 822 704 q 849 533 844 589 q 854 414 854 477 q 754 92 854 194 q 458 -11 653 -11 z "},"φ":{"ha":1175,"x_min":58,"x_max":1117,"o":"m 215 791 l 412 672 q 342 531 367 610 q 317 372 317 452 q 332 286 317 321 q 378 227 348 250 q 450 192 408 203 l 450 467 q 525 701 450 624 q 755 778 600 778 q 948 734 867 778 q 1073 608 1029 690 q 1117 410 1117 526 q 1064 195 1117 283 q 918 56 1011 106 q 701 -5 824 6 l 701 -334 l 450 -334 l 450 -5 q 245 48 334 3 q 107 176 157 94 q 58 376 58 258 q 99 600 58 500 q 215 791 140 699 m 760 581 q 714 557 726 581 q 701 476 701 534 l 701 192 q 792 229 760 197 q 839 310 825 262 q 852 408 852 358 q 843 499 852 460 q 812 559 833 538 q 760 581 791 581 z "},"χ":{"ha":897,"x_min":-36,"x_max":884,"o":"m 184 781 q 306 762 257 781 q 390 700 355 743 q 452 583 424 656 l 479 511 l 607 768 l 884 768 l 597 258 l 720 -50 q 741 -90 728 -73 q 769 -116 753 -106 q 806 -125 785 -125 q 834 -123 818 -125 q 878 -115 850 -122 l 878 -306 q 803 -327 838 -320 q 714 -334 768 -334 q 608 -312 654 -334 q 531 -244 563 -290 q 476 -127 498 -198 l 427 24 l 261 -334 l -36 -334 l 309 277 l 228 489 q 185 555 209 538 q 135 572 161 572 q 97 569 117 572 q 45 555 76 566 l 45 754 q 109 773 74 765 q 184 781 143 781 z "},"ψ":{"ha":1242,"x_min":89,"x_max":1175,"o":"m 751 1054 l 751 197 q 843 221 806 203 q 899 280 880 239 q 917 393 917 321 q 901 576 917 483 q 856 768 886 670 l 1111 768 q 1160 572 1145 663 q 1175 389 1175 481 q 1119 161 1175 247 q 966 35 1062 75 q 751 -11 870 -5 l 751 -334 l 500 -334 l 500 -11 q 286 32 378 -7 q 141 154 193 71 q 89 378 89 238 l 89 768 l 347 768 l 347 371 q 366 269 347 305 q 418 217 384 233 q 500 197 452 201 l 500 1054 l 751 1054 z "},"ω":{"ha":1270,"x_min":66,"x_max":1203,"o":"m 1131 768 q 1172 639 1156 701 q 1195 513 1187 577 q 1203 374 1203 450 q 1166 174 1203 262 q 1055 37 1129 87 q 868 -14 981 -14 q 719 25 772 -14 q 639 142 666 64 l 631 142 q 551 26 605 66 q 400 -14 497 -14 q 214 37 288 -14 q 103 174 140 87 q 66 374 66 262 q 74 513 66 450 q 98 639 82 577 q 139 768 115 701 l 410 768 q 346 582 366 681 q 325 385 325 483 q 349 233 325 273 q 422 192 373 192 q 473 204 454 192 q 500 252 492 217 q 509 357 509 288 l 509 543 l 761 543 l 761 357 q 769 254 761 290 q 795 205 777 218 q 847 192 814 192 q 909 219 888 192 q 937 288 930 245 q 945 380 945 331 q 924 579 945 477 q 860 768 904 681 l 1131 768 z "},"ϊ":{"ha":604,"x_min":-46,"x_max":576,"o":"m 355 768 l 355 264 q 380 208 355 221 q 435 195 405 195 q 504 202 473 195 q 576 224 535 209 l 576 29 q 485 -2 537 10 q 367 -14 433 -14 q 226 9 289 -14 q 127 90 163 33 q 90 252 90 148 l 90 768 l 355 768 m -46 958 q -13 1040 -46 1014 q 69 1065 20 1065 q 151 1040 116 1065 q 186 958 186 1014 q 151 879 186 905 q 69 852 116 852 q -13 879 20 852 q -46 958 -46 905 m 279 958 q 312 1040 279 1014 q 395 1065 346 1065 q 478 1040 443 1065 q 513 958 513 1014 q 478 879 513 905 q 395 852 443 852 q 312 879 346 852 q 279 958 279 905 z "},"ϋ":{"ha":921,"x_min":89,"x_max":854,"o":"m 458 -11 q 234 37 314 -11 q 121 168 153 85 q 89 351 89 250 l 89 768 l 354 768 l 354 338 q 381 229 354 260 q 464 197 408 197 q 557 244 526 197 q 589 419 589 290 q 575 587 589 505 q 536 768 562 670 l 804 768 q 833 647 822 704 q 849 533 844 589 q 854 414 854 477 q 754 92 854 194 q 458 -11 653 -11 m 183 958 q 216 1040 183 1014 q 298 1065 250 1065 q 380 1040 345 1065 q 415 958 415 1014 q 380 879 415 905 q 298 852 345 852 q 216 879 250 852 q 183 958 183 905 m 508 958 q 542 1040 508 1014 q 625 1065 575 1065 q 707 1040 672 1065 q 742 958 742 1014 q 707 879 742 905 q 625 852 672 852 q 542 879 575 852 q 508 958 508 905 z "},"ό":{"ha":885,"x_min":58,"x_max":825,"o":"m 825 386 q 799 215 825 290 q 722 90 772 140 q 601 13 672 39 q 440 -14 530 -14 q 287 13 357 -14 q 166 90 218 39 q 86 215 115 140 q 58 386 58 290 q 105 602 58 513 q 238 736 151 690 q 444 782 324 782 q 641 736 555 782 q 776 602 727 690 q 825 386 825 513 m 328 386 q 339 275 328 320 q 376 207 351 230 q 443 183 401 183 q 509 207 484 183 q 544 275 533 230 q 555 386 555 320 q 544 496 555 452 q 508 562 533 540 q 441 585 484 585 q 354 534 381 585 q 328 386 328 484 m 352 842 l 352 864 q 366 918 359 888 q 380 982 374 949 q 393 1047 387 1015 q 403 1104 399 1079 l 636 1104 l 636 1086 q 598 1008 618 1047 q 555 928 578 968 q 505 842 532 887 l 352 842 z "},"ύ":{"ha":921,"x_min":89,"x_max":854,"o":"m 458 -11 q 234 37 314 -11 q 121 168 153 85 q 89 351 89 250 l 89 768 l 354 768 l 354 338 q 381 229 354 260 q 464 197 408 197 q 557 244 526 197 q 589 419 589 290 q 575 587 589 505 q 536 768 562 670 l 804 768 q 833 647 822 704 q 849 533 844 589 q 854 414 854 477 q 754 92 854 194 q 458 -11 653 -11 m 371 842 l 371 864 q 385 918 378 888 q 399 982 393 949 q 412 1047 406 1015 q 422 1104 418 1079 l 655 1104 l 655 1086 q 617 1008 637 1047 q 574 928 597 968 q 524 842 551 887 l 371 842 z "},"ώ":{"ha":1270,"x_min":66,"x_max":1203,"o":"m 1131 768 q 1172 639 1156 701 q 1195 513 1187 577 q 1203 374 1203 450 q 1166 174 1203 262 q 1055 37 1129 87 q 868 -14 981 -14 q 719 25 772 -14 q 639 142 666 64 l 631 142 q 551 26 605 66 q 400 -14 497 -14 q 214 37 288 -14 q 103 174 140 87 q 66 374 66 262 q 74 513 66 450 q 98 639 82 577 q 139 768 115 701 l 410 768 q 346 582 366 681 q 325 385 325 483 q 349 233 325 273 q 422 192 373 192 q 473 204 454 192 q 500 252 492 217 q 509 357 509 288 l 509 543 l 761 543 l 761 357 q 769 254 761 290 q 795 205 777 218 q 847 192 814 192 q 909 219 888 192 q 937 288 930 245 q 945 380 945 331 q 924 579 945 477 q 860 768 904 681 l 1131 768 m 547 842 l 547 864 q 562 918 554 888 q 576 982 569 949 q 589 1047 583 1015 q 598 1104 595 1079 l 831 1104 l 831 1086 q 794 1008 814 1047 q 751 928 774 968 q 700 842 728 887 l 547 842 z "},"Ё":{"ha":762,"x_min":107,"x_max":696,"o":"m 696 0 l 107 0 l 107 991 l 696 991 l 696 777 l 375 777 l 375 621 l 672 621 l 672 406 l 375 406 l 375 218 l 696 218 l 696 0 m 122 1182 q 155 1263 122 1238 q 237 1289 189 1289 q 319 1263 284 1289 q 354 1182 354 1238 q 319 1102 354 1128 q 237 1076 284 1076 q 155 1102 189 1076 q 122 1182 122 1128 m 447 1182 q 480 1263 447 1238 q 564 1289 514 1289 q 646 1263 611 1289 q 681 1182 681 1238 q 646 1102 681 1128 q 564 1076 611 1076 q 480 1102 514 1076 q 447 1182 447 1128 z "},"Ђ":{"ha":1150,"x_min":35,"x_max":1083,"o":"m 791 -14 q 722 -9 758 -14 q 660 5 686 -5 l 660 212 q 706 198 681 203 q 751 192 732 192 q 788 200 774 192 q 809 223 802 208 q 815 261 815 239 l 815 355 q 795 411 815 392 q 733 429 776 429 l 546 429 l 546 0 l 277 0 l 277 772 l 35 772 l 35 991 l 812 991 l 812 772 l 546 772 l 546 648 l 741 648 q 996 574 909 648 q 1083 370 1083 500 l 1083 288 q 1014 66 1083 146 q 791 -14 945 -14 z "},"Ѓ":{"ha":803,"x_min":107,"x_max":786,"o":"m 768 991 l 768 775 l 376 775 l 376 0 l 107 0 l 107 991 l 768 991 m 786 1288 l 786 1274 q 724 1226 762 1254 q 643 1167 686 1198 q 561 1110 601 1137 q 493 1065 522 1083 l 317 1065 l 317 1085 q 374 1146 340 1111 q 440 1219 407 1182 q 496 1288 473 1257 l 786 1288 z "},"Є":{"ha":930,"x_min":71,"x_max":888,"o":"m 568 783 q 486 772 523 783 q 421 739 449 762 q 376 680 393 715 q 351 596 358 645 l 745 596 l 745 392 l 351 392 q 370 315 355 349 q 412 257 385 281 q 479 222 439 234 q 572 210 519 210 q 718 226 652 210 q 857 268 784 242 l 857 46 q 719 3 798 20 q 553 -14 640 -14 q 278 50 385 -14 q 121 226 172 113 q 71 493 71 340 q 102 697 71 604 q 195 860 133 791 q 350 966 257 928 q 566 1004 443 1004 q 745 981 665 1004 q 888 930 826 958 l 802 713 q 693 764 746 744 q 568 783 641 783 z "},"Ѕ":{"ha":802,"x_min":61,"x_max":755,"o":"m 755 301 q 715 148 755 220 q 588 31 674 76 q 367 -14 503 -14 q 248 -7 299 -14 q 153 13 197 -1 q 61 49 109 26 l 61 288 q 224 225 142 247 q 372 204 306 204 q 438 214 412 204 q 475 240 463 223 q 488 278 488 256 q 470 322 488 304 q 412 359 452 340 q 309 408 373 379 q 209 461 254 434 q 133 523 165 488 q 85 605 102 558 q 68 715 68 652 q 115 876 68 811 q 247 973 162 941 q 441 1006 331 1006 q 616 984 538 1006 q 755 935 694 962 l 673 728 q 548 774 610 757 q 433 791 486 791 q 377 783 399 791 q 344 760 355 774 q 334 728 334 746 q 352 686 334 705 q 412 647 370 668 q 528 591 454 625 q 651 521 600 559 q 729 431 702 484 q 755 301 755 378 z "},"І":{"ha":484,"x_min":107,"x_max":376,"o":"m 107 0 l 107 991 l 376 991 l 376 0 l 107 0 z "},"Ї":{"ha":484,"x_min":-38,"x_max":521,"o":"m 107 0 l 107 991 l 376 991 l 376 0 l 107 0 m -38 1182 q -5 1263 -38 1238 q 77 1289 28 1289 q 159 1263 124 1289 q 194 1182 194 1238 q 159 1102 194 1128 q 77 1076 124 1076 q -5 1102 28 1076 q -38 1182 -38 1128 m 287 1182 q 320 1263 287 1238 q 404 1289 354 1289 q 486 1263 451 1289 q 521 1182 521 1238 q 486 1102 521 1128 q 404 1076 451 1076 q 320 1102 354 1076 q 287 1182 287 1128 z "},"Ј":{"ha":489,"x_min":-110,"x_max":382,"o":"m 29 -311 q -51 -307 -16 -311 q -110 -297 -85 -302 l -110 -89 q -64 -98 -88 -93 q -11 -103 -39 -103 q 64 -83 37 -103 q 102 -24 91 -64 q 113 74 113 15 l 113 991 l 382 991 l 382 97 q 337 -142 382 -52 q 213 -271 292 -231 q 29 -311 134 -311 z "}}}
